<svg xmlns="http://www.w3.org/2000/svg" width="29.725" height="29.721" viewBox="0 0 29.725 29.721"><g transform="translate(-177.266 -106.256)"><g transform="translate(177.266 106.256)"><path d="M177.266,132.611V111.947a.781.781,0,0,0,.049-.134,3.824,3.824,0,0,1,3.844-3.233c.774,0,1.548,0,2.321,0h.286c0-.49,0-.934,0-1.379a.894.894,0,0,1,.516-.843.922.922,0,0,1,1.337.829c.011.46,0,.92,0,1.378h13c0-.485-.013-.956,0-1.427a.917.917,0,0,1,.906-.88.932.932,0,0,1,.943.875c.01.164,0,.329,0,.493,0,.315,0,.629,0,.953.926,0,1.806-.005,2.685,0a3.816,3.816,0,0,1,3.812,3.8c.008,6.6.018,13.194-.007,19.79a3.663,3.663,0,0,1-2.365,3.51,7.636,7.636,0,0,1-.992.3H180.633a1.3,1.3,0,0,0-.16-.053,3.8,3.8,0,0,1-3.068-2.758C177.347,132.985,177.312,132.8,177.266,132.611ZM205.128,116.5h-26v.366q0,7.531,0,15.062a2,2,0,0,0,2.192,2.2h21.621a2,2,0,0,0,2.192-2.2q0-7.546,0-15.091Zm-26-1.9h25.979a.811.811,0,0,0,.015-.1c0-.7.008-1.393,0-2.089a1.909,1.909,0,0,0-1.723-1.938c-.959-.071-1.927-.016-2.919-.016,0,.282,0,.55,0,.818a.933.933,0,1,1-1.857,0c0-.276,0-.551,0-.819h-13c0,.3,0,.591,0,.879a.928.928,0,1,1-1.856-.005c0-.287,0-.575,0-.874-.993,0-1.961-.052-2.921.015a1.863,1.863,0,0,0-1.7,1.738C179.093,112.993,179.132,113.787,179.132,114.6Z" transform="translate(-177.266 -106.256)" fill="#d90000"/></g><g transform="translate(182.294 118.873)"><rect width="5.62" height="5.62" transform="translate(0 0)" fill="#1a1818"/><rect width="5.62" height="5.62" transform="translate(0 7.073)" fill="#1a1818"/><rect width="5.62" height="5.62" transform="translate(7.073 0)" fill="#1a1818"/><rect width="5.62" height="5.62" transform="translate(7.073 7.073)" fill="#1a1818"/><rect width="5.62" height="5.62" transform="translate(14.049 0)" fill="#1a1818"/><rect width="5.62" height="5.62" transform="translate(14.049 7.073)" fill="#1a1818"/></g></g></svg>