<svg width="47" height="118" viewBox="0 0 47 118" fill="none" xmlns="http://www.w3.org/2000/svg">
<path fill-rule="evenodd" clip-rule="evenodd" d="M34.138 65.089C37.392 68.129 35.397 72.229 33.352 74.46C22.617 75.147 4.765 83.689 0 73.053C0.588 71.953 2.374 71.569 2.748 70.353C12.411 68.266 24.822 65.16 34.138 65.089Z" fill="white"/>
<path fill-rule="evenodd" clip-rule="evenodd" d="M38.0679 92.224C42.3279 90.581 47 91.41 47 95.373C47 96.527 44.455 100.501 43.306 102.035C38.755 108.125 30.3179 115.82 23.2329 117.87C21.2539 115.908 19.3799 115.303 19.0229 111.978C25.9449 105.883 33.3849 100.189 38.0679 92.224Z" fill="white"/>
<path fill-rule="evenodd" clip-rule="evenodd" d="M34.6329 41.503C36.7489 44.427 33.9679 49.489 29.8239 49.88C27.5479 50.08 23.0469 48.094 19.4239 47.088C12.2129 45.098 5.02393 42.581 3.52393 36.48C4.10093 35.837 5.49693 34.139 6.54193 34.106C14.7189 33.775 27.9219 39.585 34.6329 41.503Z" fill="white"/>
<path fill-rule="evenodd" clip-rule="evenodd" d="M20.534 0C18.863 0.539 17.734 2.006 16.522 3.358C17.715 4.573 17.885 6.358 17.94 8.2C25.294 13.427 30.307 19.99 40.04 23.865C41.606 23.64 42.695 22.557 44.476 22.694C44.828 21.76 45.74 20.578 46.493 19.138C39.859 12.762 31.559 7.365 24.678 1.138C23.294 0.764 21.919 0.374 20.534 0Z" fill="white"/>
</svg>
