<svg xmlns="http://www.w3.org/2000/svg" width="48.397" height="48.397" viewBox="0 0 48.397 48.397"><path d="M33.273,0H15.124A15.126,15.126,0,0,0,0,15.124V33.273A15.126,15.126,0,0,0,15.124,48.4H33.273A15.126,15.126,0,0,0,48.4,33.273V15.124A15.126,15.126,0,0,0,33.273,0ZM43.859,33.273A10.6,10.6,0,0,1,33.273,43.86H15.124A10.6,10.6,0,0,1,4.537,33.273V15.124A10.6,10.6,0,0,1,15.124,4.537H33.273A10.6,10.6,0,0,1,43.859,15.124Z" fill="#ca0000"/><g transform="translate(12.099 12.099)"><path d="M140.1,128a12.1,12.1,0,1,0,12.1,12.1A12.1,12.1,0,0,0,140.1,128Zm0,19.661a7.562,7.562,0,1,1,7.562-7.562A7.573,7.573,0,0,1,140.1,147.661Z" transform="translate(-128 -128)" fill="#ca0000"/></g><g transform="translate(35.593 9.58)"><ellipse cx="1.612" cy="1.612" rx="1.612" ry="1.612" fill="#ca0000"/></g></svg>