<svg xmlns="http://www.w3.org/2000/svg" width="26.668" height="30.349" viewBox="0 0 26.668 30.349"><g transform="translate(409.369 -94.523)"><path d="M-397.4,380.68a8.608,8.608,0,0,0-1.323-.108,26.051,26.051,0,0,1-6.2-1.2,9.729,9.729,0,0,1-3.11-1.611,3.9,3.9,0,0,1-1.033-1.207,2.631,2.631,0,0,1,.465-3.07,7.689,7.689,0,0,1,3.045-1.935,20.593,20.593,0,0,1,2.313-.727.3.3,0,0,1,.4.161q2.125,3.334,4.261,6.661a2.891,2.891,0,0,0,2.287,1.445,2.735,2.735,0,0,0,2.621-1.189c.751-1.088,1.441-2.218,2.155-3.331.762-1.188,1.527-2.375,2.278-3.57a.336.336,0,0,1,.451-.169,15.043,15.043,0,0,1,3.83,1.459,5.405,5.405,0,0,1,1.753,1.523,2.635,2.635,0,0,1-.244,3.4,7.587,7.587,0,0,1-2.749,1.805,22,22,0,0,1-5.847,1.422c-.784.1-1.571.17-2.361.192a.465.465,0,0,0-.258.048Z" transform="translate(0 -255.808)"/><path d="M-351.277,94.523a9.66,9.66,0,0,1,8.907,6.872,9.464,9.464,0,0,1-1.1,8.177c-2.437,3.832-4.9,7.646-7.353,11.468a1.181,1.181,0,0,1-.539.528.9.9,0,0,1-1.139-.427q-1.131-1.755-2.254-3.515c-1.736-2.709-3.485-5.411-5.206-8.131a9.314,9.314,0,0,1-1.367-6.806A9.558,9.558,0,0,1-355.5,95.3,9.944,9.944,0,0,1-351.277,94.523Zm-.426,14.223a4.46,4.46,0,0,0,4.451-4.447,4.46,4.46,0,0,0-4.425-4.443,4.46,4.46,0,0,0-4.466,4.432A4.46,4.46,0,0,0-351.7,108.746Z" transform="translate(-44.335)" fill="#de0000"/></g></svg>