<svg xmlns="http://www.w3.org/2000/svg" width="57.699" height="46.88" viewBox="0 0 57.699 46.88"><g transform="translate(0 0)"><path d="M57.7,53.55a24.662,24.662,0,0,1-6.816,1.868,11.762,11.762,0,0,0,5.2-6.538,23.639,23.639,0,0,1-7.5,2.863,11.828,11.828,0,0,0-20.461,8.089,12.18,12.18,0,0,0,.274,2.7A33.481,33.481,0,0,1,4.017,50.156,11.832,11.832,0,0,0,7.652,65.966a11.681,11.681,0,0,1-5.344-1.457v.13a11.883,11.883,0,0,0,9.477,11.623,11.806,11.806,0,0,1-3.1.389,10.458,10.458,0,0,1-2.239-.2A11.941,11.941,0,0,0,17.5,84.689,23.768,23.768,0,0,1,2.831,89.734,22.158,22.158,0,0,1,0,89.572,33.3,33.3,0,0,0,18.146,94.88c21.767,0,33.667-18.031,33.667-33.66,0-.523-.018-1.028-.043-1.529A23.6,23.6,0,0,0,57.7,53.55Z" transform="translate(0 -48)" fill="#ca0000"/></g></svg>