<svg xmlns="http://www.w3.org/2000/svg" width="29.796" height="29.796" viewBox="0 0 29.796 29.796"><g transform="translate(-166 -42.276)"><path d="M180.025,42.276h1.746c.2.024.4.049.6.071a14.514,14.514,0,0,1,6.761,2.445,14.759,14.759,0,0,1,6.433,9.845c.1.55.154,1.11.23,1.665v1.746c-.024.2-.049.4-.071.6a14.515,14.515,0,0,1-2.445,6.761,14.759,14.759,0,0,1-9.845,6.433c-.55.1-1.11.154-1.665.23h-1.746c-.2-.024-.4-.049-.6-.071a14.513,14.513,0,0,1-6.761-2.445,14.759,14.759,0,0,1-6.433-9.845c-.1-.55-.154-1.11-.23-1.665V56.3c.024-.2.049-.4.071-.6a14.514,14.514,0,0,1,2.445-6.761,14.758,14.758,0,0,1,9.845-6.433C178.911,42.4,179.47,42.351,180.025,42.276Zm.868,24.15a9.252,9.252,0,1,0-9.247-9.259A9.356,9.356,0,0,0,180.893,66.426Z" fill="#cf0000"/><path d="M293.73,247.316l1.51.871c.553.319,1.1.642,1.661.954.143.08.218.157.167.339a3.147,3.147,0,0,0-.01,1.608.323.323,0,0,1-.088.282c-1.05.619-2.108,1.223-3.165,1.831a.355.355,0,0,1-.086.014A7.472,7.472,0,0,1,293.73,247.316Z" transform="translate(-119.72 -193.108)" fill="#1a1818"/><path d="M486.087,247.751a7.481,7.481,0,0,1,0,5.884,2.217,2.217,0,0,1-.211-.093c-.989-.569-1.975-1.145-2.969-1.707a.277.277,0,0,1-.161-.368,2.969,2.969,0,0,0,0-1.55c-.033-.13-.063-.243.105-.339,1.044-.591,2.08-1.195,3.12-1.794A.655.655,0,0,1,486.087,247.751Z" transform="translate(-298.292 -193.517)" fill="#1a1818"/><path d="M319.024,173.83a7.5,7.5,0,0,1,5.12-2.946v1.042c0,.863,0,1.726,0,2.589a.259.259,0,0,1-.218.305,3.547,3.547,0,0,0-1.4.8.322.322,0,0,1-.287.059C321.18,175.078,320.125,174.465,319.024,173.83Z" transform="translate(-144.119 -121.124)" fill="#1a1818"/><path d="M436.964,170.94a7.485,7.485,0,0,1,5.09,2.94l-1.026.6c-.713.412-1.428.82-2.136,1.239a.244.244,0,0,1-.351-.039,3.331,3.331,0,0,0-1.394-.808c-.133-.04-.215-.08-.214-.248.008-1.183,0-2.366.006-3.548A.807.807,0,0,1,436.964,170.94Z" transform="translate(-255.166 -121.176)" fill="#1a1818"/><path d="M324.591,347.487a7.2,7.2,0,0,1-5.07-2.927c.249-.146.5-.292.744-.436.788-.456,1.579-.906,2.363-1.37a.276.276,0,0,1,.4.038,3.287,3.287,0,0,0,1.37.791c.13.039.22.074.219.245-.008,1.183,0,2.366-.006,3.548A.639.639,0,0,1,324.591,347.487Z" transform="translate(-144.587 -282.929)" fill="#1a1818"/><path d="M436.933,347.828v-1.3c0-.766.005-1.532,0-2.3a.259.259,0,0,1,.222-.3,3.562,3.562,0,0,0,1.4-.8.32.32,0,0,1,.287-.055c1.062.6,2.117,1.213,3.172,1.822C441.476,346.164,438.552,347.859,436.933,347.828Z" transform="translate(-255.162 -283.274)" fill="#1a1818"/><path d="M390.934,269.146a1.918,1.918,0,1,1,1.937-1.885A1.936,1.936,0,0,1,390.934,269.146Z" transform="translate(-210.055 -210.054)" fill="#cf0000"/></g></svg>