<?xml version="1.0" standalone="no"?>
<!DOCTYPE svg PUBLIC "-//W3C//DTD SVG 1.1//EN" "http://www.w3.org/Graphics/SVG/1.1/DTD/svg11.dtd" >
<svg xmlns="http://www.w3.org/2000/svg" xmlns:xlink="http://www.w3.org/1999/xlink" version="1.1">
<metadata>
Created by FontForge 20170731 at Sat Feb  1 14:36:40 2014
 By Aleksey,,,
Copyright (c) 2013 by Parachute Worldwide. All rights reserved.
</metadata>
<defs>
<font id="PFDinTextUniversal-Bold" horiz-adv-x="511" >
  <font-face 
    font-family="PF Din Text Universal"
    font-weight="700"
    font-stretch="normal"
    units-per-em="1000"
    panose-1="2 0 9 6 3 0 0 2 0 4"
    ascent="778"
    descent="-222"
    x-height="495"
    cap-height="696"
    bbox="-433 -436 1760 999"
    underline-thickness="70"
    underline-position="-330"
    unicode-range="U+000D-FEFC"
  />
<missing-glyph horiz-adv-x="460" 
d="M460 0h-460v700h460v-700zM230 262l-92 -167h185zM136 605l94 -165l93 165h-187zM178 351l-83 153v-305zM365 503l-83 -154l83 -150v304z" />
    <glyph glyph-name="fj" unicode="fj" horiz-adv-x="574" 
d="M20 384v110h56v60q0 91 58.5 138t158.5 47q127 0 196 -73l-79 -95q-44 44 -113 44q-42 0 -60.5 -19.5t-18.5 -48.5v-53h285v-546q0 -70 -42.5 -109t-121.5 -39h-60v124h26q31 0 43 13t12 39v408h-142v-384h-142v384h-56z" />
    <glyph glyph-name="ffj" unicode="ffj" horiz-adv-x="858" 
d="M360 384h-144v-384h-142v384h-56v110h56v40q0 91 58.5 138t158.5 47q73 0 130 -26q58 46 156 46q127 0 196 -73l-79 -95q-44 44 -113 44q-42 0 -60.5 -19.5t-18.5 -48.5v-53h285v-546q0 -70 -42.5 -109t-121.5 -39h-60v124h26q31 0 43 13t12 39v408h-142v-384h-142v384z
M216 527v-33h144v60q0 22 1 28q-30 13 -66 13q-42 0 -60.5 -19.5t-18.5 -48.5z" />
    <glyph glyph-name="ff" unicode="ff" horiz-adv-x="622" 
d="M296 732q67 0 115 -19q41 33 105 33h96v-120h-68q-39 0 -39 -41v-90h97v-111h-97v-384h-142v384h-142v-384h-142v384h-56v111h56v42q0 94 58 144.5t159 50.5zM221 540v-45h142v102q-31 11 -63 11q-79 0 -79 -68z" />
    <glyph glyph-name="fi" unicode="fi" horiz-adv-x="574" 
d="M20 384v110h56v60q0 91 58.5 138t158.5 47q127 0 196 -73l-79 -95q-44 44 -113 44q-42 0 -60.5 -19.5t-18.5 -48.5v-53h285v-494h-143v384h-142v-384h-142v384h-56z" />
    <glyph glyph-name="fl" unicode="fl" horiz-adv-x="593" 
d="M571 124v-124h-51q-153 0 -153 147v451q-38 11 -70 11q-42 0 -60.5 -19.5t-18.5 -48.5v-47h98v-110h-98v-384h-142v384h-56v110h56v54q0 92 54.5 138.5t152.5 46.5q107 0 227 -41v-518q0 -29 10.5 -39.5t34.5 -10.5h16z" />
    <glyph glyph-name="ffi" unicode="ffi" horiz-adv-x="849" 
d="M362 384h-144v-384h-142v384h-56v110h56v40q0 91 58.5 138t158.5 47q73 0 130 -26q58 46 156 46q127 0 196 -73l-79 -95q-44 44 -113 44q-42 0 -60.5 -19.5t-18.5 -48.5v-53h285v-494h-143v384h-142v-384h-142v384zM218 527v-33h144v60q0 22 1 28q-30 13 -66 13
q-42 0 -60.5 -19.5t-18.5 -48.5z" />
    <glyph glyph-name="ffl" unicode="ffl" horiz-adv-x="849" 
d="M218 527v-33h144q0 82 1 88q-30 13 -66 13q-42 0 -60.5 -19.5t-18.5 -48.5zM579 739q99 -3 213 -41v-524q0 -29 10.5 -39.5t34.5 -10.5h16v-124h-51q-153 0 -153 147v457q-38 11 -66 11q-42 0 -60.5 -19.5t-18.5 -48.5v-53h91v-110h-91v-384h-142v384h-144v-384h-142v384
h-56v110h56v40q0 91 58.5 138t158.5 47q73 0 130 -26q58 46 156 46z" />
    <glyph glyph-name="ft" unicode="ft" horiz-adv-x="609" 
d="M574 496v-112h-73v-209q0 -29 9.5 -40t33.5 -11h31v-124h-77q-63 0 -101.5 35.5t-38.5 97.5v251h-140v-384h-142v384h-56v111h56v86q0 69 42 107t111 38h86v-120h-58q-39 0 -39 -41v-70h142v137h139v-136h75z" />
    <glyph glyph-name="uniFDF2" unicode="&#xfedf;&#xfee0;&#xfeea;" horiz-adv-x="1088" arabic-form="isolated" 
d="M191 212q0 -44 52 -44q23 0 45 6q25 7 44.5 31t19.5 57v49q-50 -5 -84.5 -17t-49.5 -27.5t-21 -28.5t-6 -26zM629 221v405h129v-405q0 -33 18.5 -55.5t54.5 -22.5q42 2 58.5 27.5t14.5 54.5v501h129v-542q0 -89 -50 -136.5t-138 -47.5q-112 0 -152 61q-51 -61 -151 -61
q-117 0 -165 76q-57 -47 -139 -47q-92 0 -137.5 43t-45.5 121q0 74 58 143q68 81 237 104v41h131v-261q0 -77 77 -77q31 0 51 21.5t20 56.5z" />
    <glyph glyph-name="uniFDFC" unicode="&#x631;&#xfef3;&#xfe8e;&#x644;" horiz-adv-x="1208" arabic-form="isolated" 
d="M356 27v599h129v-628q0 -92 -58 -148.5t-158 -56.5q-97 0 -155.5 50.5t-58.5 137.5v301h129v-265q0 -35 22.5 -58t63.5 -23q40 0 63 26.5t23 64.5zM810 211v241h129v-252q0 -200 -205 -200q-83 0 -131 47t-48 133v546h129v-515q0 -68 61 -68q30 0 47.5 19t17.5 49z
M909 -207v143q64 0 89.5 21.5t25.5 70.5v359h129v-374q0 -114 -55 -166q-54 -53 -189 -54zM718 -65v-100h-99v100h99zM843 -65v-100h-99v100h99z" />
    <glyph glyph-name="uni06440622" unicode="&#xfedf;&#xfe82;" horiz-adv-x="527" arabic-form="isolated" 
d="M343 726h129v-503q0 -64 -18.5 -110.5t-50.5 -71.5t-69.5 -36.5t-81.5 -11.5q-119 0 -202 93l93 109q48 -54 107 -54q93 0 93 95v490zM93 234v462h129v-462h-129zM318 823v-73h-85q-61 0 -84 26l-87 -46v85l94 52h18q12 -25 24 -34.5t35 -9.5h85z" />
    <glyph glyph-name="uni06440622.fina" unicode="&#xfee0;&#xfe82;" horiz-adv-x="547" arabic-form="final" 
d="M343 236v490h129v-505q0 -40 17 -59t58 -19v-143q-99 0 -131 63q-29 -35 -76 -53q-48 -17 -86 -17q-122 0 -204 93l93 109q48 -54 107 -54q93 0 93 95zM93 234v462h129v-462h-129zM318 823v-73h-85q-61 0 -84 26l-87 -46v85l94 52h18q12 -25 24 -34.5t35 -9.5h85z" />
    <glyph glyph-name="uni06440623" unicode="&#xfedf;&#xfe84;" horiz-adv-x="527" arabic-form="isolated" 
d="M320 927l-29 -60q-32 18 -68 18q-20 0 -32 -10t-12 -26q0 -14 9.5 -23.5t25.5 -9.5h105v-66h-251v66h38l3 2q-6 14 -6 31q0 38 30 71q30 34 94 34q49 0 93 -27zM343 726h129v-503q0 -64 -18.5 -110.5t-50.5 -71.5t-69.5 -36.5t-81.5 -11.5q-119 0 -202 93l93 109
q48 -54 107 -54q93 0 93 95v490zM93 234v462h129v-462h-129z" />
    <glyph glyph-name="uni06440623.fina" unicode="&#xfee0;&#xfe84;" horiz-adv-x="547" arabic-form="final" 
d="M343 236v490h129v-505q0 -40 17 -59t58 -19v-143q-99 0 -131 63q-29 -35 -76 -53q-48 -17 -86 -17q-122 0 -204 93l93 109q48 -54 107 -54q93 0 93 95zM93 234v462h129v-462h-129zM320 927l-29 -60q-32 18 -68 18q-20 0 -32 -10t-12 -26q0 -14 9.5 -23.5t25.5 -9.5h105
v-66h-251v66h38l3 2q-6 14 -6 31q0 38 30 71q30 34 94 34q49 0 93 -27z" />
    <glyph glyph-name="uni06440625" unicode="&#xfedf;&#xfe88;" horiz-adv-x="527" arabic-form="isolated" 
d="M321 -87l-29 -60q-32 18 -68 18q-20 0 -32 -10t-12 -26q0 -14 9.5 -23.5t25.5 -9.5h105v-66h-251v66h38l3 2q-6 14 -6 31q0 37 30 72q30 33 94 33q50 0 93 -27zM343 726h129v-503q0 -64 -18.5 -110.5t-50.5 -71.5t-69.5 -36.5t-81.5 -11.5q-119 0 -202 93l93 109
q48 -54 107 -54q93 0 93 95v490zM93 234v462h129v-462h-129z" />
    <glyph glyph-name="uni06440625.fina" unicode="&#xfee0;&#xfe88;" horiz-adv-x="547" arabic-form="final" 
d="M343 236v490h129v-505q0 -40 17 -59t58 -19v-143q-99 0 -131 63q-29 -35 -76 -53q-48 -17 -86 -17q-122 0 -204 93l93 109q48 -54 107 -54q93 0 93 95zM93 234v462h129v-462h-129zM321 -87l-29 -60q-32 18 -68 18q-20 0 -32 -10t-12 -26q0 -14 9.5 -23.5t25.5 -9.5h105
v-66h-251v66h38l3 2q-6 14 -6 31q0 37 30 72q30 33 94 33q50 0 93 -27z" />
    <glyph glyph-name="uni06440627" unicode="&#xfedf;&#xfe8e;" horiz-adv-x="527" arabic-form="isolated" 
d="M343 726h129v-503q0 -64 -18.5 -110.5t-50.5 -71.5t-69.5 -36.5t-81.5 -11.5q-119 0 -202 93l93 109q48 -54 107 -54q93 0 93 95v490zM93 234v462h129v-462h-129z" />
    <glyph glyph-name="uni06440627.fina" unicode="&#xfee0;&#xfe8e;" horiz-adv-x="547" arabic-form="final" 
d="M343 236v490h129v-505q0 -40 17 -59t58 -19v-143q-99 0 -131 63q-29 -35 -76 -53q-48 -17 -86 -17q-122 0 -204 93l93 109q48 -54 107 -54q93 0 93 95zM93 234v462h129v-462h-129z" />
    <glyph glyph-name="uni06440671" unicode="&#xfedf;&#xfb51;" horiz-adv-x="527" 
d="M343 726h129v-503q0 -64 -18.5 -110.5t-50.5 -71.5t-69.5 -36.5t-81.5 -11.5q-119 0 -202 93l93 109q48 -54 107 -54q93 0 93 95v490zM93 234v462h129v-462h-129zM333 853v-103h-226q-41 0 -59 29l-38 -37h-4v79l46 46h8q5 -23 17 -38t26 -15h12v111h68v-26h2
q25 25 69 25q34 0 56.5 -18.5t22.5 -52.5zM182 813h86v12q0 40 -32 40q-23 0 -38.5 -15.5t-15.5 -35.5v-1z" />
    <glyph glyph-name="uni06440671.fina" unicode="&#xfee0;&#xfb51;" horiz-adv-x="547" 
d="M343 236v490h129v-505q0 -40 17 -59t58 -19v-143q-99 0 -131 63q-29 -35 -76 -53q-48 -17 -86 -17q-122 0 -204 93l93 109q48 -54 107 -54q93 0 93 95zM93 234v462h129v-462h-129zM333 853v-103h-226q-41 0 -59 29l-38 -37h-4v79l46 46h8q5 -23 17 -38t26 -15h12v111h68
v-26h2q25 25 69 25q34 0 56.5 -18.5t22.5 -52.5zM182 813h86v12q0 40 -32 40q-23 0 -38.5 -15.5t-15.5 -35.5v-1z" />
    <glyph glyph-name="uni0621" unicode="&#x621;" horiz-adv-x="557" arabic-form="isolated" 
d="M263 176q0 -24 18 -37t48 -13h154v-126h-428v126h86q-10 27 -10 55q0 70 49 122t152 52q40 0 87 -16.5t83 -44.5l-59 -108q-59 45 -111 45q-32 0 -50.5 -15.5t-18.5 -39.5z" />
    <glyph glyph-name="uni0622" unicode="&#x622;" horiz-adv-x="239" arabic-form="isolated" 
d="M55 0v676h129v-676h-129zM247 823v-73h-85q-61 0 -84 26l-87 -46v85l94 52h18q12 -25 24 -34.5t35 -9.5h85z" />
    <glyph glyph-name="uni0623" unicode="&#x623;" horiz-adv-x="239" arabic-form="isolated" 
d="M245 927l-29 -60q-31 18 -68 18q-20 0 -32 -10t-12 -26q0 -14 9.5 -23.5t25.5 -9.5h105v-66h-251v66h38l3 2q-6 14 -6 31q0 38 30 71q30 34 94 34q50 0 93 -27zM55 0v676h129v-676h-129z" />
    <glyph glyph-name="uni0624" unicode="&#x624;" horiz-adv-x="551" arabic-form="isolated" 
d="M95 -239v143h131q72 0 101.5 26t29.5 80v11l-7 6q-36 -16 -78 -16q-102 0 -159.5 60t-57.5 165q0 114 61 179.5t169 65.5q100 0 155.5 -62.5t55.5 -179.5v-214q0 -264 -257 -264h-144zM280 338q-43 0 -69 -28t-26 -73q0 -40 24 -66t63 -26q42 0 68.5 25t26.5 68
q0 45 -24 72.5t-63 27.5zM401 737l-29 -60q-32 18 -68 18q-20 0 -32 -10t-12 -26q0 -14 9.5 -23.5t25.5 -9.5h105v-66h-251v66h38l3 2q-6 14 -6 31q0 38 30 71q30 34 94 34q50 0 93 -27z" />
    <glyph glyph-name="uni0625" unicode="&#x625;" horiz-adv-x="239" arabic-form="isolated" 
d="M55 0v726h129v-726h-129zM245 -102l-29 -60q-32 18 -68 18q-20 0 -32 -10t-12 -26q0 -14 9.5 -23.5t25.5 -9.5h105v-66h-251v66h38l3 2q-6 13 -6 31q0 38 30 72q30 33 94 33q50 0 93 -27z" />
    <glyph glyph-name="uni0626" unicode="&#x626;" horiz-adv-x="885" arabic-form="isolated" 
d="M307 614l-29 -60q-31 18 -68 18q-20 0 -32 -10t-12 -26q0 -14 9.5 -23.5t25.5 -9.5h105v-66h-251v66h38l3 2q-6 14 -6 31q0 38 30 71q30 34 94 34q50 0 93 -27zM55 358h129v-77q0 -71 28.5 -104.5t97.5 -33.5h166v154q0 89 48 136.5t132 47.5h174v-399h-129v255h-52
q-44 0 -44 -57v-280h-289q-261 0 -261 252v106z" />
    <glyph glyph-name="uni0627" unicode="&#x627;" horiz-adv-x="239" arabic-form="isolated" 
d="M55 0v726h129v-726h-129z" />
    <glyph glyph-name="uni0628" unicode="&#x628;" horiz-adv-x="778" arabic-form="isolated" 
d="M594 203v190h129v-209q0 -90 -46.5 -137t-132.5 -47h-228q-261 0 -261 252v106h129v-77q0 -71 28.5 -104.5t97.5 -33.5h234q50 0 50 60zM464 -171h-109v96h109v-96z" />
    <glyph glyph-name="uni0629" unicode="&#x629;" horiz-adv-x="558" arabic-form="isolated" 
d="M287 480q86 0 151 -77t65 -183q0 -109 -56 -167t-167 -58q-225 0 -225 218q0 106 68 186q67 81 164 81zM284 339q-38 0 -64 -35t-26 -76q0 -91 90 -91q42 0 63 25.5t21 66.5q0 47 -27 78q-26 32 -57 32zM268 560h-101v96h101v-96zM391 560h-101v96h101v-96z" />
    <glyph glyph-name="uni062A" unicode="&#x62a;" horiz-adv-x="778" arabic-form="isolated" 
d="M594 203v190h129v-209q0 -90 -46.5 -137t-132.5 -47h-228q-261 0 -261 252v106h129v-77q0 -71 28.5 -104.5t97.5 -33.5h234q50 0 50 60zM399 456h-101v96h101v-96zM522 456h-101v96h101v-96z" />
    <glyph glyph-name="uni062B" unicode="&#x62b;" horiz-adv-x="778" arabic-form="isolated" 
d="M594 203v190h129v-209q0 -90 -46.5 -137t-132.5 -47h-228q-261 0 -261 252v106h129v-77q0 -71 28.5 -104.5t97.5 -33.5h234q50 0 50 60zM522 456h-101v96h101v-96zM460 574h-99v96h99v-96zM399 456h-101v96h101v-96z" />
    <glyph glyph-name="uni062C" unicode="&#x62c;" horiz-adv-x="583" arabic-form="isolated" 
d="M298 143h104l3 6q-23 14 -30 116q-5 77 -85 77q-60 0 -127 -36l-55 112q92 63 195 63q92 0 144.5 -49t59.5 -148q5 -75 15 -105q10 -29 36 -37v-142h-284q-44 0 -66 -21.5t-22 -52.5q0 -72 101 -72q23 0 50 4l14 -127q-40 -8 -89 -8q-89 0 -148 49q-59 50 -59 145
q0 107 68 166q67 60 175 60zM484 -160h-109v96h109v-96z" />
    <glyph glyph-name="uni062D" unicode="&#x62d;" horiz-adv-x="583" arabic-form="isolated" 
d="M298 143h104l3 6q-23 14 -30 116q-5 77 -85 77q-60 0 -127 -36l-55 112q92 63 195 63q92 0 144.5 -49t59.5 -148q5 -75 15 -105q10 -29 36 -37v-142h-284q-44 0 -66 -21.5t-22 -52.5q0 -72 101 -72q23 0 50 4l14 -127q-40 -8 -89 -8q-89 0 -148 49q-59 50 -59 145
q0 107 68 166q67 60 175 60z" />
    <glyph glyph-name="uni062E" unicode="&#x62e;" horiz-adv-x="583" arabic-form="isolated" 
d="M298 143h104l3 6q-23 14 -30 116q-5 77 -85 77q-60 0 -127 -36l-55 112q92 63 195 63q92 0 144.5 -49t59.5 -148q5 -75 15 -105q10 -29 36 -37v-142h-284q-44 0 -66 -21.5t-22 -52.5q0 -72 101 -72q23 0 50 4l14 -127q-40 -8 -89 -8q-89 0 -148 49q-59 50 -59 145
q0 107 68 166q67 60 175 60zM345 560h-109v96h109v-96z" />
    <glyph glyph-name="uni062F" unicode="&#x62f;" horiz-adv-x="522" arabic-form="isolated" 
d="M467 299v-299h-412v143h281v125q0 76 -87 76q-77 0 -120 -39l-69 109q76 66 201 66q96 0 151 -45.5t55 -135.5z" />
    <glyph glyph-name="uni0630" unicode="&#x630;" horiz-adv-x="522" arabic-form="isolated" 
d="M467 299v-299h-412v143h281v125q0 76 -87 76q-77 0 -120 -39l-69 109q76 66 201 66q96 0 151 -45.5t55 -135.5zM300 560h-109v96h109v-96z" />
    <glyph glyph-name="uni0631" unicode="&#x631;" horiz-adv-x="246" arabic-form="isolated" 
d="M-53 -207v140q115 1 115 91v369h129v-380q0 -115 -57.5 -167t-186.5 -53z" />
    <glyph glyph-name="uni0632" unicode="&#x632;" horiz-adv-x="246" arabic-form="isolated" 
d="M-53 -207v140q115 1 115 91v369h129v-380q0 -115 -57.5 -167t-186.5 -53zM177 476h-109v96h109v-96z" />
    <glyph glyph-name="uni0633" unicode="&#x633;" horiz-adv-x="1018" arabic-form="isolated" 
d="M346 11v382h129v-250h32q60 0 60 77v173h129v-176q0 -41 19 -65t48 -24q65 0 65 82q0 52 -27 120q-25 68 -60 105l107 76q45 -53 79 -134q36 -83 36 -172q0 -90 -48 -155q-46 -64 -142 -64q-95 0 -145 63h-5q-42 -49 -116 -49h-32v-8q0 -93 -63 -146q-64 -53 -148 -53
q-94 0 -151.5 50.5t-57.5 137.5v307h129v-277q0 -32 22.5 -55t58.5 -23q35 0 58 23t23 55z" />
    <glyph glyph-name="uni0634" unicode="&#x634;" horiz-adv-x="1018" arabic-form="isolated" 
d="M346 11v382h129v-250h32q60 0 60 77v173h129v-176q0 -41 19 -65t48 -24q65 0 65 82q0 52 -27 120q-25 68 -60 105l107 76q45 -53 79 -134q36 -83 36 -172q0 -90 -48 -155q-46 -64 -142 -64q-95 0 -145 63h-5q-42 -49 -116 -49h-32v-8q0 -93 -63 -146q-64 -53 -148 -53
q-94 0 -151.5 50.5t-57.5 137.5v307h129v-277q0 -32 22.5 -55t58.5 -23q35 0 58 23t23 55zM735 560h-101v96h101v-96zM673 678h-99v96h99v-96zM612 560h-101v96h101v-96z" />
    <glyph glyph-name="uni0635" unicode="&#x635;" horiz-adv-x="975" arabic-form="isolated" 
d="M270 -67q43 0 66 25t23 63v451h128v-74h8q98 83 217 83q91 0 149 -49q59 -48 59 -134v-298h-432v-7q0 -89 -61 -144q-62 -56 -158 -56q-101 0 -157.5 54t-56.5 146v295h129v-267q0 -88 86 -88zM487 159v-16h302v90q0 47 -27 75t-79 28q-86 0 -141 -55q-55 -54 -55 -122z
" />
    <glyph glyph-name="uni0636" unicode="&#x636;" horiz-adv-x="975" arabic-form="isolated" 
d="M270 -67q43 0 66 25t23 63v451h128v-74h8q98 83 217 83q91 0 149 -49q59 -48 59 -134v-298h-432v-7q0 -89 -61 -144q-62 -56 -158 -56q-101 0 -157.5 54t-56.5 146v295h129v-267q0 -88 86 -88zM487 159v-16h302v90q0 47 -27 75t-79 28q-86 0 -141 -55q-55 -54 -55 -122z
M727 560h-109v96h109v-96z" />
    <glyph glyph-name="uni0637" unicode="&#x637;" horiz-adv-x="806" arabic-form="isolated" 
d="M751 0h-701v143h140v583h128v-328h8q98 83 217 83q91 0 149 -49q59 -48 59 -134v-298zM318 159v-16h302v90q0 47 -27 75t-79 28q-86 0 -141 -55q-55 -54 -55 -122z" />
    <glyph glyph-name="uni0638" unicode="&#x638;" horiz-adv-x="806" arabic-form="isolated" 
d="M751 0h-701v143h140v583h128v-328h8q98 83 217 83q91 0 149 -49q59 -48 59 -134v-298zM318 159v-16h302v90q0 47 -27 75t-79 28q-86 0 -141 -55q-55 -54 -55 -122zM574 560h-109v96h109v-96z" />
    <glyph glyph-name="uni0639" unicode="&#x639;" horiz-adv-x="577" arabic-form="isolated" 
d="M522 423l-69 -119q-47 33 -113 33q-53 0 -84 -24.5t-31 -70.5t30.5 -72.5t88.5 -26.5h165v-143h-250q-35 0 -54 -20.5t-19 -49.5q0 -74 103 -74q55 0 118 17l30 -128q-74 -23 -161 -23q-104 0 -162.5 48t-58.5 142q0 63 28 111t76 76l-1 6q-70 46 -70 141q0 106 67 170
q68 65 184 65q104 0 183 -58z" />
    <glyph glyph-name="uni063A" unicode="&#x63a;" horiz-adv-x="577" arabic-form="isolated" 
d="M522 423l-69 -119q-47 33 -113 33q-53 0 -84 -24.5t-31 -70.5t30.5 -72.5t88.5 -26.5h165v-143h-250q-35 0 -54 -20.5t-19 -49.5q0 -74 103 -74q55 0 118 17l30 -128q-74 -23 -161 -23q-104 0 -162.5 48t-58.5 142q0 63 28 111t76 76l-1 6q-70 46 -70 141q0 106 67 170
q68 65 184 65q104 0 183 -58zM342 560h-109v96h109v-96z" />
    <glyph glyph-name="uni0641" unicode="&#x641;" horiz-adv-x="871" arabic-form="isolated" 
d="M564 0h-248q-261 0 -261 252v106h129v-77q0 -74 27 -106t99 -32h32q55 0 74 -4l2 6q-40 33 -40 124q0 90 59 151q58 61 158 61q107 0 164 -62t57 -176q0 -113 -71 -178t-181 -65zM510 248q0 -38 31.5 -70t78.5 -38q64 36 64 111q0 40 -22.5 65t-62.5 25q-42 0 -65.5 -27
t-23.5 -66zM647 560h-109v96h109v-96z" />
    <glyph glyph-name="uni0642" unicode="&#x642;" horiz-adv-x="751" arabic-form="isolated" 
d="M385 -239q-195 0 -268 92q-62 79 -62 202v233h129v-203q0 -86 43 -133q43 -48 160 -48q170 0 170 117l-7 6q-36 -16 -78 -16q-102 0 -159.5 60t-57.5 165q0 114 61 179.5t169 65.5q100 0 155.5 -62.5t55.5 -179.5v-184q0 -141 -80.5 -217.5t-230.5 -76.5zM480 338
q-43 0 -69 -28t-26 -73q0 -40 24 -66t63 -26q42 0 68.5 25t26.5 68q0 45 -24 72.5t-63 27.5zM466 560h-101v96h101v-96zM589 560h-101v96h101v-96z" />
    <glyph glyph-name="uni0643" unicode="&#x643;" horiz-adv-x="798" arabic-form="isolated" 
d="M615 203v523h128v-542q0 -90 -46.5 -137t-132.5 -47h-232q-138 0 -207.5 66t-69.5 186v106h129v-77q0 -71 32.5 -104.5t109.5 -33.5h239q50 0 50 60zM521 487l-29 -60q-32 18 -68 18q-20 0 -32 -10t-12 -26q0 -14 9.5 -23.5t25.5 -9.5h105v-66h-251v66h38l3 2
q-6 14 -6 31q0 38 30 71q30 34 94 34q50 0 93 -27z" />
    <glyph glyph-name="uni0644" unicode="&#x644;" horiz-adv-x="544" arabic-form="isolated" 
d="M360 726h129v-719q0 -95 -60 -154q-58 -60 -160 -60q-101 0 -157.5 54.5t-56.5 147.5v293h129v-262q0 -39 21.5 -66t64.5 -27q90 0 90 93v700z" />
    <glyph glyph-name="uni0645" unicode="&#x645;" horiz-adv-x="762" arabic-form="isolated" 
d="M406 235v-99h92q39 0 59.5 26t20.5 73q0 49 -22.5 76t-66.5 27q-83 0 -83 -103zM498 0h-228q-44 0 -65 -21t-21 -54v-197h-129v196q0 114 52.5 166.5t169.5 52.5v91q0 122 54.5 184.5t156.5 62.5q108 0 163.5 -65t55.5 -185q0 -112 -54.5 -171.5t-154.5 -59.5z" />
    <glyph glyph-name="uni0646" unicode="&#x646;" horiz-adv-x="544" arabic-form="isolated" 
d="M360 393h129v-386q0 -95 -60 -154q-58 -60 -160 -60q-101 0 -157.5 54.5t-56.5 147.5v293h129v-262q0 -39 21.5 -66t64.5 -27q90 0 90 93v367zM332 456h-109v96h109v-96z" />
    <glyph glyph-name="uni0648" unicode="&#x648;" horiz-adv-x="551" arabic-form="isolated" 
d="M95 -239v143h131q72 0 101.5 26t29.5 80v11l-7 6q-36 -16 -78 -16q-102 0 -159.5 60t-57.5 165q0 114 61 179.5t169 65.5q100 0 155.5 -62.5t55.5 -179.5v-214q0 -264 -257 -264h-144zM280 338q-43 0 -69 -28t-26 -73q0 -40 24 -66t63 -26q42 0 68.5 25t26.5 68
q0 45 -24 72.5t-63 27.5z" />
    <glyph glyph-name="uni0649" unicode="&#x649;" horiz-adv-x="885" arabic-form="isolated" 
d="M55 358h129v-77q0 -71 28.5 -104.5t97.5 -33.5h166v154q0 89 48 136.5t132 47.5h174v-399h-129v255h-52q-44 0 -44 -57v-280h-289q-261 0 -261 252v106z" />
    <glyph glyph-name="uni064A" unicode="&#x64a;" horiz-adv-x="885" arabic-form="isolated" 
d="M55 358h129v-77q0 -71 28.5 -104.5t97.5 -33.5h166v154q0 89 48 136.5t132 47.5h174v-399h-129v255h-52q-44 0 -44 -57v-280h-289q-261 0 -261 252v106zM402 -171h-101v96h101v-96zM525 -171h-101v96h101v-96z" />
    <glyph glyph-name="uni066E.init" unicode="&#x66e;" horiz-adv-x="241" 
d="M57 218v240h129v-225q0 -94 -33 -157q-38 -76 -153 -76q-30 0 -49.5 20.5t-19.5 50.5t19.5 50t49.5 22q57 3 57 75z" />
    <glyph glyph-name="uni066E.medi" unicode="&#x66e;" horiz-adv-x="266" 
d="M62 211v182h129v-172q0 -44 15 -61t60 -17v-143q-99 0 -131 59q-45 -59 -135 -59q-30 0 -49.5 19.5t-19.5 51.5q0 31 20 51.5t49 20.5q62 0 62 68z" />
    <glyph glyph-name="uni066E.fina" unicode="&#x66e;" horiz-adv-x="800" 
d="M596 205v188h129v-172q0 -43 15.5 -60.5t59.5 -17.5v-143q-102 0 -131 59q-25 -35 -53.5 -47t-71.5 -12h-228q-261 0 -261 252v106h129v-77q0 -71 28.5 -104.5t97.5 -33.5h232q54 0 54 62z" />
    <glyph glyph-name="uni066F.init" unicode="&#x66f;" horiz-adv-x="548" 
d="M0 143h31q39 0 58 -4l2 6q-36 43 -36 112q0 101 58 162q59 62 159 62q107 0 164 -62t57 -176q0 -113 -71 -178t-181 -65h-241q-30 0 -49.5 19.5t-19.5 51.5q0 31 20 51.5t49 20.5zM187 248q0 -38 31.5 -70t78.5 -38q64 36 64 111q0 40 -22.5 65t-62.5 25q-42 0 -65.5 -27
t-23.5 -66z" />
    <glyph glyph-name="uni066F.medi" unicode="&#x66f;" horiz-adv-x="548" 
d="M461 150l1 -7h86v-143h-548q-30 0 -49.5 19.5t-19.5 51.5q0 31 20 51.5t49 20.5h16q56 0 75 -4l2 6q-38 41 -38 124q0 90 59 151q58 61 158 61q106 0 163.5 -59t57.5 -162q0 -25 -9 -58t-23 -52zM187 248q0 -38 30.5 -69t79.5 -37q64 34 64 109q0 40 -22.5 65t-62.5 25
q-42 0 -65.5 -27t-23.5 -66z" />
    <glyph glyph-name="uni066F.fina" unicode="&#x66f;" horiz-adv-x="746" 
d="M746 143v-143h-53q-14 -116 -93 -177.5t-215 -61.5q-330 0 -330 294v233h129v-203q0 -181 203 -181q39 0 68 7q34 7 62 32.5t34 62.5h-76q-102 0 -161 59t-59 168q0 117 60.5 182.5t170.5 65.5q102 0 156 -62.5t54 -184.5v-91h50zM483 338q-45 0 -72 -28.5t-27 -76.5
q0 -42 22.5 -66.5t63.5 -24.5h97v93q0 50 -22 76.5t-62 26.5z" />
    <glyph glyph-name="uni0671" unicode="&#x671;" horiz-adv-x="239" arabic-form="isolated" 
d="M55 0v676h129v-676h-129zM283 853v-103h-226q-41 0 -59 29l-38 -37h-4v79l46 46h8q5 -23 17 -38t26 -15h12v111h68v-26h2q25 25 69 25q34 0 56.5 -18.5t22.5 -52.5zM132 813h86v12q0 40 -32 40q-23 0 -38.5 -15.5t-15.5 -35.5v-1z" />
    <glyph glyph-name="uni0672.fina" unicode="&#x672;" horiz-adv-x="249" 
d="M249 143v-143h-41q-153 0 -153 147v529h129v-483q0 -29 10.5 -39.5t34.5 -10.5h20zM279 814v-64h-212q-40 0 -60 29l-37 -37h-4v79l46 46h8q7 -53 43 -53h15l3 2q-6 10 -6 29q0 38 28 69q29 32 89 32q45 0 91 -28l-29 -57q-30 18 -68 18q-20 0 -30.5 -9.5t-10.5 -24.5
q0 -31 32 -31h102z" />
    <glyph glyph-name="uni0673.fina" unicode="&#x673;" horiz-adv-x="249" 
d="M249 143v-143h-41q-153 0 -153 147v579h129v-533q0 -29 10.5 -39.5t34.5 -10.5h20zM279 -207v-64h-212q-40 0 -60 29l-37 -37h-4v79l46 46h8q7 -53 43 -53h15l3 2q-6 11 -6 29q0 38 28 69q29 32 89 32q45 0 91 -28l-29 -57q-30 18 -68 18q-20 0 -30.5 -9.5t-10.5 -24.5
q0 -31 32 -31h102z" />
    <glyph glyph-name="uni0675.fina" unicode="&#x675;" horiz-adv-x="249" 
d="M290 917l-29 -60q-32 18 -68 18q-20 0 -32 -10t-12 -26q0 -14 9.5 -23.5t25.5 -9.5h105v-66h-251v66h38l3 2q-6 14 -6 31q0 38 30 71q30 34 94 34q49 0 93 -27zM249 143v-143h-41q-153 0 -153 147v529h129v-483q0 -29 10.5 -39.5t34.5 -10.5h20z" />
    <glyph glyph-name="uni0676.fina" unicode="&#x676;" horiz-adv-x="551" 
d="M96 -239v143h150q58 0 84.5 25t29.5 63l1 14h-86q-102 0 -161 59t-59 168q0 117 60.5 182.5t170.5 65.5q102 0 156 -62.5t54 -184.5v-91h55v-143h-55q-3 -114 -65 -176.5t-180 -62.5h-155zM283 338q-45 0 -72 -28.5t-27 -76.5q0 -40 23.5 -65.5t62.5 -25.5h97v93
q0 50 -22 76.5t-62 26.5zM493 737l-29 -60q-32 18 -68 18q-20 0 -32 -10t-12 -26q0 -14 9.5 -23.5t25.5 -9.5h105v-66h-251v66h38l3 2q-6 14 -6 31q0 38 30 71q30 34 94 34q50 0 93 -27z" />
    <glyph glyph-name="uni0677" unicode="&#x677;" horiz-adv-x="551" arabic-form="isolated" 
d="M95 -239v143h131q72 0 101.5 26t29.5 80v11l-7 6q-36 -16 -78 -16q-102 0 -159.5 60t-57.5 165q0 114 61 179.5t169 65.5q100 0 155.5 -62.5t55.5 -179.5v-214q0 -264 -257 -264h-144zM280 338q-43 0 -69 -28t-26 -73q0 -40 24 -66t63 -26q42 0 68.5 25t26.5 68
q0 45 -24 72.5t-63 27.5zM27 624l88 26v4q-13 16 -13 42q0 29 20 50t52 21q34 0 56.5 -22.5t22.5 -54.5q0 -29 -19 -53t-54 -33l-153 -41v61zM523 737l-29 -60q-32 18 -68 18q-20 0 -32 -10t-12 -26q0 -14 9.5 -23.5t25.5 -9.5h105v-66h-251v66h38l3 2q-6 14 -6 31
q0 38 30 71q30 34 94 34q50 0 93 -27z" />
    <glyph glyph-name="uni0678.init" unicode="&#x678;" horiz-adv-x="241" 
d="M57 218v240h129v-225q0 -94 -33 -157q-38 -76 -153 -76q-30 0 -49.5 20.5t-19.5 50.5t19.5 50t49.5 22q57 3 57 75zM273 712l-29 -60q-31 18 -68 18q-20 0 -32 -10t-12 -26q0 -14 9.5 -23.5t25.5 -9.5h105v-66h-251v66h38l3 2q-6 13 -6 31q0 38 30 71q30 34 94 34
q50 0 93 -27z" />
    <glyph glyph-name="uni0678.medi" unicode="&#x678;" horiz-adv-x="266" 
d="M273 633l-29 -60q-31 18 -68 18q-20 0 -32 -10t-12 -26q0 -14 9.5 -23.5t25.5 -9.5h105v-66h-251v66h38l3 2q-6 14 -6 31q0 38 30 71q30 34 94 34q50 0 93 -27zM62 211v182h129v-172q0 -44 15 -61t60 -17v-143q-99 0 -131 59q-45 -59 -135 -59q-30 0 -49.5 19.5
t-19.5 51.5q0 31 20 51.5t49 20.5q62 0 62 68z" />
    <glyph glyph-name="uni0678.fina" unicode="&#x678;" horiz-adv-x="885" 
d="M811 737l-29 -60q-31 18 -68 18q-20 0 -32 -10t-12 -26q0 -14 9.5 -23.5t25.5 -9.5h105v-66h-251v66h38l3 2q-6 14 -6 31q0 38 30 71q30 34 94 34q50 0 93 -27zM55 358h129v-77q0 -71 28.5 -104.5t97.5 -33.5h166v154q0 89 48 136.5t132 47.5h174v-338h55v-143h-184v337
h-52q-44 0 -44 -57v-280h-289q-261 0 -261 252v106z" />
    <glyph glyph-name="uni0679" unicode="&#x679;" horiz-adv-x="778" arabic-form="isolated" 
d="M594 203v190h129v-209q0 -90 -46.5 -137t-132.5 -47h-228q-261 0 -261 252v106h129v-77q0 -71 28.5 -104.5t97.5 -33.5h234q50 0 50 60zM374 520h94v15q0 40 -34 40q-24 0 -42 -16.5t-18 -37.5v-1zM535 563v-107h-269v66h39v137h70v-48h2q30 27 77 27q35 0 58 -20t23 -55
z" />
    <glyph glyph-name="uni067A" unicode="&#x67a;" horiz-adv-x="778" arabic-form="isolated" 
d="M594 203v190h129v-209q0 -90 -46.5 -137t-132.5 -47h-228q-261 0 -261 252v106h129v-77q0 -71 28.5 -104.5t97.5 -33.5h234q50 0 50 60zM460 456h-99v96h99v-96zM460 574h-99v96h99v-96z" />
    <glyph glyph-name="uni067B" unicode="&#x67b;" horiz-adv-x="778" arabic-form="isolated" 
d="M594 203v190h129v-209q0 -90 -46.5 -137t-132.5 -47h-228q-261 0 -261 252v106h129v-77q0 -71 28.5 -104.5t97.5 -33.5h234q50 0 50 60zM461 -274h-99v96h99v-96zM461 -156h-99v96h99v-96z" />
    <glyph glyph-name="uni067C.init" unicode="&#x67c;" horiz-adv-x="241" 
d="M15 -19q0 11 2 19h-17q-30 0 -49.5 20.5t-19.5 50.5t19.5 50t49.5 22q57 3 57 75v240h129v-225q0 -115 -41 -171q50 -26 50 -81q0 -38 -25 -64t-65 -26q-38 0 -64 26.5t-26 63.5zM232 535h-101v96h101v-96zM109 535h-101v96h101v-96zM72 -19q0 -15 9 -25t24 -10t24.5 10
t9.5 25q2 21 -16 29.5t-35.5 0t-15.5 -29.5z" />
    <glyph glyph-name="uni067C.medi" unicode="&#x67c;" horiz-adv-x="266" 
d="M43 3q-13 -3 -43 -3t-49.5 19.5t-19.5 51.5q0 31 20 51.5t49 20.5q62 0 62 68v182h129v-172q0 -44 15 -61t60 -17v-143q-24 0 -43 3q0 -38 -25 -64t-65 -26q-38 0 -64 26.5t-26 63.5zM245 476h-101v96h101v-96zM122 476h-101v96h101v-96zM100 3q0 -15 9 -25t24 -10
t24.5 10t9.5 25q2 21 -16 29.5t-35.5 0t-15.5 -29.5z" />
    <glyph glyph-name="uni067C.fina" unicode="&#x67c;" horiz-adv-x="800" 
d="M318 -19q0 11 2 19h-4q-261 0 -261 252v106h129v-77q0 -71 28.5 -104.5t97.5 -33.5h232q54 0 54 62v188h129v-172q0 -43 15.5 -60.5t59.5 -17.5v-143q-102 0 -131 59q-25 -35 -53.5 -47t-71.5 -12h-48q2 -16 2 -19q0 -38 -25 -64t-65 -26q-38 0 -64 26.5t-26 63.5z
M399 456h-101v96h101v-96zM522 456h-101v96h101v-96zM375 -19q0 -15 9 -25t24 -10t24.5 10t9.5 25q0 11 -6 19h-56q-5 -8 -5 -19z" />
    <glyph glyph-name="uni067D.init" unicode="&#x67d;" horiz-adv-x="241" 
d="M232 670h-101v96h101v-96zM170 552h-99v96h99v-96zM109 670h-101v96h101v-96zM57 218v240h129v-225q0 -94 -33 -157q-38 -76 -153 -76q-30 0 -49.5 20.5t-19.5 50.5t19.5 50t49.5 22q57 3 57 75z" />
    <glyph glyph-name="uni067D.medi" unicode="&#x67d;" horiz-adv-x="266" 
d="M62 211v182h129v-172q0 -44 15 -61t60 -17v-143q-99 0 -131 59q-45 -59 -135 -59q-30 0 -49.5 19.5t-19.5 51.5q0 31 20 51.5t49 20.5q62 0 62 68zM245 611h-101v96h101v-96zM183 493h-99v96h99v-96zM122 611h-101v96h101v-96z" />
    <glyph glyph-name="uni067D.fina" unicode="&#x67d;" horiz-adv-x="800" 
d="M596 205v188h129v-172q0 -43 15.5 -60.5t59.5 -17.5v-143q-102 0 -131 59q-25 -35 -53.5 -47t-71.5 -12h-228q-261 0 -261 252v106h129v-77q0 -71 28.5 -104.5t97.5 -33.5h232q54 0 54 62zM522 591h-101v96h101v-96zM460 473h-99v96h99v-96zM399 591h-101v96h101v-96z
" />
    <glyph glyph-name="uni067E" unicode="&#x67e;" horiz-adv-x="778" arabic-form="isolated" 
d="M594 203v190h129v-209q0 -90 -46.5 -137t-132.5 -47h-228q-261 0 -261 252v106h129v-77q0 -71 28.5 -104.5t97.5 -33.5h234q50 0 50 60zM522 -156h-101v96h101v-96zM460 -274h-99v96h99v-96zM399 -156h-101v96h101v-96z" />
    <glyph glyph-name="uni067F" unicode="&#x67f;" horiz-adv-x="778" arabic-form="isolated" 
d="M522 456h-101v96h101v-96zM399 456h-101v96h101v-96zM522 574h-101v96h101v-96zM399 574h-101v96h101v-96zM594 203v190h129v-209q0 -90 -46.5 -137t-132.5 -47h-228q-261 0 -261 252v106h129v-77q0 -71 28.5 -104.5t97.5 -33.5h234q50 0 50 60z" />
    <glyph glyph-name="uni0680" unicode="&#x680;" horiz-adv-x="778" arabic-form="isolated" 
d="M522 -274h-101v96h101v-96zM399 -274h-101v96h101v-96zM522 -156h-101v96h101v-96zM399 -156h-101v96h101v-96zM594 203v190h129v-209q0 -90 -46.5 -137t-132.5 -47h-228q-261 0 -261 252v106h129v-77q0 -71 28.5 -104.5t97.5 -33.5h234q50 0 50 60z" />
    <glyph glyph-name="uni0681.init" unicode="&#x681;" horiz-adv-x="532" 
d="M358 737l-29 -60q-31 18 -68 18q-20 0 -32 -10t-12 -26q0 -14 9.5 -23.5t25.5 -9.5h105v-66h-251v66h38l3 2q-6 14 -6 31q0 38 30 71q30 34 94 34q49 0 93 -27zM507 142v-142h-507q-30 0 -49.5 19.5t-19.5 51.5q0 31 20 51.5t49 20.5h351l3 6q-23 14 -30 116
q-6 77 -85 77q-59 0 -127 -36l-57 111q92 64 197 64q92 0 144.5 -49t59.5 -148q4 -75 15 -105q10 -29 36 -37z" />
    <glyph glyph-name="uni0681.medi" unicode="&#x681;" horiz-adv-x="529" 
d="M358 737l-29 -60q-31 18 -68 18q-20 0 -32 -10t-12 -26q0 -14 9.5 -23.5t25.5 -9.5h105v-66h-251v66h38l3 2q-6 14 -6 31q0 38 30 71q30 34 94 34q49 0 93 -27zM250 481q187 0 204 -197q6 -76 19 -108.5t42 -32.5h14v-143h-529q-30 0 -49.5 19.5t-19.5 51.5q0 31 20 51.5
t49 20.5h349l3 6q-23 14 -30 116q-6 77 -85 77q-60 0 -127 -36l-55 112q91 63 195 63z" />
    <glyph glyph-name="uni0681.fina" unicode="&#x681;" horiz-adv-x="586" 
d="M298 143h108l3 6q-23 14 -30 116q-5 77 -85 77q-60 0 -127 -36l-55 112q92 63 195 63q187 0 204 -197q6 -76 19 -108.5t42 -32.5h14v-143h-312q-44 0 -66 -21.5t-22 -52.5q0 -72 101 -72q23 0 50 4l14 -127q-40 -8 -90 -8q-93 0 -149.5 50.5t-56.5 143.5q0 107 68 166
q67 60 175 60zM419 737l-29 -60q-31 18 -68 18q-20 0 -32 -10t-12 -26q0 -14 9.5 -23.5t25.5 -9.5h105v-66h-251v66h38l3 2q-6 14 -6 31q0 38 30 71q30 34 94 34q50 0 93 -27z" />
    <glyph glyph-name="uni0682.init" unicode="&#x682;" horiz-adv-x="532" 
d="M507 142v-142h-507q-30 0 -49.5 19.5t-19.5 51.5q0 31 20 51.5t49 20.5h351l3 6q-23 14 -30 116q-6 77 -85 77q-59 0 -127 -36l-57 111q92 64 197 64q92 0 144.5 -49t59.5 -148q4 -75 15 -105q10 -29 36 -37zM283 560h-99v96h99v-96zM283 678h-99v96h99v-96z" />
    <glyph glyph-name="uni0682.medi" unicode="&#x682;" horiz-adv-x="529" 
d="M250 481q187 0 204 -197q6 -76 19 -108.5t42 -32.5h14v-143h-529q-30 0 -49.5 19.5t-19.5 51.5q0 31 20 51.5t49 20.5h349l3 6q-23 14 -30 116q-6 77 -85 77q-60 0 -127 -36l-55 112q91 63 195 63zM283 560h-99v96h99v-96zM283 678h-99v96h99v-96z" />
    <glyph glyph-name="uni0682.fina" unicode="&#x682;" horiz-adv-x="586" 
d="M298 143h108l3 6q-23 14 -30 116q-5 77 -85 77q-60 0 -127 -36l-55 112q92 63 195 63q187 0 204 -197q6 -76 19 -108.5t42 -32.5h14v-143h-312q-44 0 -66 -21.5t-22 -52.5q0 -72 101 -72q23 0 50 4l14 -127q-40 -8 -90 -8q-93 0 -149.5 50.5t-56.5 143.5q0 107 68 166
q67 60 175 60zM343 560h-99v96h99v-96zM343 678h-99v96h99v-96z" />
    <glyph glyph-name="uni0683" unicode="&#x683;" horiz-adv-x="583" arabic-form="isolated" 
d="M298 143h104l3 6q-23 14 -30 116q-5 77 -85 77q-60 0 -127 -36l-55 112q92 63 195 63q92 0 144.5 -49t59.5 -148q5 -75 15 -105q10 -29 36 -37v-142h-284q-44 0 -66 -21.5t-22 -52.5q0 -72 101 -72q23 0 50 4l14 -127q-40 -8 -89 -8q-89 0 -148 49q-59 50 -59 145
q0 107 68 166q67 60 175 60zM533 -62v-71h-66v71h66zM451 -62v-71h-66v71h66z" />
    <glyph glyph-name="uni0684" unicode="&#x684;" horiz-adv-x="583" arabic-form="isolated" 
d="M298 143h104l3 6q-23 14 -30 116q-5 77 -85 77q-60 0 -127 -36l-55 112q92 63 195 63q92 0 144.5 -49t59.5 -148q5 -75 15 -105q10 -29 36 -37v-142h-284q-44 0 -66 -21.5t-22 -52.5q0 -72 101 -72q23 0 50 4l14 -127q-40 -8 -89 -8q-89 0 -148 49q-59 50 -59 145
q0 107 68 166q67 60 175 60zM477 -153v-71h-66v71h66zM477 -66v-72h-66v72h66z" />
    <glyph glyph-name="uni0685.init" unicode="&#x685;" horiz-adv-x="532" 
d="M507 142v-142h-507q-30 0 -49.5 19.5t-19.5 51.5q0 31 20 51.5t49 20.5h351l3 6q-23 14 -30 116q-6 77 -85 77q-59 0 -127 -36l-57 111q92 64 197 64q92 0 144.5 -49t59.5 -148q4 -75 15 -105q10 -29 36 -37zM342 560h-101v96h101v-96zM280 678h-99v96h99v-96zM219 560
h-101v96h101v-96z" />
    <glyph glyph-name="uni0685.medi" unicode="&#x685;" horiz-adv-x="529" 
d="M250 481q187 0 204 -197q6 -76 19 -108.5t42 -32.5h14v-143h-529q-30 0 -49.5 19.5t-19.5 51.5q0 31 20 51.5t49 20.5h349l3 6q-23 14 -30 116q-6 77 -85 77q-60 0 -127 -36l-55 112q91 63 195 63zM342 560h-101v96h101v-96zM280 678h-99v96h99v-96zM219 560h-101v96h101
v-96z" />
    <glyph glyph-name="uni0685.fina" unicode="&#x685;" horiz-adv-x="586" 
d="M298 143h108l3 6q-23 14 -30 116q-5 77 -85 77q-60 0 -127 -36l-55 112q92 63 195 63q187 0 204 -197q6 -76 19 -108.5t42 -32.5h14v-143h-312q-44 0 -66 -21.5t-22 -52.5q0 -72 101 -72q23 0 50 4l14 -127q-40 -8 -90 -8q-93 0 -149.5 50.5t-56.5 143.5q0 107 68 166
q67 60 175 60zM405 560h-101v96h101v-96zM343 678h-99v96h99v-96zM282 560h-101v96h101v-96z" />
    <glyph glyph-name="uni0686" unicode="&#x686;" horiz-adv-x="583" arabic-form="isolated" 
d="M298 143h104l3 6q-23 14 -30 116q-5 77 -85 77q-60 0 -127 -36l-55 112q92 63 195 63q92 0 144.5 -49t59.5 -148q5 -75 15 -105q10 -29 36 -37v-142h-284q-44 0 -66 -21.5t-22 -52.5q0 -72 101 -72q23 0 50 4l14 -127q-40 -8 -89 -8q-89 0 -148 49q-59 50 -59 145
q0 107 68 166q67 60 175 60zM458 -131v71h66v-71h-66zM376 -131v71h66v-71h-66zM417 -218v72h66v-72h-66z" />
    <glyph glyph-name="uni0687" unicode="&#x687;" horiz-adv-x="583" arabic-form="isolated" 
d="M298 143h104l3 6q-23 14 -30 116q-5 77 -85 77q-60 0 -127 -36l-55 112q92 63 195 63q92 0 144.5 -49t59.5 -148q5 -75 15 -105q10 -29 36 -37v-142h-284q-44 0 -66 -21.5t-22 -52.5q0 -72 101 -72q23 0 50 4l14 -127q-40 -8 -89 -8q-89 0 -148 49q-59 50 -59 145
q0 107 68 166q67 60 175 60zM538 -153v-71h-66v71h66zM456 -153v-71h-66v71h66zM538 -66v-72h-66v72h66zM456 -66v-72h-66v72h66z" />
    <glyph glyph-name="uni0688" unicode="&#x688;" horiz-adv-x="522" arabic-form="isolated" 
d="M467 299v-299h-412v143h281v125q0 76 -87 76q-77 0 -120 -39l-69 109q76 66 201 66q96 0 151 -45.5t55 -135.5zM227 624h94v15q0 40 -34 40q-24 0 -42 -16.5t-18 -37.5v-1zM388 667v-107h-269v66h39v137h70v-48h2q30 27 77 27q35 0 58 -20t23 -55z" />
    <glyph glyph-name="uni0689.fina" unicode="&#x689;" horiz-adv-x="521" 
d="M161 -16q0 13 1 16h-107v143h281v125q0 76 -87 76q-77 0 -120 -39l-69 109q76 66 201 66q96 0 151 -45.5t55 -135.5v-156h54v-143h-182q2 -14 2 -16q0 -38 -25 -64t-65 -26q-38 0 -64 26.5t-26 63.5zM218 -16q0 -15 9 -25t24 -10t24.5 10t9.5 25q0 7 -4 16h-60
q-3 -8 -3 -16z" />
    <glyph glyph-name="uni068A.fina" unicode="&#x68a;" horiz-adv-x="521" 
d="M521 143v-143h-466v143h281v125q0 76 -87 76q-77 0 -120 -39l-69 109q76 66 201 66q96 0 151 -45.5t55 -135.5v-156h54zM307 -171h-109v96h109v-96z" />
    <glyph glyph-name="uni068B.fina" unicode="&#x68b;" horiz-adv-x="521" 
d="M521 143v-143h-466v143h281v125q0 76 -87 76q-77 0 -120 -39l-69 109q76 66 201 66q96 0 151 -45.5t55 -135.5v-156h54zM307 -171h-109v96h109v-96zM227 624h94v15q0 40 -34 40q-24 0 -42 -16.5t-18 -37.5v-1zM388 667v-107h-269v66h39v137h70v-48h2q30 27 77 27
q35 0 58 -20t23 -55z" />
    <glyph glyph-name="uni068C" unicode="&#x68c;" horiz-adv-x="522" arabic-form="isolated" 
d="M467 299v-299h-412v143h281v125q0 76 -87 76q-77 0 -120 -39l-69 109q76 66 201 66q96 0 151 -45.5t55 -135.5zM242 560h-101v96h101v-96zM365 560h-101v96h101v-96z" />
    <glyph glyph-name="uni068D" unicode="&#x68d;" horiz-adv-x="522" arabic-form="isolated" 
d="M467 299v-299h-412v143h281v125q0 76 -87 76q-77 0 -120 -39l-69 109q76 66 201 66q96 0 151 -45.5t55 -135.5zM242 -171h-101v96h101v-96zM365 -171h-101v96h101v-96z" />
    <glyph glyph-name="uni068E" unicode="&#x68e;" horiz-adv-x="522" arabic-form="isolated" 
d="M467 299v-299h-412v143h281v125q0 76 -87 76q-77 0 -120 -39l-69 109q76 66 201 66q96 0 151 -45.5t55 -135.5zM365 560h-101v96h101v-96zM303 678h-99v96h99v-96zM242 560h-101v96h101v-96z" />
    <glyph glyph-name="uni068F.fina" unicode="&#x68f;" horiz-adv-x="521" 
d="M521 143v-143h-466v143h281v125q0 76 -87 76q-77 0 -120 -39l-69 109q76 66 201 66q96 0 151 -45.5t55 -135.5v-156h54zM365 677h-101v96h101v-96zM303 559h-99v96h99v-96zM242 677h-101v96h101v-96z" />
    <glyph glyph-name="uni0690.fina" unicode="&#x690;" horiz-adv-x="521" 
d="M521 143v-143h-466v143h281v125q0 76 -87 76q-77 0 -120 -39l-69 109q76 66 201 66q96 0 151 -45.5t55 -135.5v-156h54zM365 560h-101v96h101v-96zM242 560h-101v96h101v-96zM365 678h-101v96h101v-96zM242 678h-101v96h101v-96z" />
    <glyph glyph-name="uni0691" unicode="&#x691;" horiz-adv-x="246" arabic-form="isolated" 
d="M-53 -207v140q115 1 115 91v369h129v-380q0 -115 -57.5 -167t-186.5 -53zM97 540h94v15q0 40 -34 40q-24 0 -42 -16.5t-18 -37.5v-1zM258 583v-107h-269v66h39v137h70v-48h2q30 27 77 27q35 0 58 -20t23 -55z" />
    <glyph glyph-name="uni0692.fina" unicode="&#x692;" horiz-adv-x="246" 
d="M-53 -207v141q115 1 115 87v372h129v-250h55v-143h-55q-3 -108 -60.5 -157t-183.5 -50zM155 476h-61l-97 184l56 27l71 -112l72 110l54 -25z" />
    <glyph glyph-name="uni0693.fina" unicode="&#x693;" horiz-adv-x="246" 
d="M-53 -207v141q115 1 115 87v372h129v-250h55v-143h-55q-2 -66 -24 -109q39 -29 39 -75q0 -38 -25 -64t-65 -26q-34 0 -58.5 21t-30.5 53q-39 -7 -80 -7zM133 -154q-18 -17 -50 -31q-4 -25 22.5 -31.5t39.5 11.5q7 9 5 21q0 21 -17 30z" />
    <glyph glyph-name="uni0694.fina" unicode="&#x694;" horiz-adv-x="246" 
d="M-53 -207v141q115 1 115 87v372h129v-250h55v-143h-55q-3 -108 -60.5 -157t-183.5 -50zM166 -327h-109v96h109v-96z" />
    <glyph glyph-name="uni0695.fina" unicode="&#x695;" horiz-adv-x="246" 
d="M-53 -207v141q115 1 115 87v372h129v-250h55v-143h-55q-3 -108 -60.5 -157t-183.5 -50zM155 -436h-61l-97 184l56 27l71 -112l72 110l54 -25z" />
    <glyph glyph-name="uni0696.fina" unicode="&#x696;" horiz-adv-x="246" 
d="M-53 -207v141q115 1 115 87v372h129v-250h55v-143h-55q-3 -108 -60.5 -157t-183.5 -50zM166 -327h-109v96h109v-96zM25 71v-71h-66v71h66z" />
    <glyph glyph-name="uni0697.fina" unicode="&#x697;" horiz-adv-x="246" 
d="M-53 -207v141q115 1 115 87v372h129v-250h55v-143h-55q-3 -108 -60.5 -157t-183.5 -50zM112 476h-101v96h101v-96zM235 476h-101v96h101v-96z" />
    <glyph glyph-name="uni0698" unicode="&#x698;" horiz-adv-x="246" arabic-form="isolated" 
d="M235 476h-101v96h101v-96zM173 594h-99v96h99v-96zM112 476h-101v96h101v-96zM-53 -207v140q115 1 115 91v369h129v-380q0 -115 -57.5 -167t-186.5 -53z" />
    <glyph glyph-name="uni0699.fina" unicode="&#x699;" horiz-adv-x="246" 
d="M235 476h-101v96h101v-96zM112 476h-101v96h101v-96zM235 594h-101v96h101v-96zM112 594h-101v96h101v-96zM-53 -207v141q115 1 115 87v372h129v-250h55v-143h-55q-3 -108 -60.5 -157t-183.5 -50z" />
    <glyph glyph-name="uni069A.init" unicode="&#x69a;" horiz-adv-x="805" 
d="M298 0h-298q-30 0 -49.5 19.5t-19.5 51.5q0 31 20 51.5t49 20.5h124v250h129v-250h45q60 0 60 77v173h129v-176q0 -41 19 -65t48 -24q61 0 61 82q0 52 -27 120q-26 68 -60 105l107 76q45 -53 79 -134q36 -83 36 -172q0 -92 -46 -156q-46 -63 -140 -63q-96 0 -145 63h-5
q-42 -49 -116 -49zM469 560h-109v96h109v-96zM469 -171h-109v96h109v-96z" />
    <glyph glyph-name="uni069A.medi" unicode="&#x69a;" horiz-adv-x="825" 
d="M298 0h-298q-30 0 -49.5 19.5t-19.5 51.5q0 31 20 51.5t49 20.5h124v250h129v-250h45q60 0 60 77v173h129v-176q0 -41 19 -65t48 -24q65 0 65 82q0 52 -27 120q-26 68 -60 105l107 76q41 -49 76 -130q35 -82 35 -160q0 -34 18 -56t57 -22v-143q-85 0 -123 51h-4
q-41 -65 -134 -65q-96 0 -145 63h-5q-42 -49 -116 -49zM469 560h-109v96h109v-96zM469 -171h-109v96h109v-96z" />
    <glyph glyph-name="uni069A.fina" unicode="&#x69a;" horiz-adv-x="1034" 
d="M741 435l107 76q41 -49 76 -130q35 -82 35 -160q0 -34 18 -56t57 -22v-143q-86 0 -123 51h-4q-41 -65 -134 -65q-95 0 -145 63h-5q-42 -49 -116 -49h-32v-8q0 -93 -63 -146q-64 -53 -148 -53q-94 0 -151.5 50.5t-57.5 137.5v307h129v-277q0 -32 22.5 -55t58.5 -23
q35 0 58 23t23 55v382h129v-250h32q60 0 60 77v173h129v-176q0 -41 19 -65t48 -24q65 0 65 82q0 52 -27 120q-25 68 -60 105zM682 559h-109v96h109v-96zM682 -171h-109v96h109v-96z" />
    <glyph glyph-name="uni069B.init" unicode="&#x69b;" horiz-adv-x="805" 
d="M298 0h-298q-30 0 -49.5 19.5t-19.5 51.5q0 31 20 51.5t49 20.5h124v250h129v-250h45q60 0 60 77v173h129v-176q0 -41 19 -65t48 -24q61 0 61 82q0 52 -27 120q-26 68 -60 105l107 76q45 -53 79 -134q36 -83 36 -172q0 -92 -46 -156q-46 -63 -140 -63q-96 0 -145 63h-5
q-42 -49 -116 -49zM527 -170h-101v96h101v-96zM465 -288h-99v96h99v-96zM404 -170h-101v96h101v-96z" />
    <glyph glyph-name="uni069B.medi" unicode="&#x69b;" horiz-adv-x="825" 
d="M298 0h-298q-30 0 -49.5 19.5t-19.5 51.5q0 31 20 51.5t49 20.5h124v250h129v-250h45q60 0 60 77v173h129v-176q0 -41 19 -65t48 -24q65 0 65 82q0 52 -27 120q-26 68 -60 105l107 76q41 -49 76 -130q35 -82 35 -160q0 -34 18 -56t57 -22v-143q-85 0 -123 51h-4
q-41 -65 -134 -65q-96 0 -145 63h-5q-42 -49 -116 -49zM527 -170h-101v96h101v-96zM465 -288h-99v96h99v-96zM404 -170h-101v96h101v-96z" />
    <glyph glyph-name="uni069B.fina" unicode="&#x69b;" horiz-adv-x="1034" 
d="M741 435l107 76q41 -49 76 -130q35 -82 35 -160q0 -34 18 -56t57 -22v-143q-86 0 -123 51h-4q-41 -65 -134 -65q-95 0 -145 63h-5q-42 -49 -116 -49h-32v-8q0 -93 -63 -146q-64 -53 -148 -53q-94 0 -151.5 50.5t-57.5 137.5v307h129v-277q0 -32 22.5 -55t58.5 -23
q35 0 58 23t23 55v382h129v-250h32q60 0 60 77v173h129v-176q0 -41 19 -65t48 -24q65 0 65 82q0 52 -27 120q-25 68 -60 105zM741 -170h-101v96h101v-96zM679 -288h-99v96h99v-96zM618 -170h-101v96h101v-96z" />
    <glyph glyph-name="uni069C.init" unicode="&#x69c;" horiz-adv-x="805" 
d="M298 0h-298q-30 0 -49.5 19.5t-19.5 51.5q0 31 20 51.5t49 20.5h124v250h129v-250h45q60 0 60 77v173h129v-176q0 -41 19 -65t48 -24q61 0 61 82q0 52 -27 120q-26 68 -60 105l107 76q45 -53 79 -134q36 -83 36 -172q0 -92 -46 -156q-46 -63 -140 -63q-96 0 -145 63h-5
q-42 -49 -116 -49zM532 560h-101v96h101v-96zM470 678h-99v96h99v-96zM409 560h-101v96h101v-96zM527 -170h-101v96h101v-96zM465 -288h-99v96h99v-96zM404 -170h-101v96h101v-96z" />
    <glyph glyph-name="uni069C.medi" unicode="&#x69c;" horiz-adv-x="825" 
d="M298 0h-298q-30 0 -49.5 19.5t-19.5 51.5q0 31 20 51.5t49 20.5h124v250h129v-250h45q60 0 60 77v173h129v-176q0 -41 19 -65t48 -24q65 0 65 82q0 52 -27 120q-26 68 -60 105l107 76q41 -49 76 -130q35 -82 35 -160q0 -34 18 -56t57 -22v-143q-85 0 -123 51h-4
q-41 -65 -134 -65q-96 0 -145 63h-5q-42 -49 -116 -49zM532 560h-101v96h101v-96zM470 678h-99v96h99v-96zM409 560h-101v96h101v-96zM527 -170h-101v96h101v-96zM465 -288h-99v96h99v-96zM404 -170h-101v96h101v-96z" />
    <glyph glyph-name="uni069C.fina" unicode="&#x69c;" horiz-adv-x="1034" 
d="M741 435l107 76q41 -49 76 -130q35 -82 35 -160q0 -34 18 -56t57 -22v-143q-86 0 -123 51h-4q-41 -65 -134 -65q-95 0 -145 63h-5q-42 -49 -116 -49h-32v-8q0 -93 -63 -146q-64 -53 -148 -53q-94 0 -151.5 50.5t-57.5 137.5v307h129v-277q0 -32 22.5 -55t58.5 -23
q35 0 58 23t23 55v382h129v-250h32q60 0 60 77v173h129v-176q0 -41 19 -65t48 -24q65 0 65 82q0 52 -27 120q-25 68 -60 105zM735 559h-101v96h101v-96zM673 677h-99v96h99v-96zM612 559h-101v96h101v-96zM741 -170h-101v96h101v-96zM679 -288h-99v96h99v-96zM618 -170h-101
v96h101v-96z" />
    <glyph glyph-name="uni069D.init" unicode="&#x69d;" horiz-adv-x="671" 
d="M616 0h-616q-30 0 -49.5 19.5t-19.5 51.5q0 31 20 51.5t49 20.5h55v329h128v-74h8q98 83 217 83q91 0 149 -49q59 -48 59 -134v-298zM183 159v-16h302v90q0 47 -27 75t-79 28q-86 0 -141 -55q-55 -54 -55 -122zM319 -171h-101v96h101v-96zM442 -171h-101v96h101v-96z" />
    <glyph glyph-name="uni069D.medi" unicode="&#x69d;" horiz-adv-x="671" 
d="M671 0h-671q-30 0 -49.5 19.5t-19.5 51.5q0 31 20 51.5t49 20.5h55v329h128v-74h8q98 83 217 83q91 0 149 -49q59 -48 59 -134v-155h55v-143zM183 159v-16h302v90q0 47 -27 75t-79 28q-86 0 -141 -55q-55 -54 -55 -122zM319 -171h-101v96h101v-96zM442 -171h-101v96h101
v-96z" />
    <glyph glyph-name="uni069D.fina" unicode="&#x69d;" horiz-adv-x="975" 
d="M975 0h-487v-7q0 -89 -61 -144q-62 -56 -158 -56q-101 0 -157.5 54t-56.5 146v295h129v-267q0 -88 86 -88q43 0 66 25t23 63v451h128v-74h8q98 83 217 83q91 0 149 -49q59 -48 59 -134v-155h55v-143zM487 159v-16h302v90q0 47 -27 75t-79 28q-86 0 -141 -55
q-55 -54 -55 -122zM682 -171h-101v96h101v-96zM805 -171h-101v96h101v-96z" />
    <glyph glyph-name="uni069E.init" unicode="&#x69e;" horiz-adv-x="671" 
d="M616 0h-616q-30 0 -49.5 19.5t-19.5 51.5q0 31 20 51.5t49 20.5h55v329h128v-74h8q98 83 217 83q91 0 149 -49q59 -48 59 -134v-298zM183 159v-16h302v90q0 47 -27 75t-79 28q-86 0 -141 -55q-55 -54 -55 -122zM462 560h-101v96h101v-96zM400 678h-99v96h99v-96zM339 560
h-101v96h101v-96z" />
    <glyph glyph-name="uni069E.medi" unicode="&#x69e;" horiz-adv-x="671" 
d="M671 0h-671q-30 0 -49.5 19.5t-19.5 51.5q0 31 20 51.5t49 20.5h55v329h128v-74h8q98 83 217 83q91 0 149 -49q59 -48 59 -134v-155h55v-143zM183 159v-16h302v90q0 47 -27 75t-79 28q-86 0 -141 -55q-55 -54 -55 -122zM462 560h-101v96h101v-96zM400 678h-99v96h99v-96z
M339 560h-101v96h101v-96z" />
    <glyph glyph-name="uni069E.fina" unicode="&#x69e;" horiz-adv-x="975" 
d="M975 0h-487v-7q0 -89 -61 -144q-62 -56 -158 -56q-101 0 -157.5 54t-56.5 146v295h129v-267q0 -88 86 -88q43 0 66 25t23 63v451h128v-74h8q98 83 217 83q91 0 149 -49q59 -48 59 -134v-155h55v-143zM487 159v-16h302v90q0 47 -27 75t-79 28q-86 0 -141 -55
q-55 -54 -55 -122zM805 560h-101v96h101v-96zM743 678h-99v96h99v-96zM682 560h-101v96h101v-96z" />
    <glyph glyph-name="uni069F.medi" unicode="&#x69f;" horiz-adv-x="671" 
d="M671 0h-671q-30 0 -49.5 19.5t-19.5 51.5q0 31 20 51.5t49 20.5h55v583h128v-328h8q98 83 217 83q91 0 149 -49q59 -48 59 -134v-155h55v-143zM183 159v-16h302v90q0 47 -27 75t-79 28q-86 0 -141 -55q-55 -54 -55 -122zM522 560h-101v96h101v-96zM460 678h-99v96h99v-96
zM399 560h-101v96h101v-96z" />
    <glyph glyph-name="uni069F.fina" unicode="&#x69f;" horiz-adv-x="806" 
d="M806 0h-756v143h140v583h128v-328h8q98 83 217 83q91 0 149 -49q59 -48 59 -134v-155h55v-143zM318 159v-16h302v90q0 47 -27 75t-79 28q-86 0 -141 -55q-55 -54 -55 -122zM642 560h-101v96h101v-96zM580 678h-99v96h99v-96zM519 560h-101v96h101v-96z" />
    <glyph glyph-name="uni06A0.init" unicode="&#x6a0;" horiz-adv-x="564" 
d="M201 232q0 -38 28 -63.5t78 -25.5h184v-143h-491q-30 0 -49.5 19.5t-19.5 51.5q0 31 20 51.5t49 20.5h72l4 6q-21 25 -21 87q0 66 21.5 115.5t57.5 76.5t75.5 40t82.5 13q119 0 217 -71l-68 -124q-68 46 -135 46q-46 0 -75.5 -25t-29.5 -75zM394 560h-101v96h101v-96z
M332 678h-99v96h99v-96zM271 560h-101v96h101v-96z" />
    <glyph glyph-name="uni06A0.medi" unicode="&#x6a0;" horiz-adv-x="582" 
d="M-69 71q0 30 20.5 51t48.5 21h36q62 0 80 9q-61 51 -61 140q0 87 68 138q69 51 175 51q58 0 108 -18q53 -19 87 -62.5t34 -103.5q0 -40 -18 -79.5t-48 -63.5q28 -11 88 -11h33v-143h-43q-77 0 -145 15q-67 15 -101 44q-42 -29 -112 -44q-71 -15 -135 -15h-46
q-29 0 -49 20t-20 51zM296 348q-56 0 -81.5 -21t-25.5 -51q0 -31 25 -59t80 -45q49 14 75 44t26 64q0 10 -3 19t-12 21.5t-30.5 20t-53.5 7.5zM403 560h-101v96h101v-96zM341 678h-99v96h99v-96zM280 560h-101v96h101v-96z" />
    <glyph glyph-name="uni06A0.fina" unicode="&#x6a0;" horiz-adv-x="627" 
d="M55 -81q0 60 34.5 115.5t91.5 86.5q-88 69 -88 167q0 50 20 88.5t54.5 60.5t75 33t85.5 11q96 0 170 -47t74 -131q0 -44 -27 -86t-70 -63q30 -11 94 -11h58v-143h-58q-81 0 -161 15q-83 17 -121 41q-42 -20 -71 -54t-29 -70q0 -78 125 -78q28 0 35 1l14 -127
q-34 -6 -70 -6q-102 0 -169 49q-67 48 -67 148zM231 288q0 -26 26 -52.5t78 -45.5q48 12 73 35t25 51q0 33 -32 53.5t-76 20.5q-41 0 -67.5 -16.5t-26.5 -45.5zM425 560h-101v96h101v-96zM363 678h-99v96h99v-96zM302 560h-101v96h101v-96z" />
    <glyph glyph-name="uni06A1.init" unicode="&#x6a1;" horiz-adv-x="548" 
d="M0 143h31q39 0 58 -4l2 6q-36 43 -36 112q0 101 58 162q59 62 159 62q107 0 164 -62t57 -176q0 -113 -71 -178t-181 -65h-241q-30 0 -49.5 19.5t-19.5 51.5q0 31 20 51.5t49 20.5zM187 248q0 -38 31.5 -70t78.5 -38q64 36 64 111q0 40 -22.5 65t-62.5 25q-42 0 -65.5 -27
t-23.5 -66z" />
    <glyph glyph-name="uni06A1.medi" unicode="&#x6a1;" horiz-adv-x="548" 
d="M461 150l1 -7h86v-143h-548q-30 0 -49.5 19.5t-19.5 51.5q0 31 20 51.5t49 20.5h16q56 0 75 -4l2 6q-38 41 -38 124q0 90 59 151q58 61 158 61q106 0 163.5 -59t57.5 -162q0 -25 -9 -58t-23 -52zM187 248q0 -38 30.5 -69t79.5 -37q64 34 64 109q0 40 -22.5 65t-62.5 25
q-42 0 -65.5 -27t-23.5 -66z" />
    <glyph glyph-name="uni06A1.fina" unicode="&#x6a1;" horiz-adv-x="871" 
d="M184 358v-77q0 -74 27 -106t99 -32h29q56 0 75 -4l2 6q-38 41 -38 124q0 90 59 151q58 61 158 61q106 0 163.5 -59t57.5 -162q0 -25 -9 -58t-23 -52l1 -7h86v-143h-555q-261 0 -261 252v106h129zM510 248q0 -38 30.5 -69t79.5 -37q64 34 64 109q0 40 -22.5 65t-62.5 25
q-42 0 -65.5 -27t-23.5 -66z" />
    <glyph glyph-name="uni06A2.init" unicode="&#x6a2;" horiz-adv-x="548" 
d="M0 143h31q39 0 58 -4l2 6q-36 43 -36 112q0 101 58 162q59 62 159 62q107 0 164 -62t57 -176q0 -113 -71 -178t-181 -65h-241q-30 0 -49.5 19.5t-19.5 51.5q0 31 20 51.5t49 20.5zM187 248q0 -38 31.5 -70t78.5 -38q64 36 64 111q0 40 -22.5 65t-62.5 25q-42 0 -65.5 -27
t-23.5 -66zM334 -171h-109v96h109v-96z" />
    <glyph glyph-name="uni06A2.medi" unicode="&#x6a2;" horiz-adv-x="548" 
d="M461 150l1 -7h86v-143h-548q-30 0 -49.5 19.5t-19.5 51.5q0 31 20 51.5t49 20.5h16q56 0 75 -4l2 6q-38 41 -38 124q0 90 59 151q58 61 158 61q106 0 163.5 -59t57.5 -162q0 -25 -9 -58t-23 -52zM187 248q0 -38 30.5 -69t79.5 -37q64 34 64 109q0 40 -22.5 65t-62.5 25
q-42 0 -65.5 -27t-23.5 -66zM334 -171h-109v96h109v-96z" />
    <glyph glyph-name="uni06A2.fina" unicode="&#x6a2;" horiz-adv-x="871" 
d="M184 358v-77q0 -74 27 -106t99 -32h29q56 0 75 -4l2 6q-38 41 -38 124q0 90 59 151q58 61 158 61q106 0 163.5 -59t57.5 -162q0 -25 -9 -58t-23 -52l1 -7h86v-143h-555q-261 0 -261 252v106h129zM510 248q0 -38 30.5 -69t79.5 -37q64 34 64 109q0 40 -22.5 65t-62.5 25
q-42 0 -65.5 -27t-23.5 -66zM647 -171h-109v96h109v-96z" />
    <glyph glyph-name="uni06A3.init" unicode="&#x6a3;" horiz-adv-x="548" 
d="M0 143h31q39 0 58 -4l2 6q-36 43 -36 112q0 101 58 162q59 62 159 62q107 0 164 -62t57 -176q0 -113 -71 -178t-181 -65h-241q-30 0 -49.5 19.5t-19.5 51.5q0 31 20 51.5t49 20.5zM187 248q0 -38 31.5 -70t78.5 -38q64 36 64 111q0 40 -22.5 65t-62.5 25q-42 0 -65.5 -27
t-23.5 -66zM334 560h-109v96h109v-96zM334 -171h-109v96h109v-96z" />
    <glyph glyph-name="uni06A3.medi" unicode="&#x6a3;" horiz-adv-x="548" 
d="M461 150l1 -7h86v-143h-548q-30 0 -49.5 19.5t-19.5 51.5q0 31 20 51.5t49 20.5h16q56 0 75 -4l2 6q-38 41 -38 124q0 90 59 151q58 61 158 61q106 0 163.5 -59t57.5 -162q0 -25 -9 -58t-23 -52zM187 248q0 -38 30.5 -69t79.5 -37q64 34 64 109q0 40 -22.5 65t-62.5 25
q-42 0 -65.5 -27t-23.5 -66zM334 560h-109v96h109v-96zM334 -171h-109v96h109v-96z" />
    <glyph glyph-name="uni06A3.fina" unicode="&#x6a3;" horiz-adv-x="871" 
d="M184 358v-77q0 -74 27 -106t99 -32h29q56 0 75 -4l2 6q-38 41 -38 124q0 90 59 151q58 61 158 61q106 0 163.5 -59t57.5 -162q0 -25 -9 -58t-23 -52l1 -7h86v-143h-555q-261 0 -261 252v106h129zM510 248q0 -38 30.5 -69t79.5 -37q64 34 64 109q0 40 -22.5 65t-62.5 25
q-42 0 -65.5 -27t-23.5 -66zM647 560h-109v96h109v-96zM647 -171h-109v96h109v-96z" />
    <glyph glyph-name="uni06A4" unicode="&#x6a4;" horiz-adv-x="871" arabic-form="isolated" 
d="M564 0h-248q-261 0 -261 252v106h129v-77q0 -74 27 -106t99 -32h32q55 0 74 -4l2 6q-40 33 -40 124q0 90 59 151q58 61 158 61q107 0 164 -62t57 -176q0 -113 -71 -178t-181 -65zM510 248q0 -38 31.5 -70t78.5 -38q64 36 64 111q0 40 -22.5 65t-62.5 25q-42 0 -65.5 -27
t-23.5 -66zM705 560h-101v96h101v-96zM643 678h-99v96h99v-96zM582 560h-101v96h101v-96z" />
    <glyph glyph-name="uni06A5.init" unicode="&#x6a5;" horiz-adv-x="548" 
d="M0 143h31q39 0 58 -4l2 6q-36 43 -36 112q0 101 58 162q59 62 159 62q107 0 164 -62t57 -176q0 -113 -71 -178t-181 -65h-241q-30 0 -49.5 19.5t-19.5 51.5q0 31 20 51.5t49 20.5zM187 248q0 -38 31.5 -70t78.5 -38q64 36 64 111q0 40 -22.5 65t-62.5 25q-42 0 -65.5 -27
t-23.5 -66zM392 -170h-101v96h101v-96zM330 -288h-99v96h99v-96zM269 -170h-101v96h101v-96z" />
    <glyph glyph-name="uni06A5.medi" unicode="&#x6a5;" horiz-adv-x="548" 
d="M461 150l1 -7h86v-143h-548q-30 0 -49.5 19.5t-19.5 51.5q0 31 20 51.5t49 20.5h16q56 0 75 -4l2 6q-38 41 -38 124q0 90 59 151q58 61 158 61q106 0 163.5 -59t57.5 -162q0 -25 -9 -58t-23 -52zM187 248q0 -38 30.5 -69t79.5 -37q64 34 64 109q0 40 -22.5 65t-62.5 25
q-42 0 -65.5 -27t-23.5 -66zM392 -170h-101v96h101v-96zM330 -288h-99v96h99v-96zM269 -170h-101v96h101v-96z" />
    <glyph glyph-name="uni06A5.fina" unicode="&#x6a5;" horiz-adv-x="871" 
d="M184 358v-77q0 -74 27 -106t99 -32h29q56 0 75 -4l2 6q-38 41 -38 124q0 90 59 151q58 61 158 61q106 0 163.5 -59t57.5 -162q0 -25 -9 -58t-23 -52l1 -7h86v-143h-555q-261 0 -261 252v106h129zM510 248q0 -38 30.5 -69t79.5 -37q64 34 64 109q0 40 -22.5 65t-62.5 25
q-42 0 -65.5 -27t-23.5 -66zM705 -170h-101v96h101v-96zM643 -288h-99v96h99v-96zM582 -170h-101v96h101v-96z" />
    <glyph glyph-name="uni06A6" unicode="&#x6a6;" horiz-adv-x="871" arabic-form="isolated" 
d="M564 0h-248q-261 0 -261 252v106h129v-77q0 -74 27 -106t99 -32h32q55 0 74 -4l2 6q-40 33 -40 124q0 90 59 151q58 61 158 61q107 0 164 -62t57 -176q0 -113 -71 -178t-181 -65zM510 248q0 -38 31.5 -70t78.5 -38q64 36 64 111q0 40 -22.5 65t-62.5 25q-42 0 -65.5 -27
t-23.5 -66zM705 560h-101v96h101v-96zM582 560h-101v96h101v-96zM705 678h-101v96h101v-96zM582 678h-101v96h101v-96z" />
    <glyph glyph-name="uni06A7.fina" unicode="&#x6a7;" horiz-adv-x="746" 
d="M746 143v-143h-53q-14 -116 -93 -177.5t-215 -61.5q-330 0 -330 294v233h129v-203q0 -181 203 -181q39 0 68 7q34 7 62 32.5t34 62.5h-76q-102 0 -161 59t-59 168q0 117 60.5 182.5t170.5 65.5q102 0 156 -62.5t54 -184.5v-91h50zM483 338q-45 0 -72 -28.5t-27 -76.5
q0 -42 22.5 -66.5t63.5 -24.5h97v93q0 50 -22 76.5t-62 26.5zM531 560h-109v96h109v-96z" />
    <glyph glyph-name="uni06A8.fina" unicode="&#x6a8;" horiz-adv-x="746" 
d="M746 143v-143h-53q-14 -116 -93 -177.5t-215 -61.5q-330 0 -330 294v233h129v-203q0 -181 203 -181q39 0 68 7q34 7 62 32.5t34 62.5h-76q-102 0 -161 59t-59 168q0 117 60.5 182.5t170.5 65.5q102 0 156 -62.5t54 -184.5v-91h50zM483 338q-45 0 -72 -28.5t-27 -76.5
q0 -42 22.5 -66.5t63.5 -24.5h97v93q0 50 -22 76.5t-62 26.5zM589 560h-101v96h101v-96zM527 678h-99v96h99v-96zM466 560h-101v96h101v-96z" />
    <glyph glyph-name="uni06A9" unicode="&#x6a9;" horiz-adv-x="836" arabic-form="isolated" 
d="M310 143h331v41q0 61 -37 83l-239 139v88l400 252l62 -95l-301 -187l153 -87q66 -37 79 -90q12 -39 12 -98v-189h-454q-261 0 -261 252v100h129v-71q0 -71 28.5 -104.5t97.5 -33.5z" />
    <glyph glyph-name="uni06AA.init" unicode="&#x6aa;" horiz-adv-x="1031" 
d="M239 521h188v-11l-145 -141h477q115 0 166 -44.5t51 -146.5v-178h-976q-30 0 -49.5 19.5t-19.5 51.5q0 31 20 51.5t49 20.5h840v25q0 31 -15 43.5t-53 12.5h-717v112z" />
    <glyph glyph-name="uni06AA.medi" unicode="&#x6aa;" horiz-adv-x="1031" 
d="M238 521h188v-11l-145 -141h477q115 0 166 -44.5t51 -146.5v-35h56v-143h-1031q-30 0 -49.5 19.5t-19.5 51.5q0 31 20 51.5t49 20.5h839v25q0 31 -15 43.5t-53 12.5h-717v112z" />
    <glyph glyph-name="uni06AA.fina" unicode="&#x6aa;" horiz-adv-x="1164" 
d="M371 521h188v-11l-145 -141h477q115 0 166 -44.5t51 -146.5v-35h56v-143h-1114v143h922v25q0 31 -15 43.5t-53 12.5h-717v112z" />
    <glyph glyph-name="uni06AB.init" unicode="&#x6ab;" horiz-adv-x="526" 
d="M-72 72q0 31 20.5 51t51.5 20h331v41q0 61 -37 83l-239 139v88l400 252l62 -95l-72 -45q17 -23 17 -53q0 -38 -25 -64t-65 -26q-56 0 -80 48l-76 -47l153 -87q66 -37 79 -90q12 -39 12 -98v-189h-462q-31 0 -50.5 19.5t-19.5 52.5zM406 553q0 13 -9 23l-57 -35
q8 -23 32 -23q15 0 24.5 10t9.5 25z" />
    <glyph glyph-name="uni06AB.medi" unicode="&#x6ab;" horiz-adv-x="526" 
d="M-72 72q0 31 20.5 51t51.5 20h331v41q0 61 -37 83l-239 139v88l400 252l62 -95l-72 -45q17 -23 17 -53q0 -38 -25 -64t-65 -26q-56 0 -80 48l-76 -47l153 -87q66 -37 79 -90q12 -39 12 -98v-46h66v-143h-528q-31 0 -50.5 19.5t-19.5 52.5zM406 553q0 13 -9 23l-57 -35
q8 -23 32 -23q15 0 24.5 10t9.5 25z" />
    <glyph glyph-name="uni06AC.init" unicode="&#x6ac;" horiz-adv-x="526" 
d="M-72 72q0 31 20.5 51t51.5 20h331v41q0 61 -37 83l-239 139v88l400 252l62 -95l-301 -187l153 -87q66 -37 79 -90q12 -39 12 -98v-189h-462q-31 0 -50.5 19.5t-19.5 52.5zM217 676h-109v96h109v-96z" />
    <glyph glyph-name="uni06AC.medi" unicode="&#x6ac;" horiz-adv-x="526" 
d="M-72 72q0 31 20.5 51t51.5 20h331v41q0 61 -37 83l-239 139v88l400 252l62 -95l-301 -187l153 -87q66 -37 79 -90q12 -39 12 -98v-46h66v-143h-528q-31 0 -50.5 19.5t-19.5 52.5zM217 676h-109v96h109v-96z" />
    <glyph glyph-name="uni06AC.fina" unicode="&#x6ac;" horiz-adv-x="815" 
d="M611 205v522h129v-506q0 -43 15.5 -60.5t59.5 -17.5v-143q-101 0 -131 59q-25 -35 -53.5 -47t-71.5 -12h-243q-261 0 -261 252v106h129v-77q0 -71 28.5 -104.5t97.5 -33.5h247q54 0 54 62zM534 487l-29 -60q-31 18 -68 18q-20 0 -32 -10t-12 -26q0 -14 9.5 -23.5
t25.5 -9.5h105v-66h-251v66h38l3 2q-6 14 -6 31q0 38 30 71q30 34 94 34q49 0 93 -27zM467 560h-109v96h109v-96z" />
    <glyph glyph-name="uni06AD" unicode="&#x6ad;" horiz-adv-x="798" arabic-form="isolated" 
d="M615 203v523h128v-542q0 -90 -46.5 -137t-132.5 -47h-232q-138 0 -207.5 66t-69.5 186v106h129v-77q0 -71 32.5 -104.5t109.5 -33.5h239q50 0 50 60zM521 487l-29 -60q-32 18 -68 18q-20 0 -32 -10t-12 -26q0 -14 9.5 -23.5t25.5 -9.5h105v-66h-251v66h38l3 2
q-6 14 -6 31q0 38 30 71q30 34 94 34q50 0 93 -27zM533 560h-101v96h101v-96zM471 678h-99v96h99v-96zM410 560h-101v96h101v-96z" />
    <glyph glyph-name="uni06AE.init" unicode="&#x6ae;" horiz-adv-x="526" 
d="M-72 72q0 31 20.5 51t51.5 20h331v41q0 61 -37 83l-239 139v88l400 252l62 -95l-301 -187l153 -87q66 -37 79 -90q12 -39 12 -98v-189h-462q-31 0 -50.5 19.5t-19.5 52.5zM358 -170h-101v96h101v-96zM296 -288h-99v96h99v-96zM235 -170h-101v96h101v-96z" />
    <glyph glyph-name="uni06AE.medi" unicode="&#x6ae;" horiz-adv-x="526" 
d="M-72 72q0 31 20.5 51t51.5 20h331v41q0 61 -37 83l-239 139v88l400 252l62 -95l-301 -187l153 -87q66 -37 79 -90q12 -39 12 -98v-46h66v-143h-528q-31 0 -50.5 19.5t-19.5 52.5zM358 -170h-101v96h101v-96zM296 -288h-99v96h99v-96zM235 -170h-101v96h101v-96z" />
    <glyph glyph-name="uni06AE.fina" unicode="&#x6ae;" horiz-adv-x="815" 
d="M611 205v522h129v-506q0 -43 15.5 -60.5t59.5 -17.5v-143q-101 0 -131 59q-25 -35 -53.5 -47t-71.5 -12h-243q-261 0 -261 252v106h129v-77q0 -71 28.5 -104.5t97.5 -33.5h247q54 0 54 62zM534 487l-29 -60q-31 18 -68 18q-20 0 -32 -10t-12 -26q0 -14 9.5 -23.5
t25.5 -9.5h105v-66h-251v66h38l3 2q-6 14 -6 31q0 38 30 71q30 34 94 34q49 0 93 -27zM525 -171h-101v96h101v-96zM463 -289h-99v96h99v-96zM402 -171h-101v96h101v-96z" />
    <glyph glyph-name="uni06AF" unicode="&#x6af;" horiz-adv-x="836" arabic-form="isolated" 
d="M310 143h331v41q0 61 -37 83l-239 139v88l400 252l62 -95l-301 -187l153 -87q66 -37 79 -90q12 -39 12 -98v-189h-454q-261 0 -261 252v100h129v-71q0 -71 28.5 -104.5t97.5 -33.5zM308 613l396 248l35 -58l-394 -248z" />
    <glyph glyph-name="uni06B0.init" unicode="&#x6b0;" horiz-adv-x="526" 
d="M-72 72q0 31 20.5 51t51.5 20h331v41q0 61 -37 83l-239 139v88l400 252l62 -95l-72 -45q17 -23 17 -53q0 -38 -25 -64t-65 -26q-56 0 -80 48l-76 -47l153 -87q66 -37 79 -90q12 -39 12 -98v-189h-462q-31 0 -50.5 19.5t-19.5 52.5zM2 613l396 248l35 -58l-394 -248z
M406 553q0 13 -9 23l-57 -35q8 -23 32 -23q15 0 24.5 10t9.5 25z" />
    <glyph glyph-name="uni06B0.medi" unicode="&#x6b0;" horiz-adv-x="526" 
d="M-72 72q0 31 20.5 51t51.5 20h331v41q0 61 -37 83l-239 139v88l400 252l62 -95l-72 -45q17 -23 17 -53q0 -38 -25 -64t-65 -26q-56 0 -80 48l-76 -47l153 -87q66 -37 79 -90q12 -39 12 -98v-46h66v-143h-528q-31 0 -50.5 19.5t-19.5 52.5zM2 613l396 248l35 -58
l-394 -248zM406 553q0 13 -9 23l-57 -35q8 -23 32 -23q15 0 24.5 10t9.5 25z" />
    <glyph glyph-name="uni06B0.fina" unicode="&#x6b0;" horiz-adv-x="836" 
d="M310 143h331v41q0 61 -37 83l-239 139v88l400 252l62 -95l-80 -50q14 -23 14 -48q0 -38 -25 -64t-65 -26q-52 0 -77 43l-68 -42l153 -87q66 -37 79 -90q12 -39 12 -98v-46h66v-143h-520q-261 0 -261 252v100h129v-71q0 -71 28.5 -104.5t97.5 -33.5zM308 613l396 248
l35 -58l-394 -248zM705 553q0 7 -5 19l-59 -37q9 -17 30 -17q15 0 24.5 10t9.5 25z" />
    <glyph glyph-name="uni06B1" unicode="&#x6b1;" horiz-adv-x="836" arabic-form="isolated" 
d="M310 143h331v41q0 61 -37 83l-239 139v88l400 252l62 -95l-301 -187l153 -87q66 -37 79 -90q12 -39 12 -98v-189h-454q-261 0 -261 252v100h129v-71q0 -71 28.5 -104.5t97.5 -33.5zM308 613l396 248l35 -58l-394 -248zM503 848v-71h-66v71h66zM415 788v-71h-66v71h66z
" />
    <glyph glyph-name="uni06B2.init" unicode="&#x6b2;" horiz-adv-x="526" 
d="M-72 72q0 31 20.5 51t51.5 20h331v41q0 61 -37 83l-239 139v88l400 252l62 -95l-301 -187l153 -87q66 -37 79 -90q12 -39 12 -98v-189h-462q-31 0 -50.5 19.5t-19.5 52.5zM2 613l396 248l35 -58l-394 -248zM214 -171h-101v96h101v-96zM337 -171h-101v96h101v-96z" />
    <glyph glyph-name="uni06B2.medi" unicode="&#x6b2;" horiz-adv-x="526" 
d="M-72 72q0 31 20.5 51t51.5 20h331v41q0 61 -37 83l-239 139v88l400 252l62 -95l-301 -187l153 -87q66 -37 79 -90q12 -39 12 -98v-46h66v-143h-528q-31 0 -50.5 19.5t-19.5 52.5zM2 613l396 248l35 -58l-394 -248zM214 -171h-101v96h101v-96zM337 -171h-101v96h101v-96z
" />
    <glyph glyph-name="uni06B2.fina" unicode="&#x6b2;" horiz-adv-x="836" 
d="M310 143h331v41q0 61 -37 83l-239 139v88l400 252l62 -95l-301 -187l153 -87q66 -37 79 -90q12 -39 12 -98v-46h66v-143h-520q-261 0 -261 252v100h129v-71q0 -71 28.5 -104.5t97.5 -33.5zM308 613l396 248l35 -58l-394 -248zM453 -171h-101v96h101v-96zM576 -171h-101
v96h101v-96z" />
    <glyph glyph-name="uni06B3" unicode="&#x6b3;" horiz-adv-x="836" arabic-form="isolated" 
d="M310 143h331v41q0 61 -37 83l-239 139v88l400 252l62 -95l-301 -187l153 -87q66 -37 79 -90q12 -39 12 -98v-189h-454q-261 0 -261 252v100h129v-71q0 -71 28.5 -104.5t97.5 -33.5zM308 613l396 248l35 -58l-394 -248zM534 -274h-99v96h99v-96zM534 -156h-99v96h99v-96z
" />
    <glyph glyph-name="uni06B4.init" unicode="&#x6b4;" horiz-adv-x="526" 
d="M-72 72q0 31 20.5 51t51.5 20h331v41q0 61 -37 83l-239 139v88l400 252l62 -95l-301 -187l153 -87q66 -37 79 -90q12 -39 12 -98v-189h-462q-31 0 -50.5 19.5t-19.5 52.5zM2 613l396 248l35 -58l-394 -248zM200 869v-71h-66v71h66zM109 808v-71h-66v71h66zM100 904v-71
h-66v71h66z" />
    <glyph glyph-name="uni06B4.medi" unicode="&#x6b4;" horiz-adv-x="526" 
d="M-72 72q0 31 20.5 51t51.5 20h331v41q0 61 -37 83l-239 139v88l400 252l62 -95l-301 -187l153 -87q66 -37 79 -90q12 -39 12 -98v-46h66v-143h-528q-31 0 -50.5 19.5t-19.5 52.5zM2 613l396 248l35 -58l-394 -248zM200 869v-71h-66v71h66zM109 808v-71h-66v71h66z
M100 904v-71h-66v71h66z" />
    <glyph glyph-name="uni06B4.fina" unicode="&#x6b4;" horiz-adv-x="836" 
d="M310 143h331v41q0 61 -37 83l-239 139v88l400 252l62 -95l-301 -187l153 -87q66 -37 79 -90q12 -39 12 -98v-46h66v-143h-520q-261 0 -261 252v100h129v-71q0 -71 28.5 -104.5t97.5 -33.5zM308 613l396 248l35 -58l-394 -248zM504 869v-71h-66v71h66zM413 808v-71h-66v71
h66zM404 904v-71h-66v71h66z" />
    <glyph glyph-name="uni06B5.init" unicode="&#x6b5;" horiz-adv-x="241" 
d="M57 218v508h129v-493q0 -94 -33 -157q-38 -76 -153 -76q-30 0 -49.5 20.5t-19.5 50.5t19.5 50t49.5 22q57 3 57 75zM152 788h-61l-97 184l56 27l71 -112l72 110l54 -25z" />
    <glyph glyph-name="uni06B5.medi" unicode="&#x6b5;" horiz-adv-x="266" 
d="M62 211v515h129v-505q0 -44 15 -61t60 -17v-143q-99 0 -131 59q-45 -59 -135 -59q-30 0 -49.5 19.5t-19.5 51.5q0 31 20 51.5t49 20.5q62 0 62 68zM165 788h-61l-97 184l56 27l71 -112l72 110l54 -25z" />
    <glyph glyph-name="uni06B5.fina" unicode="&#x6b5;" horiz-adv-x="544" 
d="M359 726h130v-583h55v-143h-55q-2 -92 -62 -149q-58 -58 -158 -58q-101 0 -157.5 54.5t-56.5 147.5v293h129v-262q0 -39 21.5 -66t64.5 -27q45 0 67 26.5t22 66.5v700zM454 788h-61l-97 184l56 27l71 -112l72 110l54 -25z" />
    <glyph glyph-name="uni06B6.init" unicode="&#x6b6;" horiz-adv-x="241" 
d="M57 218v508h129v-493q0 -94 -33 -157q-38 -76 -153 -76q-30 0 -49.5 20.5t-19.5 50.5t19.5 50t49.5 22q57 3 57 75zM174 789h-109v96h109v-96z" />
    <glyph glyph-name="uni06B6.medi" unicode="&#x6b6;" horiz-adv-x="266" 
d="M62 211v515h129v-505q0 -44 15 -61t60 -17v-143q-99 0 -131 59q-45 -59 -135 -59q-30 0 -49.5 19.5t-19.5 51.5q0 31 20 51.5t49 20.5q62 0 62 68zM187 791h-109v96h109v-96z" />
    <glyph glyph-name="uni06B6.fina" unicode="&#x6b6;" horiz-adv-x="544" 
d="M359 726h130v-583h55v-143h-55q-2 -92 -62 -149q-58 -58 -158 -58q-101 0 -157.5 54.5t-56.5 147.5v293h129v-262q0 -39 21.5 -66t64.5 -27q45 0 67 26.5t22 66.5v700zM479 788h-109v96h109v-96z" />
    <glyph glyph-name="uni06B7.init" unicode="&#x6b7;" horiz-adv-x="241" 
d="M194 859v-71h-66v71h66zM112 859v-71h-66v71h66zM153 946v-72h-66v72h66zM57 218v508h129v-493q0 -94 -33 -157q-38 -76 -153 -76q-30 0 -49.5 20.5t-19.5 50.5t19.5 50t49.5 22q57 3 57 75z" />
    <glyph glyph-name="uni06B7.medi" unicode="&#x6b7;" horiz-adv-x="266" 
d="M62 211v515h129v-505q0 -44 15 -61t60 -17v-143q-99 0 -131 59q-45 -59 -135 -59q-30 0 -49.5 19.5t-19.5 51.5q0 31 20 51.5t49 20.5q62 0 62 68zM207 859v-71h-66v71h66zM125 859v-71h-66v71h66zM166 946v-72h-66v72h66z" />
    <glyph glyph-name="uni06B7.fina" unicode="&#x6b7;" horiz-adv-x="544" 
d="M359 726h130v-583h55v-143h-55q-2 -92 -62 -149q-58 -58 -158 -58q-101 0 -157.5 54.5t-56.5 147.5v293h129v-262q0 -39 21.5 -66t64.5 -27q45 0 67 26.5t22 66.5v700zM498 859v-71h-66v71h66zM416 859v-71h-66v71h66zM457 946v-72h-66v72h66z" />
    <glyph glyph-name="uni06B8.init" unicode="&#x6b8;" horiz-adv-x="241" 
d="M232 -156h-101v96h101v-96zM170 -274h-99v96h99v-96zM109 -156h-101v96h101v-96zM57 218v508h129v-493q0 -94 -33 -157q-38 -76 -153 -76q-30 0 -49.5 20.5t-19.5 50.5t19.5 50t49.5 22q57 3 57 75z" />
    <glyph glyph-name="uni06B8.medi" unicode="&#x6b8;" horiz-adv-x="266" 
d="M62 211v515h129v-505q0 -44 15 -61t60 -17v-143q-99 0 -131 59q-45 -59 -135 -59q-30 0 -49.5 19.5t-19.5 51.5q0 31 20 51.5t49 20.5q62 0 62 68zM245 -156h-101v96h101v-96zM183 -274h-99v96h99v-96zM122 -156h-101v96h101v-96z" />
    <glyph glyph-name="uni06B8.fina" unicode="&#x6b8;" horiz-adv-x="544" 
d="M359 726h130v-583h55v-143h-55q-2 -92 -62 -149q-58 -58 -158 -58q-101 0 -157.5 54.5t-56.5 147.5v293h129v-262q0 -39 21.5 -66t64.5 -27q45 0 67 26.5t22 66.5v700zM292 -341v71h66v-71h-66zM210 -341v71h66v-71h-66zM251 -428v72h66v-72h-66z" />
    <glyph glyph-name="uni06B9.init" unicode="&#x6b9;" horiz-adv-x="241" 
d="M57 218v240h129v-225q0 -94 -33 -157q-38 -76 -153 -76q-30 0 -49.5 20.5t-19.5 50.5t19.5 50t49.5 22q57 3 57 75zM174 535h-109v96h109v-96zM174 -171h-109v96h109v-96z" />
    <glyph glyph-name="uni06B9.medi" unicode="&#x6b9;" horiz-adv-x="266" 
d="M62 211v182h129v-172q0 -44 15 -61t60 -17v-143q-99 0 -131 59q-45 -59 -135 -59q-30 0 -49.5 19.5t-19.5 51.5q0 31 20 51.5t49 20.5q62 0 62 68zM187 -171h-109v96h109v-96zM187 476h-109v96h109v-96z" />
    <glyph glyph-name="uni06B9.fina" unicode="&#x6b9;" horiz-adv-x="544" 
d="M360 393h129v-250h55v-143h-55q-2 -92 -62 -149q-58 -58 -158 -58q-101 0 -157.5 54.5t-56.5 147.5v293h129v-262q0 -39 21.5 -66t64.5 -27q90 0 90 93v367zM332 -354h-109v96h109v-96zM332 456h-109v96h109v-96z" />
    <glyph glyph-name="uni06BA" unicode="&#x6ba;" horiz-adv-x="544" arabic-form="isolated" 
d="M360 393h129v-386q0 -95 -60 -154q-58 -60 -160 -60q-101 0 -157.5 54.5t-56.5 147.5v293h129v-262q0 -39 21.5 -66t64.5 -27q90 0 90 93v367z" />
    <glyph glyph-name="uni06BB" unicode="&#x6bb;" horiz-adv-x="544" arabic-form="isolated" 
d="M360 393h129v-386q0 -95 -60 -154q-58 -60 -160 -60q-101 0 -157.5 54.5t-56.5 147.5v293h129v-262q0 -39 21.5 -66t64.5 -27q90 0 90 93v367zM252 520h94v15q0 40 -34 40q-24 0 -42 -16.5t-18 -37.5v-1zM413 563v-107h-269v66h39v137h70v-48h2q30 27 77 27q35 0 58 -20
t23 -55z" />
    <glyph glyph-name="uni06BC.init" unicode="&#x6bc;" horiz-adv-x="241" 
d="M15 -19q0 11 2 19h-17q-30 0 -49.5 20.5t-19.5 50.5t19.5 50t49.5 22q57 3 57 75v240h129v-225q0 -115 -41 -171q50 -26 50 -81q0 -38 -25 -64t-65 -26q-38 0 -64 26.5t-26 63.5zM174 535h-109v96h109v-96zM72 -19q0 -15 9 -25t24 -10t24.5 10t9.5 25q2 21 -16 29.5
t-35.5 0t-15.5 -29.5z" />
    <glyph glyph-name="uni06BC.medi" unicode="&#x6bc;" horiz-adv-x="266" 
d="M43 3q-13 -3 -43 -3t-49.5 19.5t-19.5 51.5q0 31 20 51.5t49 20.5q62 0 62 68v182h129v-172q0 -44 15 -61t60 -17v-143q-24 0 -43 3q0 -38 -25 -64t-65 -26q-38 0 -64 26.5t-26 63.5zM187 476h-109v96h109v-96zM100 3q0 -15 9 -25t24 -10t24.5 10t9.5 25q2 21 -16 29.5
t-35.5 0t-15.5 -29.5z" />
    <glyph glyph-name="uni06BC.fina" unicode="&#x6bc;" horiz-adv-x="544" 
d="M186 -228q0 14 5 31q-65 19 -100.5 69t-35.5 123v293h129v-262q0 -39 21.5 -66t64.5 -27q90 0 90 93v367h129v-250h55v-143h-55q-2 -69 -36.5 -119.5t-94.5 -72.5q8 -19 8 -36q0 -38 -25 -64t-65 -26q-38 0 -64 26.5t-26 63.5zM332 456h-109v96h109v-96zM310 -228
q0 12 -8 23q-30 -2 -33 -2q-15 0 -19 1q-7 -9 -7 -23t8 -23q15 -17 38.5 -7.5t20.5 31.5z" />
    <glyph glyph-name="uni06BD.init" unicode="&#x6bd;" horiz-adv-x="241" 
d="M57 218v240h129v-225q0 -94 -33 -157q-38 -76 -153 -76q-30 0 -49.5 20.5t-19.5 50.5t19.5 50t49.5 22q57 3 57 75zM232 -156h-101v96h101v-96zM170 -274h-99v96h99v-96zM109 -156h-101v96h101v-96z" />
    <glyph glyph-name="uni06BD.medi" unicode="&#x6bd;" horiz-adv-x="266" 
d="M62 211v182h129v-172q0 -44 15 -61t60 -17v-143q-99 0 -131 59q-45 -59 -135 -59q-30 0 -49.5 19.5t-19.5 51.5q0 31 20 51.5t49 20.5q62 0 62 68zM245 -156h-101v96h101v-96zM183 -274h-99v96h99v-96zM122 -156h-101v96h101v-96z" />
    <glyph glyph-name="uni06BD.fina" unicode="&#x6bd;" horiz-adv-x="544" 
d="M360 393h129v-250h55v-143h-55q-2 -92 -62 -149q-58 -58 -158 -58q-101 0 -157.5 54.5t-56.5 147.5v293h129v-262q0 -39 21.5 -66t64.5 -27q90 0 90 93v367zM390 456h-101v96h101v-96zM328 574h-99v96h99v-96zM267 456h-101v96h101v-96z" />
    <glyph glyph-name="uni06BE" unicode="&#x6be;" horiz-adv-x="850" arabic-form="isolated" 
d="M222 138l1 5q-32 32 -32 98q0 69 37 117.5t100 61.5l-16 35q116 65 240 65q106 0 174.5 -62.5t68.5 -202.5q0 -129 -67 -192q-66 -63 -169 -63h-509v143h85q60 0 87 -5zM549 142v-3q112 0 112 119q0 57 -27.5 89t-74.5 32q-21 0 -36 -4q51 -53 51 -139q0 -54 -25 -94z
M323 233q0 -31 20 -55.5t54 -30.5q41 27 41 82q0 32 -14.5 51.5t-41.5 19.5t-43 -19t-16 -48z" />
    <glyph glyph-name="uni06BF.init" unicode="&#x6bf;" horiz-adv-x="532" 
d="M507 142v-142h-507q-30 0 -49.5 19.5t-19.5 51.5q0 31 20 51.5t49 20.5h351l3 6q-23 14 -30 116q-6 77 -85 77q-59 0 -127 -36l-57 111q92 64 197 64q92 0 144.5 -49t59.5 -148q4 -75 15 -105q10 -29 36 -37zM378 -156h-101v96h101v-96zM316 -274h-99v96h99v-96z
M255 -156h-101v96h101v-96zM307 560h-109v96h109v-96z" />
    <glyph glyph-name="uni06BF.medi" unicode="&#x6bf;" horiz-adv-x="529" 
d="M250 481q187 0 204 -197q6 -76 19 -108.5t42 -32.5h14v-143h-529q-30 0 -49.5 19.5t-19.5 51.5q0 31 20 51.5t49 20.5h349l3 6q-23 14 -30 116q-6 77 -85 77q-60 0 -127 -36l-55 112q91 63 195 63zM376 -156h-101v96h101v-96zM314 -274h-99v96h99v-96zM253 -156h-101v96
h101v-96zM307 560h-109v96h109v-96z" />
    <glyph glyph-name="uni06BF.fina" unicode="&#x6bf;" horiz-adv-x="586" 
d="M298 143h108l3 6q-23 14 -30 116q-5 77 -85 77q-60 0 -127 -36l-55 112q92 63 195 63q187 0 204 -197q6 -76 19 -108.5t42 -32.5h14v-143h-312q-44 0 -66 -21.5t-22 -52.5q0 -72 101 -72q23 0 50 4l14 -127q-40 -8 -90 -8q-93 0 -149.5 50.5t-56.5 143.5q0 107 68 166
q67 60 175 60zM347 560h-109v96h109v-96zM458 -131v71h66v-71h-66zM376 -131v71h66v-71h-66zM417 -218v72h66v-72h-66z" />
    <glyph glyph-name="uni06C0" unicode="&#x6c0;" horiz-adv-x="558" arabic-form="isolated" 
d="M405 737l-29 -60q-31 18 -68 18q-20 0 -32 -10t-12 -26q0 -14 9.5 -23.5t25.5 -9.5h105v-66h-251v66h38l3 2q-6 14 -6 31q0 38 30 71q30 34 94 34q50 0 93 -27zM287 480q86 0 151 -77t65 -183q0 -109 -56 -167t-167 -58q-225 0 -225 218q0 106 68 186q67 81 164 81z
M284 339q-38 0 -64 -35t-26 -76q0 -91 90 -91q42 0 63 25.5t21 66.5q0 47 -27 78q-26 32 -57 32z" />
    <glyph glyph-name="uni06C1" unicode="&#x6c1;" horiz-adv-x="558" arabic-form="isolated" 
d="M287 480q86 0 151 -77t65 -183q0 -109 -56 -167t-167 -58q-225 0 -225 218q0 106 68 186q67 81 164 81zM284 339q-38 0 -64 -35t-26 -76q0 -91 90 -91q42 0 63 25.5t21 66.5q0 47 -27 78q-26 32 -57 32z" />
    <glyph glyph-name="uni06C2.fina" unicode="&#x6c2;" horiz-adv-x="542" 
d="M335 180v30q0 90 -76 90q-74 0 -74 -87q0 -70 82 -70h22v-143h-51q-183 0 -183 208q0 116 55 174.5t158 58.5q91 0 145 -55.5t54 -155.5q0 -39 10 -61q12 -26 65 -26v-143q-111 0 -159 41t-48 139zM387 692l-29 -60q-32 18 -68 18q-20 0 -32 -10t-12 -26q0 -14 9.5 -23.5
t25.5 -9.5h105v-66h-251v66h38l3 2q-6 13 -6 31q0 38 30 71q30 34 94 34q50 0 93 -27z" />
    <glyph glyph-name="uni06C3.fina" unicode="&#x6c3;" horiz-adv-x="542" 
d="M335 180v30q0 90 -76 90q-74 0 -74 -87q0 -70 82 -70h22v-143h-51q-183 0 -183 208q0 116 55 174.5t158 58.5q91 0 145 -55.5t54 -155.5q0 -39 10 -61q12 -26 65 -26v-143q-111 0 -159 41t-48 139zM242 515h-101v96h101v-96zM365 515h-101v96h101v-96z" />
    <glyph glyph-name="uni06C4.fina" unicode="&#x6c4;" horiz-adv-x="551" 
d="M96 -239v143h34q5 33 30.5 55.5t59.5 22.5q32 0 55.5 -18.5t31.5 -48.5q48 21 53 77l1 14h-86q-102 0 -161 59t-59 168q0 117 60.5 182.5t170.5 65.5q102 0 156 -62.5t54 -184.5v-91h55v-143h-55q-3 -114 -65 -176.5t-180 -62.5h-155zM283 338q-45 0 -72 -28.5t-27 -76.5
q0 -40 23.5 -65.5t62.5 -25.5h97v93q0 50 -22 76.5t-62 26.5zM189 -96h57h6q-7 22 -32 22q-24 0 -31 -22z" />
    <glyph glyph-name="uni06C5" unicode="&#x6c5;" horiz-adv-x="551" arabic-form="isolated" 
d="M95 -249v143h131q78 0 109 34h-184v44h204q2 24 2 28v21l-7 6q-36 -16 -78 -16q-102 0 -159.5 60t-57.5 165q0 114 61 179.5t169 65.5q100 0 155.5 -62.5t55.5 -179.5v-224q0 -264 -257 -264h-144zM280 338q-43 0 -69 -28t-26 -73q0 -40 24 -66t63 -26q42 0 68.5 25
t26.5 68q0 45 -24 72.5t-63 27.5z" />
    <glyph glyph-name="uni06C6" unicode="&#x6c6;" horiz-adv-x="551" arabic-form="isolated" 
d="M95 -239v143h131q72 0 101.5 26t29.5 80v11l-7 6q-36 -16 -78 -16q-102 0 -159.5 60t-57.5 165q0 114 61 179.5t169 65.5q100 0 155.5 -62.5t55.5 -179.5v-214q0 -264 -257 -264h-144zM280 338q-43 0 -69 -28t-26 -73q0 -40 24 -66t63 -26q42 0 68.5 25t26.5 68
q0 45 -24 72.5t-63 27.5zM304 560h-61l-97 184l56 27l71 -112l72 110l54 -25z" />
    <glyph glyph-name="uni06C7" unicode="&#x6c7;" horiz-adv-x="551" arabic-form="isolated" 
d="M95 -239v143h131q72 0 101.5 26t29.5 80v11l-7 6q-36 -16 -78 -16q-102 0 -159.5 60t-57.5 165q0 114 61 179.5t169 65.5q100 0 155.5 -62.5t55.5 -179.5v-214q0 -264 -257 -264h-144zM280 338q-43 0 -69 -28t-26 -73q0 -40 24 -66t63 -26q42 0 68.5 25t26.5 68
q0 45 -24 72.5t-63 27.5zM160 623l88 26v4q-13 16 -13 42q0 29 20 50t52 21q34 0 56.5 -22.5t22.5 -54.5q0 -29 -19 -53t-54 -33l-153 -41v61z" />
    <glyph glyph-name="uni06C8" unicode="&#x6c8;" horiz-adv-x="551" arabic-form="isolated" 
d="M95 -239v143h131q72 0 101.5 26t29.5 80v11l-7 6q-36 -16 -78 -16q-102 0 -159.5 60t-57.5 165q0 114 61 179.5t169 65.5q100 0 155.5 -62.5t55.5 -179.5v-214q0 -264 -257 -264h-144zM280 338q-43 0 -69 -28t-26 -73q0 -40 24 -66t63 -26q42 0 68.5 25t26.5 68
q0 45 -24 72.5t-63 27.5zM236 732h74v-172h-74v172z" />
    <glyph glyph-name="uni06C9" unicode="&#x6c9;" horiz-adv-x="551" arabic-form="isolated" 
d="M95 -239v143h131q72 0 101.5 26t29.5 80v11l-7 6q-36 -16 -78 -16q-102 0 -159.5 60t-57.5 165q0 114 61 179.5t169 65.5q100 0 155.5 -62.5t55.5 -179.5v-214q0 -264 -257 -264h-144zM280 338q-43 0 -69 -28t-26 -73q0 -40 24 -66t63 -26q42 0 68.5 25t26.5 68
q0 45 -24 72.5t-63 27.5zM201 560l-54 25l97 184h61l95 -184l-54 -25l-73 110z" />
    <glyph glyph-name="uni06CA.fina" unicode="&#x6ca;" horiz-adv-x="551" 
d="M96 -239v143h150q58 0 84.5 25t29.5 63l1 14h-86q-102 0 -161 59t-59 168q0 117 60.5 182.5t170.5 65.5q102 0 156 -62.5t54 -184.5v-91h55v-143h-55q-3 -114 -65 -176.5t-180 -62.5h-155zM283 338q-45 0 -72 -28.5t-27 -76.5q0 -40 23.5 -65.5t62.5 -25.5h97v93
q0 50 -22 76.5t-62 26.5zM262 560h-101v96h101v-96zM385 560h-101v96h101v-96z" />
    <glyph glyph-name="uni06CB" unicode="&#x6cb;" horiz-adv-x="551" arabic-form="isolated" 
d="M95 -239v143h131q72 0 101.5 26t29.5 80v11l-7 6q-36 -16 -78 -16q-102 0 -159.5 60t-57.5 165q0 114 61 179.5t169 65.5q100 0 155.5 -62.5t55.5 -179.5v-214q0 -264 -257 -264h-144zM280 338q-43 0 -69 -28t-26 -73q0 -40 24 -66t63 -26q42 0 68.5 25t26.5 68
q0 45 -24 72.5t-63 27.5zM385 560h-101v96h101v-96zM323 678h-99v96h99v-96zM262 560h-101v96h101v-96z" />
    <glyph glyph-name="uni06CC" unicode="&#x6cc;" horiz-adv-x="885" arabic-form="isolated" 
d="M55 358h129v-77q0 -71 28.5 -104.5t97.5 -33.5h166v154q0 89 48 136.5t132 47.5h174v-399h-129v255h-52q-44 0 -44 -57v-280h-289q-261 0 -261 252v106z" />
    <glyph glyph-name="uni06CD.fina" unicode="&#x6cd;" horiz-adv-x="1025" 
d="M1025 0h-188v337h-45q-44 0 -44 -57v-280h-292q-224 0 -256 183l-73 -60l-77 102l146 133h128v-77q0 -71 28.5 -104.5t97.5 -33.5h166v154q0 89 48 136.5t132 47.5h174v-338h55v-143z" />
    <glyph glyph-name="uni06CE.init" unicode="&#x6ce;" horiz-adv-x="241" 
d="M57 218v240h129v-225q0 -94 -33 -157q-38 -76 -153 -76q-30 0 -49.5 20.5t-19.5 50.5t19.5 50t49.5 22q57 3 57 75zM152 560h-61l-97 184l56 27l71 -112l72 110l54 -25zM109 -171h-101v96h101v-96zM232 -171h-101v96h101v-96z" />
    <glyph glyph-name="uni06CE.fina" unicode="&#x6ce;" horiz-adv-x="885" 
d="M55 358h129v-77q0 -71 28.5 -104.5t97.5 -33.5h166v154q0 89 48 136.5t132 47.5h174v-338h55v-143h-184v337h-52q-44 0 -44 -57v-280h-289q-261 0 -261 252v106zM213 437h-61l-97 184l56 27l71 -112l72 110l54 -25z" />
    <glyph glyph-name="uni06CF.fina" unicode="&#x6cf;" horiz-adv-x="551" 
d="M96 -239v143h150q58 0 84.5 25t29.5 63l1 14h-86q-102 0 -161 59t-59 168q0 117 60.5 182.5t170.5 65.5q102 0 156 -62.5t54 -184.5v-91h55v-143h-55q-3 -114 -65 -176.5t-180 -62.5h-155zM283 338q-45 0 -72 -28.5t-27 -76.5q0 -40 23.5 -65.5t62.5 -25.5h97v93
q0 50 -22 76.5t-62 26.5zM327 560h-109v96h109v-96z" />
    <glyph glyph-name="uni06D0" unicode="&#x6d0;" horiz-adv-x="885" arabic-form="isolated" 
d="M55 358h129v-77q0 -71 28.5 -104.5t97.5 -33.5h166v154q0 89 48 136.5t132 47.5h174v-399h-129v255h-52q-44 0 -44 -57v-280h-289q-261 0 -261 252v106zM463 -274h-99v96h99v-96zM463 -156h-99v96h99v-96z" />
    <glyph glyph-name="uni06D1.init" unicode="&#x6d1;" horiz-adv-x="241" 
d="M57 218v240h129v-225q0 -94 -33 -157q-38 -76 -153 -76q-30 0 -49.5 20.5t-19.5 50.5t19.5 50t49.5 22q57 3 57 75zM232 -156h-101v96h101v-96zM170 -274h-99v96h99v-96zM109 -156h-101v96h101v-96z" />
    <glyph glyph-name="uni06D1.medi" unicode="&#x6d1;" horiz-adv-x="266" 
d="M62 211v182h129v-172q0 -44 15 -61t60 -17v-143q-99 0 -131 59q-45 -59 -135 -59q-30 0 -49.5 19.5t-19.5 51.5q0 31 20 51.5t49 20.5q62 0 62 68zM245 -156h-101v96h101v-96zM183 -274h-99v96h99v-96zM122 -156h-101v96h101v-96z" />
    <glyph glyph-name="uni06D1.fina" unicode="&#x6d1;" horiz-adv-x="885" 
d="M55 358h129v-77q0 -71 28.5 -104.5t97.5 -33.5h166v154q0 89 48 136.5t132 47.5h174v-338h55v-143h-184v337h-52q-44 0 -44 -57v-280h-289q-261 0 -261 252v106zM525 -156h-101v96h101v-96zM463 -274h-99v96h99v-96zM402 -156h-101v96h101v-96z" />
    <glyph glyph-name="uni06D2" unicode="&#x6d2;" horiz-adv-x="819" arabic-form="isolated" 
d="M764 -73v-143h-709v180q0 89 47 134t133 45h97q22 0 30.5 15.5t8.5 48.5v68h128v-99q0 -85 -45 -130.5t-122 -45.5h-90q-26 0 -42 -16t-16 -40v-17h580z" />
    <glyph glyph-name="uni06D3" unicode="&#x6d3;" horiz-adv-x="819" arabic-form="isolated" 
d="M401 535l-29 -60q-32 18 -68 18q-20 0 -32 -10t-12 -26q0 -14 9.5 -23.5t25.5 -9.5h105v-66h-251v66h38l3 2q-6 14 -6 31q0 38 30 71q30 34 94 34q50 0 93 -27zM764 -73v-143h-709v180q0 89 47 134t133 45h97q22 0 30.5 15.5t8.5 48.5v68h128v-99q0 -85 -45 -130.5
t-122 -45.5h-90q-26 0 -42 -16t-16 -40v-17h580z" />
    <glyph glyph-name="uni06D5.fina" unicode="&#x6d5;" horiz-adv-x="552" 
d="M191 212q0 -44 52 -44q17 0 33 3.5t34.5 13t30 30.5t11.5 51v45q-50 -5 -84.5 -17t-49.5 -27.5t-21 -28.5t-6 -26zM239 29q-93 0 -138.5 43t-45.5 121q0 74 58 143q68 81 237 104v41h132v-273q0 -65 70 -65v-143h-18q-56 0 -97 24.5t-51 60.5q-26 -23 -71 -40
q-42 -16 -76 -16z" />
    <glyph glyph-name="uni06EE.fina" unicode="&#x6ee;" horiz-adv-x="521" 
d="M521 143v-143h-466v143h281v125q0 76 -87 76q-77 0 -120 -39l-69 109q76 66 201 66q96 0 151 -45.5t55 -135.5v-156h54zM181 560l-54 25l97 184h61l95 -184l-54 -25l-73 110z" />
    <glyph glyph-name="uni06EF.fina" unicode="&#x6ef;" horiz-adv-x="246" 
d="M-53 -207v141q115 1 115 87v372h129v-250h55v-143h-55q-3 -108 -60.5 -157t-183.5 -50zM51 476l-54 25l97 184h61l95 -184l-54 -25l-73 110z" />
    <glyph glyph-name="uni06FA.init" unicode="&#x6fa;" horiz-adv-x="805" 
d="M298 0h-298q-30 0 -49.5 19.5t-19.5 51.5q0 31 20 51.5t49 20.5h124v250h129v-250h45q60 0 60 77v173h129v-176q0 -41 19 -65t48 -24q61 0 61 82q0 52 -27 120q-26 68 -60 105l107 76q45 -53 79 -134q36 -83 36 -172q0 -92 -46 -156q-46 -63 -140 -63q-96 0 -145 63h-5
q-42 -49 -116 -49zM532 535h-101v96h101v-96zM470 653h-99v96h99v-96zM409 535h-101v96h101v-96zM469 -171h-109v96h109v-96z" />
    <glyph glyph-name="uni06FA.medi" unicode="&#x6fa;" horiz-adv-x="825" 
d="M298 0h-298q-30 0 -49.5 19.5t-19.5 51.5q0 31 20 51.5t49 20.5h124v250h129v-250h45q60 0 60 77v173h129v-176q0 -41 19 -65t48 -24q65 0 65 82q0 52 -27 120q-26 68 -60 105l107 76q41 -49 76 -130q35 -82 35 -160q0 -34 18 -56t57 -22v-143q-85 0 -123 51h-4
q-41 -65 -134 -65q-96 0 -145 63h-5q-42 -49 -116 -49zM532 535h-101v96h101v-96zM470 653h-99v96h99v-96zM409 535h-101v96h101v-96zM469 -171h-109v96h109v-96z" />
    <glyph glyph-name="uni06FA.fina" unicode="&#x6fa;" horiz-adv-x="1034" 
d="M741 435l107 76q41 -49 76 -130q35 -82 35 -160q0 -34 18 -56t57 -22v-143q-86 0 -123 51h-4q-41 -65 -134 -65q-95 0 -145 63h-5q-42 -49 -116 -49h-32v-8q0 -93 -63 -146q-64 -53 -148 -53q-94 0 -151.5 50.5t-57.5 137.5v307h129v-277q0 -32 22.5 -55t58.5 -23
q35 0 58 23t23 55v382h129v-250h32q60 0 60 77v173h129v-176q0 -41 19 -65t48 -24q65 0 65 82q0 52 -27 120q-25 68 -60 105zM735 535h-101v96h101v-96zM673 653h-99v96h99v-96zM612 535h-101v96h101v-96zM682 -171h-109v96h109v-96z" />
    <glyph glyph-name="uni06FB.init" unicode="&#x6fb;" horiz-adv-x="671" 
d="M616 0h-616q-30 0 -49.5 19.5t-19.5 51.5q0 31 20 51.5t49 20.5h55v329h128v-74h8q98 83 217 83q91 0 149 -49q59 -48 59 -134v-298zM183 159v-16h302v90q0 47 -27 75t-79 28q-86 0 -141 -55q-55 -54 -55 -122zM424 -171h-109v96h109v-96zM424 560h-109v96h109v-96z" />
    <glyph glyph-name="uni06FB.medi" unicode="&#x6fb;" horiz-adv-x="671" 
d="M671 0h-671q-30 0 -49.5 19.5t-19.5 51.5q0 31 20 51.5t49 20.5h55v329h128v-74h8q98 83 217 83q91 0 149 -49q59 -48 59 -134v-155h55v-143zM183 159v-16h302v90q0 47 -27 75t-79 28q-86 0 -141 -55q-55 -54 -55 -122zM424 -171h-109v96h109v-96zM424 560h-109v96h109
v-96z" />
    <glyph glyph-name="uni06FB.fina" unicode="&#x6fb;" horiz-adv-x="975" 
d="M975 0h-487v-7q0 -89 -61 -144q-62 -56 -158 -56q-101 0 -157.5 54t-56.5 146v295h129v-267q0 -88 86 -88q43 0 66 25t23 63v451h128v-74h8q98 83 217 83q91 0 149 -49q59 -48 59 -134v-155h55v-143zM487 159v-16h302v90q0 47 -27 75t-79 28q-86 0 -141 -55
q-55 -54 -55 -122zM741 -171h-109v96h109v-96zM741 560h-109v96h109v-96z" />
    <glyph glyph-name="uni06FC.init" unicode="&#x6fc;" horiz-adv-x="564" 
d="M201 232q0 -38 28 -63.5t78 -25.5h184v-143h-491q-30 0 -49.5 19.5t-19.5 51.5q0 31 20 51.5t49 20.5h72l4 6q-21 25 -21 87q0 66 21.5 115.5t57.5 76.5t75.5 40t82.5 13q119 0 217 -71l-68 -124q-68 46 -135 46q-46 0 -75.5 -25t-29.5 -75zM336 -171h-109v96h109v-96z
M336 560h-109v96h109v-96z" />
    <glyph glyph-name="uni06FC.medi" unicode="&#x6fc;" horiz-adv-x="582" 
d="M-69 71q0 30 20.5 51t48.5 21h36q62 0 80 9q-61 51 -61 140q0 87 68 138q69 51 175 51q58 0 108 -18q53 -19 87 -62.5t34 -103.5q0 -40 -18 -79.5t-48 -63.5q28 -11 88 -11h33v-143h-43q-77 0 -145 15q-67 15 -101 44q-42 -29 -112 -44q-71 -15 -135 -15h-46
q-29 0 -49 20t-20 51zM296 348q-56 0 -81.5 -21t-25.5 -51q0 -31 25 -59t80 -45q49 14 75 44t26 64q0 10 -3 19t-12 21.5t-30.5 20t-53.5 7.5zM345 -171h-109v96h109v-96zM345 560h-109v96h109v-96z" />
    <glyph glyph-name="uni06FC.fina" unicode="&#x6fc;" horiz-adv-x="627" 
d="M55 -81q0 60 34.5 115.5t91.5 86.5q-88 69 -88 167q0 50 20 88.5t54.5 60.5t75 33t85.5 11q96 0 170 -47t74 -131q0 -44 -27 -86t-70 -63q30 -11 94 -11h58v-143h-58q-81 0 -161 15q-83 17 -121 41q-42 -20 -71 -54t-29 -70q0 -78 125 -78q28 0 35 1l14 -127
q-34 -6 -70 -6q-102 0 -169 49q-67 48 -67 148zM231 288q0 -26 26 -52.5t78 -45.5q48 12 73 35t25 51q0 33 -32 53.5t-76 20.5q-41 0 -67.5 -16.5t-26.5 -45.5zM367 563h-109v96h109v-96zM508 -171h-109v96h109v-96z" />
    <glyph glyph-name="uni06FF.init" unicode="&#x6ff;" horiz-adv-x="714" 
d="M423 0h-423q-31 0 -50 19.5t-19 51.5q0 31 20 51.5t49 20.5h14q45 0 72 -5l1 5q-32 32 -32 98q0 69 37 117.5t100 61.5l-16 35q116 65 240 65q106 0 174.5 -62.5t68.5 -202.5q0 -129 -67 -192q-66 -63 -169 -63zM413 142v-3q112 0 112 119q0 57 -27.5 89t-74.5 32
q-21 0 -36 -4q51 -53 51 -139q0 -54 -25 -94zM187 233q0 -31 20 -55.5t54 -30.5q41 27 41 82q0 32 -14.5 51.5t-41.5 19.5t-43 -19t-16 -48zM285 560l-54 25l97 184h61l95 -184l-54 -25l-73 110z" />
    <glyph glyph-name="uni06FF.medi" unicode="&#x6ff;" horiz-adv-x="735" 
d="M735 143v-143q-60 0 -96.5 12t-61.5 46q-58 -58 -154 -58h-423q-31 0 -50 19.5t-19 51.5q0 31 20 51.5t49 20.5h24q35 0 62 -5l1 5q-32 32 -32 98q0 69 37 117.5t100 61.5l-16 35q116 65 240 65q50 0 91.5 -13.5t77 -43t55.5 -83.5t20 -128q0 -58 16.5 -83.5t58.5 -25.5z
M413 142v-3q112 0 112 119q0 57 -27.5 89t-74.5 32q-21 0 -36 -4q51 -53 51 -139q0 -54 -25 -94zM187 233q0 -31 20 -55.5t54 -30.5q41 27 41 82q0 32 -14.5 51.5t-41.5 19.5t-43 -19t-16 -48zM295 560l-54 25l97 184h61l95 -184l-54 -25l-73 110z" />
    <glyph glyph-name="uni06FF.fina" unicode="&#x6ff;" horiz-adv-x="871" 
d="M552 0h-502v143h96q42 0 69 -5l1 5q-32 32 -32 98q0 69 37 117.5t100 61.5l-16 35q116 65 240 65q50 0 91.5 -13.5t77 -43t55.5 -83.5t20 -128q0 -58 16.5 -83.5t58.5 -25.5v-143q-60 0 -96.5 12t-61.5 46q-58 -58 -154 -58zM542 142v-3q112 0 112 119q0 57 -27.5 89
t-74.5 32q-21 0 -36 -4q51 -53 51 -139q0 -54 -25 -94zM316 233q0 -31 20 -55.5t54 -30.5q41 27 41 82q0 32 -14.5 51.5t-41.5 19.5t-43 -19t-16 -48zM448 560l-54 25l97 184h61l95 -184l-54 -25l-73 110z" />
    <glyph glyph-name="uni0671.fina" unicode="&#x671;" horiz-adv-x="249" arabic-form="final" 
d="M249 143v-143h-41q-153 0 -153 147v529h129v-483q0 -29 10.5 -39.5t34.5 -10.5h20zM288 853v-103h-226q-41 0 -59 29l-38 -37h-4v79l46 46h8q5 -23 17 -38t26 -15h12v111h68v-26h2q25 25 69 25q34 0 56.5 -18.5t22.5 -52.5zM137 813h86v12q0 40 -32 40q-23 0 -38.5 -15.5
t-15.5 -35.5v-1z" />
    <glyph glyph-name="uni067B.fina" unicode="&#x67b;" horiz-adv-x="800" arabic-form="final" 
d="M596 205v188h129v-172q0 -43 15.5 -60.5t59.5 -17.5v-143q-102 0 -131 59q-25 -35 -53.5 -47t-71.5 -12h-228q-261 0 -261 252v106h129v-77q0 -71 28.5 -104.5t97.5 -33.5h232q54 0 54 62zM460 -274h-99v96h99v-96zM460 -156h-99v96h99v-96z" />
    <glyph glyph-name="uni067B.init" unicode="&#x67b;" horiz-adv-x="241" arabic-form="initial" 
d="M57 218v240h129v-225q0 -94 -33 -157q-38 -76 -153 -76q-30 0 -49.5 20.5t-19.5 50.5t19.5 50t49.5 22q57 3 57 75zM148 -274h-99v96h99v-96zM148 -156h-99v96h99v-96z" />
    <glyph glyph-name="uni067B.medi" unicode="&#x67b;" horiz-adv-x="266" arabic-form="medial" 
d="M62 211v182h129v-172q0 -44 15 -61t60 -17v-143q-99 0 -131 59q-45 -59 -135 -59q-30 0 -49.5 19.5t-19.5 51.5q0 31 20 51.5t49 20.5q62 0 62 68zM183 -274h-99v96h99v-96zM183 -156h-99v96h99v-96z" />
    <glyph glyph-name="uni067E.fina" unicode="&#x67e;" horiz-adv-x="800" arabic-form="final" 
d="M596 205v188h129v-172q0 -43 15.5 -60.5t59.5 -17.5v-143q-102 0 -131 59q-25 -35 -53.5 -47t-71.5 -12h-228q-261 0 -261 252v106h129v-77q0 -71 28.5 -104.5t97.5 -33.5h232q54 0 54 62zM522 -156h-101v96h101v-96zM460 -274h-99v96h99v-96zM399 -156h-101v96h101v-96z
" />
    <glyph glyph-name="uni067E.init" unicode="&#x67e;" horiz-adv-x="241" arabic-form="initial" 
d="M57 218v240h129v-225q0 -94 -33 -157q-38 -76 -153 -76q-30 0 -49.5 20.5t-19.5 50.5t19.5 50t49.5 22q57 3 57 75zM232 -156h-101v96h101v-96zM170 -274h-99v96h99v-96zM109 -156h-101v96h101v-96z" />
    <glyph glyph-name="uni067E.medi" unicode="&#x67e;" horiz-adv-x="266" arabic-form="medial" 
d="M62 211v182h129v-172q0 -44 15 -61t60 -17v-143q-99 0 -131 59q-45 -59 -135 -59q-30 0 -49.5 19.5t-19.5 51.5q0 31 20 51.5t49 20.5q62 0 62 68zM245 -156h-101v96h101v-96zM183 -274h-99v96h99v-96zM122 -156h-101v96h101v-96z" />
    <glyph glyph-name="uni0680.fina" unicode="&#x680;" horiz-adv-x="800" arabic-form="final" 
d="M596 205v188h129v-172q0 -43 15.5 -60.5t59.5 -17.5v-143q-102 0 -131 59q-25 -35 -53.5 -47t-71.5 -12h-228q-261 0 -261 252v106h129v-77q0 -71 28.5 -104.5t97.5 -33.5h232q54 0 54 62zM522 -274h-101v96h101v-96zM399 -274h-101v96h101v-96zM522 -156h-101v96h101
v-96zM399 -156h-101v96h101v-96z" />
    <glyph glyph-name="uni0680.init" unicode="&#x680;" horiz-adv-x="241" arabic-form="initial" 
d="M232 -274h-101v96h101v-96zM109 -274h-101v96h101v-96zM232 -156h-101v96h101v-96zM109 -156h-101v96h101v-96zM57 218v240h129v-225q0 -94 -33 -157q-38 -76 -153 -76q-30 0 -49.5 20.5t-19.5 50.5t19.5 50t49.5 22q57 3 57 75z" />
    <glyph glyph-name="uni0680.medi" unicode="&#x680;" horiz-adv-x="266" arabic-form="medial" 
d="M62 211v182h129v-172q0 -44 15 -61t60 -17v-143q-99 0 -131 59q-45 -59 -135 -59q-30 0 -49.5 19.5t-19.5 51.5q0 31 20 51.5t49 20.5q62 0 62 68zM245 -274h-101v96h101v-96zM122 -274h-101v96h101v-96zM245 -156h-101v96h101v-96zM122 -156h-101v96h101v-96z" />
    <glyph glyph-name="uni067A.fina" unicode="&#x67a;" horiz-adv-x="800" arabic-form="final" 
d="M596 205v188h129v-172q0 -43 15.5 -60.5t59.5 -17.5v-143q-102 0 -131 59q-25 -35 -53.5 -47t-71.5 -12h-228q-261 0 -261 252v106h129v-77q0 -71 28.5 -104.5t97.5 -33.5h232q54 0 54 62zM460 456h-99v96h99v-96zM460 574h-99v96h99v-96z" />
    <glyph glyph-name="uni067A.init" unicode="&#x67a;" horiz-adv-x="241" arabic-form="initial" 
d="M57 218v240h129v-225q0 -94 -33 -157q-38 -76 -153 -76q-30 0 -49.5 20.5t-19.5 50.5t19.5 50t49.5 22q57 3 57 75zM170 535h-99v96h99v-96zM170 653h-99v96h99v-96z" />
    <glyph glyph-name="uni067A.medi" unicode="&#x67a;" horiz-adv-x="266" arabic-form="medial" 
d="M62 211v182h129v-172q0 -44 15 -61t60 -17v-143q-99 0 -131 59q-45 -59 -135 -59q-30 0 -49.5 19.5t-19.5 51.5q0 31 20 51.5t49 20.5q62 0 62 68zM183 476h-99v96h99v-96zM183 594h-99v96h99v-96z" />
    <glyph glyph-name="uni067F.fina" unicode="&#x67f;" horiz-adv-x="800" arabic-form="final" 
d="M596 205v188h129v-172q0 -43 15.5 -60.5t59.5 -17.5v-143q-102 0 -131 59q-25 -35 -53.5 -47t-71.5 -12h-228q-261 0 -261 252v106h129v-77q0 -71 28.5 -104.5t97.5 -33.5h232q54 0 54 62zM522 456h-101v96h101v-96zM399 456h-101v96h101v-96zM522 574h-101v96h101v-96z
M399 574h-101v96h101v-96z" />
    <glyph glyph-name="uni067F.init" unicode="&#x67f;" horiz-adv-x="241" arabic-form="initial" 
d="M232 536h-101v96h101v-96zM109 536h-101v96h101v-96zM232 654h-101v96h101v-96zM109 654h-101v96h101v-96zM57 218v240h129v-225q0 -94 -33 -157q-38 -76 -153 -76q-30 0 -49.5 20.5t-19.5 50.5t19.5 50t49.5 22q57 3 57 75z" />
    <glyph glyph-name="uni067F.medi" unicode="&#x67f;" horiz-adv-x="266" arabic-form="medial" 
d="M62 211v182h129v-172q0 -44 15 -61t60 -17v-143q-99 0 -131 59q-45 -59 -135 -59q-30 0 -49.5 19.5t-19.5 51.5q0 31 20 51.5t49 20.5q62 0 62 68zM245 476h-101v96h101v-96zM122 476h-101v96h101v-96zM245 594h-101v96h101v-96zM122 594h-101v96h101v-96z" />
    <glyph glyph-name="uni0679.fina" unicode="&#x679;" horiz-adv-x="800" arabic-form="final" 
d="M596 205v188h129v-172q0 -43 15.5 -60.5t59.5 -17.5v-143q-102 0 -131 59q-25 -35 -53.5 -47t-71.5 -12h-228q-261 0 -261 252v106h129v-77q0 -71 28.5 -104.5t97.5 -33.5h232q54 0 54 62zM374 520h94v15q0 40 -34 40q-24 0 -42 -16.5t-18 -37.5v-1zM535 563v-107h-269
v66h39v137h70v-48h2q30 27 77 27q35 0 58 -20t23 -55z" />
    <glyph glyph-name="uni0679.init" unicode="&#x679;" horiz-adv-x="241" arabic-form="initial" 
d="M57 218v240h129v-225q0 -94 -33 -157q-38 -76 -153 -76q-30 0 -49.5 20.5t-19.5 50.5t19.5 50t49.5 22q57 3 57 75zM94 599h94v15q0 40 -34 40q-24 0 -42 -16.5t-18 -37.5v-1zM255 642v-107h-269v66h39v137h70v-48h2q30 27 77 27q35 0 58 -20t23 -55z" />
    <glyph glyph-name="uni0679.medi" unicode="&#x679;" horiz-adv-x="266" arabic-form="medial" 
d="M62 211v182h129v-172q0 -44 15 -61t60 -17v-143q-99 0 -131 59q-45 -59 -135 -59q-30 0 -49.5 19.5t-19.5 51.5q0 31 20 51.5t49 20.5q62 0 62 68zM107 540h94v15q0 40 -34 40q-24 0 -42 -16.5t-18 -37.5v-1zM268 583v-107h-269v66h39v137h70v-48h2q30 27 77 27
q35 0 58 -20t23 -55z" />
    <glyph glyph-name="uni06A4.fina" unicode="&#x6a4;" horiz-adv-x="871" arabic-form="final" 
d="M184 358v-77q0 -74 27 -106t99 -32h29q56 0 75 -4l2 6q-38 41 -38 124q0 90 59 151q58 61 158 61q106 0 163.5 -59t57.5 -162q0 -25 -9 -58t-23 -52l1 -7h86v-143h-555q-261 0 -261 252v106h129zM510 248q0 -38 30.5 -69t79.5 -37q64 34 64 109q0 40 -22.5 65t-62.5 25
q-42 0 -65.5 -27t-23.5 -66zM705 560h-101v96h101v-96zM643 678h-99v96h99v-96zM582 560h-101v96h101v-96z" />
    <glyph glyph-name="uni06A4.init" unicode="&#x6a4;" horiz-adv-x="548" arabic-form="initial" 
d="M0 143h31q39 0 58 -4l2 6q-36 43 -36 112q0 101 58 162q59 62 159 62q107 0 164 -62t57 -176q0 -113 -71 -178t-181 -65h-241q-30 0 -49.5 19.5t-19.5 51.5q0 31 20 51.5t49 20.5zM187 248q0 -38 31.5 -70t78.5 -38q64 36 64 111q0 40 -22.5 65t-62.5 25q-42 0 -65.5 -27
t-23.5 -66zM392 560h-101v96h101v-96zM330 678h-99v96h99v-96zM269 560h-101v96h101v-96z" />
    <glyph glyph-name="uni06A4.medi" unicode="&#x6a4;" horiz-adv-x="548" arabic-form="medial" 
d="M461 150l1 -7h86v-143h-548q-30 0 -49.5 19.5t-19.5 51.5q0 31 20 51.5t49 20.5h16q56 0 75 -4l2 6q-38 41 -38 124q0 90 59 151q58 61 158 61q106 0 163.5 -59t57.5 -162q0 -25 -9 -58t-23 -52zM187 248q0 -38 30.5 -69t79.5 -37q64 34 64 109q0 40 -22.5 65t-62.5 25
q-42 0 -65.5 -27t-23.5 -66zM392 560h-101v96h101v-96zM330 678h-99v96h99v-96zM269 560h-101v96h101v-96z" />
    <glyph glyph-name="uni06A6.fina" unicode="&#x6a6;" horiz-adv-x="871" arabic-form="final" 
d="M184 358v-77q0 -74 27 -106t99 -32h29q56 0 75 -4l2 6q-38 41 -38 124q0 90 59 151q58 61 158 61q106 0 163.5 -59t57.5 -162q0 -25 -9 -58t-23 -52l1 -7h86v-143h-555q-261 0 -261 252v106h129zM510 248q0 -38 30.5 -69t79.5 -37q64 34 64 109q0 40 -22.5 65t-62.5 25
q-42 0 -65.5 -27t-23.5 -66zM705 560h-101v96h101v-96zM582 560h-101v96h101v-96zM705 678h-101v96h101v-96zM582 678h-101v96h101v-96z" />
    <glyph glyph-name="uni06A6.init" unicode="&#x6a6;" horiz-adv-x="548" arabic-form="initial" 
d="M0 143h31q39 0 58 -4l2 6q-36 43 -36 112q0 101 58 162q59 62 159 62q107 0 164 -62t57 -176q0 -113 -71 -178t-181 -65h-241q-30 0 -49.5 19.5t-19.5 51.5q0 31 20 51.5t49 20.5zM187 248q0 -38 31.5 -70t78.5 -38q64 36 64 111q0 40 -22.5 65t-62.5 25q-42 0 -65.5 -27
t-23.5 -66zM392 560h-101v96h101v-96zM269 560h-101v96h101v-96zM392 678h-101v96h101v-96zM269 678h-101v96h101v-96z" />
    <glyph glyph-name="uni06A6.medi" unicode="&#x6a6;" horiz-adv-x="548" arabic-form="medial" 
d="M461 150l1 -7h86v-143h-548q-30 0 -49.5 19.5t-19.5 51.5q0 31 20 51.5t49 20.5h16q56 0 75 -4l2 6q-38 41 -38 124q0 90 59 151q58 61 158 61q106 0 163.5 -59t57.5 -162q0 -25 -9 -58t-23 -52zM187 248q0 -38 30.5 -69t79.5 -37q64 34 64 109q0 40 -22.5 65t-62.5 25
q-42 0 -65.5 -27t-23.5 -66zM392 560h-101v96h101v-96zM269 560h-101v96h101v-96zM392 678h-101v96h101v-96zM269 678h-101v96h101v-96z" />
    <glyph glyph-name="uni0684.fina" unicode="&#x684;" horiz-adv-x="586" arabic-form="final" 
d="M298 143h108l3 6q-23 14 -30 116q-5 77 -85 77q-60 0 -127 -36l-55 112q92 63 195 63q187 0 204 -197q6 -76 19 -108.5t42 -32.5h14v-143h-312q-44 0 -66 -21.5t-22 -52.5q0 -72 101 -72q23 0 50 4l14 -127q-40 -8 -90 -8q-93 0 -149.5 50.5t-56.5 143.5q0 107 68 166
q67 60 175 60zM477 -153v-71h-66v71h66zM477 -66v-72h-66v72h66z" />
    <glyph glyph-name="uni0684.init" unicode="&#x684;" horiz-adv-x="532" arabic-form="initial" 
d="M507 142v-142h-507q-30 0 -49.5 19.5t-19.5 51.5q0 31 20 51.5t49 20.5h351l3 6q-23 14 -30 116q-6 77 -85 77q-59 0 -127 -36l-57 111q92 64 197 64q92 0 144.5 -49t59.5 -148q4 -75 15 -105q10 -29 36 -37zM280 -274h-99v96h99v-96zM280 -156h-99v96h99v-96z" />
    <glyph glyph-name="uni0684.medi" unicode="&#x684;" horiz-adv-x="529" arabic-form="medial" 
d="M250 481q187 0 204 -197q6 -76 19 -108.5t42 -32.5h14v-143h-529q-30 0 -49.5 19.5t-19.5 51.5q0 31 20 51.5t49 20.5h349l3 6q-23 14 -30 116q-6 77 -85 77q-60 0 -127 -36l-55 112q91 63 195 63zM280 -274h-99v96h99v-96zM280 -156h-99v96h99v-96z" />
    <glyph glyph-name="uni0683.fina" unicode="&#x683;" horiz-adv-x="586" arabic-form="final" 
d="M298 143h108l3 6q-23 14 -30 116q-5 77 -85 77q-60 0 -127 -36l-55 112q92 63 195 63q187 0 204 -197q6 -76 19 -108.5t42 -32.5h14v-143h-312q-44 0 -66 -21.5t-22 -52.5q0 -72 101 -72q23 0 50 4l14 -127q-40 -8 -90 -8q-93 0 -149.5 50.5t-56.5 143.5q0 107 68 166
q67 60 175 60zM533 -62v-71h-66v71h66zM451 -62v-71h-66v71h66z" />
    <glyph glyph-name="uni0683.init" unicode="&#x683;" horiz-adv-x="532" arabic-form="initial" 
d="M507 142v-142h-507q-30 0 -49.5 19.5t-19.5 51.5q0 31 20 51.5t49 20.5h351l3 6q-23 14 -30 116q-6 77 -85 77q-59 0 -127 -36l-57 111q92 64 197 64q92 0 144.5 -49t59.5 -148q4 -75 15 -105q10 -29 36 -37zM239 -156h-101v96h101v-96zM362 -156h-101v96h101v-96z" />
    <glyph glyph-name="uni0683.medi" unicode="&#x683;" horiz-adv-x="529" arabic-form="medial" 
d="M250 481q187 0 204 -197q6 -76 19 -108.5t42 -32.5h14v-143h-529q-30 0 -49.5 19.5t-19.5 51.5q0 31 20 51.5t49 20.5h349l3 6q-23 14 -30 116q-6 77 -85 77q-60 0 -127 -36l-55 112q91 63 195 63zM239 -156h-101v96h101v-96zM362 -156h-101v96h101v-96z" />
    <glyph glyph-name="uni0686.fina" unicode="&#x686;" horiz-adv-x="586" arabic-form="final" 
d="M298 143h108l3 6q-23 14 -30 116q-5 77 -85 77q-60 0 -127 -36l-55 112q92 63 195 63q187 0 204 -197q6 -76 19 -108.5t42 -32.5h14v-143h-312q-44 0 -66 -21.5t-22 -52.5q0 -72 101 -72q23 0 50 4l14 -127q-40 -8 -90 -8q-93 0 -149.5 50.5t-56.5 143.5q0 107 68 166
q67 60 175 60zM458 -131v71h66v-71h-66zM376 -131v71h66v-71h-66zM417 -218v72h66v-72h-66z" />
    <glyph glyph-name="uni0686.init" unicode="&#x686;" horiz-adv-x="532" arabic-form="initial" 
d="M507 142v-142h-507q-30 0 -49.5 19.5t-19.5 51.5q0 31 20 51.5t49 20.5h351l3 6q-23 14 -30 116q-6 77 -85 77q-59 0 -127 -36l-57 111q92 64 197 64q92 0 144.5 -49t59.5 -148q4 -75 15 -105q10 -29 36 -37zM378 -156h-101v96h101v-96zM316 -274h-99v96h99v-96z
M255 -156h-101v96h101v-96z" />
    <glyph glyph-name="uni0686.medi" unicode="&#x686;" horiz-adv-x="529" arabic-form="medial" 
d="M250 481q187 0 204 -197q6 -76 19 -108.5t42 -32.5h14v-143h-529q-30 0 -49.5 19.5t-19.5 51.5q0 31 20 51.5t49 20.5h349l3 6q-23 14 -30 116q-6 77 -85 77q-60 0 -127 -36l-55 112q91 63 195 63zM376 -156h-101v96h101v-96zM314 -274h-99v96h99v-96zM253 -156h-101v96
h101v-96z" />
    <glyph glyph-name="uni0687.fina" unicode="&#x687;" horiz-adv-x="586" arabic-form="final" 
d="M298 143h108l3 6q-23 14 -30 116q-5 77 -85 77q-60 0 -127 -36l-55 112q92 63 195 63q187 0 204 -197q6 -76 19 -108.5t42 -32.5h14v-143h-312q-44 0 -66 -21.5t-22 -52.5q0 -72 101 -72q23 0 50 4l14 -127q-40 -8 -90 -8q-93 0 -149.5 50.5t-56.5 143.5q0 107 68 166
q67 60 175 60zM538 -153v-71h-66v71h66zM456 -153v-71h-66v71h66zM538 -66v-72h-66v72h66zM456 -66v-72h-66v72h66z" />
    <glyph glyph-name="uni0687.init" unicode="&#x687;" horiz-adv-x="532" arabic-form="initial" 
d="M507 142v-142h-507q-30 0 -49.5 19.5t-19.5 51.5q0 31 20 51.5t49 20.5h351l3 6q-23 14 -30 116q-6 77 -85 77q-59 0 -127 -36l-57 111q92 64 197 64q92 0 144.5 -49t59.5 -148q4 -75 15 -105q10 -29 36 -37zM378 -274h-101v96h101v-96zM255 -274h-101v96h101v-96z
M378 -156h-101v96h101v-96zM255 -156h-101v96h101v-96z" />
    <glyph glyph-name="uni0687.medi" unicode="&#x687;" horiz-adv-x="529" arabic-form="medial" 
d="M250 481q187 0 204 -197q6 -76 19 -108.5t42 -32.5h14v-143h-529q-30 0 -49.5 19.5t-19.5 51.5q0 31 20 51.5t49 20.5h349l3 6q-23 14 -30 116q-6 77 -85 77q-60 0 -127 -36l-55 112q91 63 195 63zM376 -274h-101v96h101v-96zM253 -274h-101v96h101v-96zM376 -156h-101
v96h101v-96zM253 -156h-101v96h101v-96z" />
    <glyph glyph-name="uni068D.fina" unicode="&#x68d;" horiz-adv-x="521" arabic-form="final" 
d="M521 143v-143h-466v143h281v125q0 76 -87 76q-77 0 -120 -39l-69 109q76 66 201 66q96 0 151 -45.5t55 -135.5v-156h54zM242 -171h-101v96h101v-96zM365 -171h-101v96h101v-96z" />
    <glyph glyph-name="uni068C.fina" unicode="&#x68c;" horiz-adv-x="521" arabic-form="final" 
d="M521 143v-143h-466v143h281v125q0 76 -87 76q-77 0 -120 -39l-69 109q76 66 201 66q96 0 151 -45.5t55 -135.5v-156h54zM242 560h-101v96h101v-96zM365 560h-101v96h101v-96z" />
    <glyph glyph-name="uni068E.fina" unicode="&#x68e;" horiz-adv-x="521" arabic-form="final" 
d="M521 143v-143h-466v143h281v125q0 76 -87 76q-77 0 -120 -39l-69 109q76 66 201 66q96 0 151 -45.5t55 -135.5v-156h54zM365 560h-101v96h101v-96zM303 678h-99v96h99v-96zM242 560h-101v96h101v-96z" />
    <glyph glyph-name="uni0688.fina" unicode="&#x688;" horiz-adv-x="521" arabic-form="final" 
d="M521 143v-143h-466v143h281v125q0 76 -87 76q-77 0 -120 -39l-69 109q76 66 201 66q96 0 151 -45.5t55 -135.5v-156h54zM227 624h94v15q0 40 -34 40q-24 0 -42 -16.5t-18 -37.5v-1zM388 667v-107h-269v66h39v137h70v-48h2q30 27 77 27q35 0 58 -20t23 -55z" />
    <glyph glyph-name="uni0698.fina" unicode="&#x698;" horiz-adv-x="246" arabic-form="final" 
d="M-53 -207v141q115 1 115 87v372h129v-250h55v-143h-55q-3 -108 -60.5 -157t-183.5 -50zM235 476h-101v96h101v-96zM173 594h-99v96h99v-96zM112 476h-101v96h101v-96z" />
    <glyph glyph-name="uni06A9.fina" unicode="&#x6a9;" horiz-adv-x="836" arabic-form="final" 
d="M310 143h331v41q0 61 -37 83l-239 139v88l400 252l62 -95l-301 -187l153 -87q66 -37 79 -90q12 -39 12 -98v-46h66v-143h-520q-261 0 -261 252v100h129v-71q0 -71 28.5 -104.5t97.5 -33.5z" />
    <glyph glyph-name="uni06A9.init" unicode="&#x6a9;" horiz-adv-x="526" arabic-form="initial" 
d="M-72 72q0 31 20.5 51t51.5 20h331v41q0 61 -37 83l-239 139v88l400 252l62 -95l-301 -187l153 -87q66 -37 79 -90q12 -39 12 -98v-189h-462q-31 0 -50.5 19.5t-19.5 52.5z" />
    <glyph glyph-name="uni06A9.medi" unicode="&#x6a9;" horiz-adv-x="526" arabic-form="medial" 
d="M-72 72q0 31 20.5 51t51.5 20h331v41q0 61 -37 83l-239 139v88l400 252l62 -95l-301 -187l153 -87q66 -37 79 -90q12 -39 12 -98v-46h66v-143h-528q-31 0 -50.5 19.5t-19.5 52.5z" />
    <glyph glyph-name="uni06AF.fina" unicode="&#x6af;" horiz-adv-x="836" arabic-form="final" 
d="M310 143h331v41q0 61 -37 83l-239 139v88l400 252l62 -95l-301 -187l153 -87q66 -37 79 -90q12 -39 12 -98v-46h66v-143h-520q-261 0 -261 252v100h129v-71q0 -71 28.5 -104.5t97.5 -33.5zM308 613l396 248l35 -58l-394 -248z" />
    <glyph glyph-name="uni06AF.init" unicode="&#x6af;" horiz-adv-x="526" arabic-form="initial" 
d="M-72 72q0 31 20.5 51t51.5 20h331v41q0 61 -37 83l-239 139v88l400 252l62 -95l-301 -187l153 -87q66 -37 79 -90q12 -39 12 -98v-189h-462q-31 0 -50.5 19.5t-19.5 52.5zM2 613l396 248l35 -58l-394 -248z" />
    <glyph glyph-name="uni06AF.medi" unicode="&#x6af;" horiz-adv-x="526" arabic-form="medial" 
d="M-72 72q0 31 20.5 51t51.5 20h331v41q0 61 -37 83l-239 139v88l400 252l62 -95l-301 -187l153 -87q66 -37 79 -90q12 -39 12 -98v-46h66v-143h-528q-31 0 -50.5 19.5t-19.5 52.5zM2 613l396 248l35 -58l-394 -248z" />
    <glyph glyph-name="uni06B3.fina" unicode="&#x6b3;" horiz-adv-x="836" arabic-form="final" 
d="M310 143h331v41q0 61 -37 83l-239 139v88l400 252l62 -95l-301 -187l153 -87q66 -37 79 -90q12 -39 12 -98v-46h66v-143h-520q-261 0 -261 252v100h129v-71q0 -71 28.5 -104.5t97.5 -33.5zM308 613l396 248l35 -58l-394 -248zM534 -274h-99v96h99v-96zM534 -156h-99v96
h99v-96z" />
    <glyph glyph-name="uni06B3.init" unicode="&#x6b3;" horiz-adv-x="526" arabic-form="initial" 
d="M-72 72q0 31 20.5 51t51.5 20h331v41q0 61 -37 83l-239 139v88l400 252l62 -95l-301 -187l153 -87q66 -37 79 -90q12 -39 12 -98v-189h-462q-31 0 -50.5 19.5t-19.5 52.5zM2 613l396 248l35 -58l-394 -248zM306 -274h-99v96h99v-96zM306 -156h-99v96h99v-96z" />
    <glyph glyph-name="uni06B3.medi" unicode="&#x6b3;" horiz-adv-x="526" arabic-form="medial" 
d="M-72 72q0 31 20.5 51t51.5 20h331v41q0 61 -37 83l-239 139v88l400 252l62 -95l-301 -187l153 -87q66 -37 79 -90q12 -39 12 -98v-46h66v-143h-528q-31 0 -50.5 19.5t-19.5 52.5zM2 613l396 248l35 -58l-394 -248zM306 -274h-99v96h99v-96zM306 -156h-99v96h99v-96z" />
    <glyph glyph-name="uni06B1.fina" unicode="&#x6b1;" horiz-adv-x="836" arabic-form="final" 
d="M310 143h331v41q0 61 -37 83l-239 139v88l400 252l62 -95l-301 -187l153 -87q66 -37 79 -90q12 -39 12 -98v-46h66v-143h-520q-261 0 -261 252v100h129v-71q0 -71 28.5 -104.5t97.5 -33.5zM308 613l396 248l35 -58l-394 -248zM503 848v-71h-66v71h66zM415 788v-71h-66v71
h66z" />
    <glyph glyph-name="uni06B1.init" unicode="&#x6b1;" horiz-adv-x="526" arabic-form="initial" 
d="M-72 72q0 31 20.5 51t51.5 20h331v41q0 61 -37 83l-239 139v88l400 252l62 -95l-301 -187l153 -87q66 -37 79 -90q12 -39 12 -98v-189h-462q-31 0 -50.5 19.5t-19.5 52.5zM2 613l396 248l35 -58l-394 -248zM223 861v-71h-66v71h66zM135 801v-71h-66v71h66z" />
    <glyph glyph-name="uni06B1.medi" unicode="&#x6b1;" horiz-adv-x="526" arabic-form="medial" 
d="M-72 72q0 31 20.5 51t51.5 20h331v41q0 61 -37 83l-239 139v88l400 252l62 -95l-301 -187l153 -87q66 -37 79 -90q12 -39 12 -98v-46h66v-143h-528q-31 0 -50.5 19.5t-19.5 52.5zM2 613l396 248l35 -58l-394 -248zM223 861v-71h-66v71h66zM135 801v-71h-66v71h66z" />
    <glyph glyph-name="uni06C0.fina" unicode="&#x6c0;" horiz-adv-x="552" arabic-form="final" 
d="M191 212q0 -44 52 -44q17 0 33 3.5t34.5 13t30 30.5t11.5 51v45q-50 -5 -84.5 -17t-49.5 -27.5t-21 -28.5t-6 -26zM239 29q-93 0 -138.5 43t-45.5 121q0 74 58 143q68 81 237 104v41h132v-273q0 -65 70 -65v-143h-18q-56 0 -97 24.5t-51 60.5q-26 -23 -71 -40
q-42 -16 -76 -16zM367 737l-29 -60q-32 18 -68 18q-20 0 -32 -10t-12 -26q0 -14 9.5 -23.5t25.5 -9.5h105v-66h-251v66h38l3 2q-6 14 -6 31q0 38 30 71q30 34 94 34q50 0 93 -27z" />
    <glyph glyph-name="uni06C1.fina" unicode="&#x6c1;" horiz-adv-x="542" arabic-form="final" 
d="M335 180v30q0 90 -76 90q-74 0 -74 -87q0 -70 82 -70h22v-143h-51q-183 0 -183 208q0 116 55 174.5t158 58.5q91 0 145 -55.5t54 -155.5q0 -39 10 -61q12 -26 65 -26v-143q-111 0 -159 41t-48 139z" />
    <glyph glyph-name="uni06C1.init" unicode="&#x6c1;" horiz-adv-x="241" arabic-form="initial" 
d="M57 218v240h129v-225q0 -94 -33 -157q-38 -76 -153 -76q-30 0 -49.5 20.5t-19.5 50.5t19.5 50t49.5 22q57 3 57 75zM144 -105l49 -35q-53 -87 -113 -87q-30 0 -48 17t-18 45q0 16 6 34l37 115h71l-40 -123q-3 -7 -3 -13q0 -5 5 -5q14 0 54 52z" />
    <glyph glyph-name="uni06C1.medi" unicode="&#x6c1;" horiz-adv-x="440" arabic-form="medial" 
d="M-69 71q0 30 20.5 51t49.5 21q34 0 47.5 19t13.5 55v77h129v-170q0 -65 7 -100h2q18 58 64.5 88.5t108.5 30.5h67v-143h-56q-43 0 -69.5 -27t-26.5 -74q38 -20 77 -32l-38 -115q-103 24 -164 80q-72 70 -89 179l-7 6q-25 -17 -66 -17q-29 0 -49.5 20t-20.5 51zM154 -275
l49 -35q-52 -87 -113 -87q-30 0 -48 17t-18 45q0 16 6 34l37 115h71l-40 -123q-7 -18 2 -18q14 0 54 52z" />
    <glyph glyph-name="uni06BE.fina" unicode="&#x6be;" horiz-adv-x="864" arabic-form="final" 
d="M552 0h-502v143h96q42 0 69 -5l1 5q-32 32 -32 98q0 69 37 117.5t100 61.5l-16 35q116 65 240 65q50 0 91.5 -13.5t77 -43t55.5 -83.5t20 -128q0 -58 16.5 -83.5t58.5 -25.5v-143q-60 0 -96.5 12t-61.5 46q-58 -58 -154 -58zM542 142v-3q112 0 112 119q0 57 -27.5 89
t-74.5 32q-21 0 -36 -4q51 -53 51 -139q0 -54 -25 -94zM316 233q0 -31 20 -55.5t54 -30.5q41 27 41 82q0 32 -14.5 51.5t-41.5 19.5t-43 -19t-16 -48z" />
    <glyph glyph-name="uni06BE.init" unicode="&#x6be;" horiz-adv-x="714" arabic-form="initial" 
d="M423 0h-423q-31 0 -50 19.5t-19 51.5q0 31 20 51.5t49 20.5h14q45 0 72 -5l1 5q-32 32 -32 98q0 69 37 117.5t100 61.5l-16 35q116 65 240 65q106 0 174.5 -62.5t68.5 -202.5q0 -129 -67 -192q-66 -63 -169 -63zM413 142v-3q112 0 112 119q0 57 -27.5 89t-74.5 32
q-21 0 -36 -4q51 -53 51 -139q0 -54 -25 -94zM187 233q0 -31 20 -55.5t54 -30.5q41 27 41 82q0 32 -14.5 51.5t-41.5 19.5t-43 -19t-16 -48z" />
    <glyph glyph-name="uni06BE.medi" unicode="&#x6be;" horiz-adv-x="735" arabic-form="medial" 
d="M735 143v-143q-60 0 -96.5 12t-61.5 46q-58 -58 -154 -58h-423q-31 0 -50 19.5t-19 51.5q0 31 20 51.5t49 20.5h24q35 0 62 -5l1 5q-32 32 -32 98q0 69 37 117.5t100 61.5l-16 35q116 65 240 65q50 0 91.5 -13.5t77 -43t55.5 -83.5t20 -128q0 -58 16.5 -83.5t58.5 -25.5z
M413 142v-3q112 0 112 119q0 57 -27.5 89t-74.5 32q-21 0 -36 -4q51 -53 51 -139q0 -54 -25 -94zM187 233q0 -31 20 -55.5t54 -30.5q41 27 41 82q0 32 -14.5 51.5t-41.5 19.5t-43 -19t-16 -48z" />
    <glyph glyph-name="uni06D2.fina" unicode="&#x6d2;" horiz-adv-x="333" arabic-form="final" 
d="M751 -73v-143h-696v180q0 88 47 133.5t133 45.5h98v-143h-88q-26 0 -42.5 -15.5t-16.5 -42.5v-15h565z" />
    <glyph glyph-name="uni06D3.fina" unicode="&#x6d3;" horiz-adv-x="494" arabic-form="final" 
d="M866 -73v-143h-811v392q0 86 48 135t125 49h211v-217h55v-143h-184v211h-57q-69 0 -69 -68v-216h682zM403 633l-29 -60q-32 18 -68 18q-20 0 -32 -10t-12 -26q0 -14 9.5 -23.5t25.5 -9.5h105v-66h-251v66h38l3 2q-6 14 -6 31q0 38 30 71q30 34 94 34q50 0 93 -27z" />
    <glyph glyph-name="uni06AD.fina" unicode="&#x6ad;" horiz-adv-x="815" arabic-form="final" 
d="M611 205v522h129v-506q0 -43 15.5 -60.5t59.5 -17.5v-143q-101 0 -131 59q-25 -35 -53.5 -47t-71.5 -12h-243q-261 0 -261 252v106h129v-77q0 -71 28.5 -104.5t97.5 -33.5h247q54 0 54 62zM534 487l-29 -60q-31 18 -68 18q-20 0 -32 -10t-12 -26q0 -14 9.5 -23.5
t25.5 -9.5h105v-66h-251v66h38l3 2q-6 14 -6 31q0 38 30 71q30 34 94 34q49 0 93 -27zM531 560h-101v96h101v-96zM469 678h-99v96h99v-96zM408 560h-101v96h101v-96z" />
    <glyph glyph-name="uni06AD.init" unicode="&#x6ad;" horiz-adv-x="526" arabic-form="initial" 
d="M-72 72q0 31 20.5 51t51.5 20h331v41q0 61 -37 83l-239 139v88l400 252l62 -95l-301 -187l153 -87q66 -37 79 -90q12 -39 12 -98v-189h-462q-31 0 -50.5 19.5t-19.5 52.5zM247 747v-71h-66v71h66zM165 747v-71h-66v71h66zM206 834v-72h-66v72h66z" />
    <glyph glyph-name="uni06AD.medi" unicode="&#x6ad;" horiz-adv-x="526" arabic-form="medial" 
d="M-72 72q0 31 20.5 51t51.5 20h331v41q0 61 -37 83l-239 139v88l400 252l62 -95l-301 -187l153 -87q66 -37 79 -90q12 -39 12 -98v-46h66v-143h-528q-31 0 -50.5 19.5t-19.5 52.5zM247 747v-71h-66v71h66zM165 747v-71h-66v71h66zM206 834v-72h-66v72h66z" />
    <glyph glyph-name="uni06C7.fina" unicode="&#x6c7;" horiz-adv-x="551" arabic-form="final" 
d="M96 -239v143h150q58 0 84.5 25t29.5 63l1 14h-86q-102 0 -161 59t-59 168q0 117 60.5 182.5t170.5 65.5q102 0 156 -62.5t54 -184.5v-91h55v-143h-55q-3 -114 -65 -176.5t-180 -62.5h-155zM283 338q-45 0 -72 -28.5t-27 -76.5q0 -40 23.5 -65.5t62.5 -25.5h97v93
q0 50 -22 76.5t-62 26.5zM160 623l88 26v4q-13 16 -13 42q0 29 20 50t52 21q34 0 56.5 -22.5t22.5 -54.5q0 -29 -19 -53t-54 -33l-153 -41v61z" />
    <glyph glyph-name="uni06C6.fina" unicode="&#x6c6;" horiz-adv-x="551" arabic-form="final" 
d="M96 -239v143h150q58 0 84.5 25t29.5 63l1 14h-86q-102 0 -161 59t-59 168q0 117 60.5 182.5t170.5 65.5q102 0 156 -62.5t54 -184.5v-91h55v-143h-55q-3 -114 -65 -176.5t-180 -62.5h-155zM283 338q-45 0 -72 -28.5t-27 -76.5q0 -40 23.5 -65.5t62.5 -25.5h97v93
q0 50 -22 76.5t-62 26.5zM304 560h-61l-97 184l56 27l71 -112l72 110l54 -25z" />
    <glyph glyph-name="uni06C8.fina" unicode="&#x6c8;" horiz-adv-x="551" arabic-form="final" 
d="M96 -239v143h150q58 0 84.5 25t29.5 63l1 14h-86q-102 0 -161 59t-59 168q0 117 60.5 182.5t170.5 65.5q102 0 156 -62.5t54 -184.5v-91h55v-143h-55q-3 -114 -65 -176.5t-180 -62.5h-155zM283 338q-45 0 -72 -28.5t-27 -76.5q0 -40 23.5 -65.5t62.5 -25.5h97v93
q0 50 -22 76.5t-62 26.5zM236 732h74v-172h-74v172z" />
    <glyph glyph-name="uni06CB.fina" unicode="&#x6cb;" horiz-adv-x="551" arabic-form="final" 
d="M96 -239v143h150q58 0 84.5 25t29.5 63l1 14h-86q-102 0 -161 59t-59 168q0 117 60.5 182.5t170.5 65.5q102 0 156 -62.5t54 -184.5v-91h55v-143h-55q-3 -114 -65 -176.5t-180 -62.5h-155zM283 338q-45 0 -72 -28.5t-27 -76.5q0 -40 23.5 -65.5t62.5 -25.5h97v93
q0 50 -22 76.5t-62 26.5zM385 560h-101v96h101v-96zM323 678h-99v96h99v-96zM262 560h-101v96h101v-96z" />
    <glyph glyph-name="uni06C5.fina" unicode="&#x6c5;" horiz-adv-x="551" arabic-form="final" 
d="M96 -249v143h150q65 0 93 34h-188v44h208q0 2 1 6v4l1 24h-86q-102 0 -161 59t-59 168q0 117 60.5 182.5t170.5 65.5q102 0 156 -62.5t54 -184.5v-91h55v-143h-55q-3 -116 -65.5 -182.5t-179.5 -66.5h-155zM283 338q-45 0 -72 -28.5t-27 -76.5q0 -40 23.5 -65.5
t62.5 -25.5h97v93q0 50 -22 76.5t-62 26.5z" />
    <glyph glyph-name="uni06C9.fina" unicode="&#x6c9;" horiz-adv-x="551" arabic-form="final" 
d="M96 -239v143h150q58 0 84.5 25t29.5 63l1 14h-86q-102 0 -161 59t-59 168q0 117 60.5 182.5t170.5 65.5q102 0 156 -62.5t54 -184.5v-91h55v-143h-55q-3 -114 -65 -176.5t-180 -62.5h-155zM283 338q-45 0 -72 -28.5t-27 -76.5q0 -40 23.5 -65.5t62.5 -25.5h97v93
q0 50 -22 76.5t-62 26.5zM201 560l-54 25l97 184h61l95 -184l-54 -25l-73 110z" />
    <glyph glyph-name="uni06D0.fina" unicode="&#x6d0;" horiz-adv-x="885" arabic-form="final" 
d="M55 358h129v-77q0 -71 28.5 -104.5t97.5 -33.5h166v154q0 89 48 136.5t132 47.5h174v-338h55v-143h-184v337h-52q-44 0 -44 -57v-280h-289q-261 0 -261 252v106zM463 -274h-99v96h99v-96zM463 -156h-99v96h99v-96z" />
    <glyph glyph-name="uni06D0.init" unicode="&#x6d0;" horiz-adv-x="241" arabic-form="initial" 
d="M57 218v240h129v-225q0 -94 -33 -157q-38 -76 -153 -76q-30 0 -49.5 20.5t-19.5 50.5t19.5 50t49.5 22q57 3 57 75zM148 -274h-99v96h99v-96zM148 -156h-99v96h99v-96z" />
    <glyph glyph-name="uni06D0.medi" unicode="&#x6d0;" horiz-adv-x="266" arabic-form="medial" 
d="M62 211v182h129v-172q0 -44 15 -61t60 -17v-143q-99 0 -131 59q-45 -59 -135 -59q-30 0 -49.5 19.5t-19.5 51.5q0 31 20 51.5t49 20.5q62 0 62 68zM183 -274h-99v96h99v-96zM183 -156h-99v96h99v-96z" />
    <glyph glyph-name="uni0649.init" unicode="&#x649;" horiz-adv-x="241" arabic-form="initial" 
d="M57 218v240h129v-225q0 -94 -33 -157q-38 -76 -153 -76q-30 0 -49.5 20.5t-19.5 50.5t19.5 50t49.5 22q57 3 57 75z" />
    <glyph glyph-name="uni0649.medi" unicode="&#x649;" horiz-adv-x="266" arabic-form="medial" 
d="M62 211v182h129v-172q0 -44 15 -61t60 -17v-143q-99 0 -131 59q-45 -59 -135 -59q-30 0 -49.5 19.5t-19.5 51.5q0 31 20 51.5t49 20.5q62 0 62 68z" />
    <glyph glyph-name="uni06CC.fina" unicode="&#x6cc;" horiz-adv-x="885" arabic-form="final" 
d="M55 358h129v-77q0 -71 28.5 -104.5t97.5 -33.5h166v154q0 89 48 136.5t132 47.5h174v-338h55v-143h-184v337h-52q-44 0 -44 -57v-280h-289q-261 0 -261 252v106z" />
    <glyph glyph-name="uni06CC.init" unicode="&#x6cc;" horiz-adv-x="241" arabic-form="initial" 
d="M57 218v240h129v-225q0 -94 -33 -157q-38 -76 -153 -76q-30 0 -49.5 20.5t-19.5 50.5t19.5 50t49.5 22q57 3 57 75zM109 -171h-101v96h101v-96zM232 -171h-101v96h101v-96z" />
    <glyph glyph-name="uni06CC.medi" unicode="&#x6cc;" horiz-adv-x="266" arabic-form="medial" 
d="M62 211v182h129v-172q0 -44 15 -61t60 -17v-143q-99 0 -131 59q-45 -59 -135 -59q-30 0 -49.5 19.5t-19.5 51.5q0 31 20 51.5t49 20.5q62 0 62 68zM122 -171h-101v96h101v-96zM245 -171h-101v96h101v-96z" />
    <glyph glyph-name="uni0651064C" unicode="&#xfc5e;" horiz-adv-x="0" arabic-form="isolated" 
d="M-32 205l32 9l2 3q-14 16 -14 45q0 26 19.5 45.5t49.5 19.5q33 0 53 -22.5t20 -57.5q0 -58 -68 -76l-125 -34l-22 6v58q0 23 -24 23q-1 0 -4 -0.5t-8 -1t-9 -0.5v51q17 4 35 4q63 0 63 -61v-11zM76 254q0 22 -18 22q-19 0 -19 -19q0 -22 22 -25q15 4 15 22zM12 25l-3 -1
q-6 -23 -24 -36.5t-41 -13.5q-31 0 -47 17.5t-16 61.5v25l61 17v-45q0 -16 13 -16q15 0 15 16v53l58 18v-45q0 -15 15 -15t15 15v54l62 18v-63q0 -38 -17 -60.5t-52 -22.5q-31 0 -39 23z" />
    <glyph glyph-name="uni0651064D" unicode="&#xfc5f;" horiz-adv-x="0" arabic-form="isolated" 
d="M12 218l-3 -1q-6 -24 -23.5 -37.5t-41.5 -13.5q-31 0 -47 17.5t-16 62.5v25l61 17v-45q0 -16 13 -16q15 0 15 16v53l58 17v-44q0 -15 15 -15t15 15v53l62 19v-63q0 -39 -17 -61.5t-52 -22.5q-31 0 -39 24zM-114 119l229 56v-59l-229 -56v59zM-114 31l229 55v-58l-229 -55
v58z" />
    <glyph glyph-name="uni0651064E" unicode="&#xfc60;" horiz-adv-x="0" arabic-form="isolated" 
d="M-115 180l231 56v-62l-231 -55v61zM12 22l-3 -1q-6 -24 -23.5 -37.5t-41.5 -13.5q-31 0 -47 17.5t-16 61.5v26l61 17v-45q0 -16 13 -16q15 0 15 16v53l58 17v-44q0 -15 15 -15t15 15v53l62 19v-63q0 -39 -17 -61.5t-52 -22.5q-31 0 -39 24z" />
    <glyph glyph-name="uni0651064F" unicode="&#xfc61;" horiz-adv-x="0" arabic-form="isolated" 
d="M-108 173l90 24v3q-14 14 -14 40q0 28 18.5 48t49.5 20q32 0 52.5 -21.5t20.5 -51.5q0 -64 -68 -81l-149 -40v59zM56 236q0 22 -17 22q-20 0 -20 -19q0 -22 22 -25q15 4 15 22zM12 20l-3 -1q-6 -24 -23.5 -37.5t-41.5 -13.5q-31 0 -47 17.5t-16 62.5v25l61 17v-45
q0 -16 13 -16q15 0 15 16v53l58 17v-44q0 -15 15 -15t15 15v53l62 19v-63q0 -39 -17 -61.5t-52 -22.5q-31 0 -39 24z" />
    <glyph glyph-name="uni06510650" unicode="&#xfc62;" horiz-adv-x="0" arabic-form="isolated" 
d="M-115 35l231 57v-63l-231 -56v62zM12 145l-3 -1q-6 -23 -24 -36.5t-41 -13.5q-31 0 -47 17.5t-16 61.5v25l61 17v-45q0 -16 13 -16q15 0 15 16v53l58 17v-44q0 -15 15 -15t15 15v53l62 19v-63q0 -39 -17 -61.5t-52 -22.5q-31 0 -39 24z" />
    <glyph glyph-name="uni06510670" unicode="&#xfc63;" horiz-adv-x="0" arabic-form="isolated" 
d="M40 212v-61h-64v56q0 52 -16 103h70q10 -30 10 -98zM12 20l-3 -1q-6 -24 -23.5 -37.5t-41.5 -13.5q-31 0 -47 17.5t-16 62.5v25l61 17v-45q0 -16 13 -16q15 0 15 16v53l58 17v-44q0 -15 15 -15t15 15v53l62 19v-63q0 -39 -17 -61.5t-52 -22.5q-31 0 -39 24z" />
    <glyph glyph-name="uniFCF2" unicode="&#xfcf2;" horiz-adv-x="289" arabic-form="medial" 
d="M29 679l231 55v-62l-231 -55v62zM156 511l-3 -1q-6 -23 -24 -36.5t-41 -13.5q-31 0 -47 17.5t-16 61.5v25l62 17v-45q0 -16 12 -16q16 0 16 16v53l57 18v-45q0 -15 15 -15t15 15v54l62 18v-63q0 -38 -17 -60.5t-51 -22.5q-32 0 -40 23zM0 94h289v-94h-289q-21 0 -35.5 13
t-14.5 33t15 34t35 14z" />
    <glyph glyph-name="uniFCF3" unicode="&#xfcf3;" horiz-adv-x="289" arabic-form="medial" 
d="M36 673l90 24v3q-14 14 -14 41q0 28 18.5 47.5t49.5 19.5q32 0 52.5 -21.5t20.5 -51.5q0 -62 -67 -81l-150 -39v58zM200 736q0 23 -17 23q-20 0 -20 -19q0 -24 23 -25q14 5 14 21zM156 511l-3 -1q-6 -23 -24 -36.5t-41 -13.5q-31 0 -47 17.5t-16 61.5v25l62 17v-45
q0 -16 12 -16q16 0 16 16v53l57 18v-45q0 -15 15 -15t15 15v54l62 18v-63q0 -38 -17 -60.5t-51 -22.5q-32 0 -40 23zM0 94h289v-94h-289q-21 0 -35.5 13t-14.5 33t15 34t35 14z" />
    <glyph glyph-name="uniFCF4" unicode="&#xfcf4;" horiz-adv-x="289" arabic-form="medial" 
d="M29 508l231 56v-63l-231 -56v63zM156 622l-3 -1q-6 -23 -24 -36.5t-41 -13.5q-31 0 -47 17.5t-16 61.5v25l62 17v-45q0 -16 12 -16q16 0 16 16v53l57 17v-44q0 -15 15 -15t15 15v53l62 19v-63q0 -38 -17 -61t-51 -23q-32 0 -40 24zM0 94h289v-94h-289q-21 0 -35.5 13
t-14.5 33t15 34t35 14z" />
    <glyph glyph-name="uniFE70" unicode="&#xfe70;" horiz-adv-x="232" arabic-form="isolated" 
d="M0 822l232 64v-63l-232 -63v62zM0 733l232 63v-62l-232 -62v61z" />
    <glyph glyph-name="uniFE71" unicode="&#xfe71;" horiz-adv-x="283" arabic-form="medial" 
d="M25 615l233 64v-63l-233 -63v62zM25 526l233 63v-62l-233 -62v61zM0 94h283v-94h-283q-21 0 -35.5 13t-14.5 33t15 34t35 14z" />
    <glyph glyph-name="uniFE72" unicode="&#xfe72;" horiz-adv-x="259" arabic-form="isolated" 
d="M98 747l32 9l1 3q-13 16 -13 45q0 26 19.5 45t48.5 19q33 0 53 -22.5t20 -56.5q0 -60 -67 -76l-125 -34l-22 6v57q0 24 -24 24q-3 0 -21 -2v50q18 5 35 5q63 0 63 -61v-11zM205 796q0 22 -17 22q-20 0 -20 -19q0 -22 23 -25q14 5 14 22z" />
    <glyph glyph-name="uniFE74" unicode="&#xfe74;" horiz-adv-x="229" arabic-form="isolated" 
d="M0 -241l229 56v-59l-229 -56v59zM0 -329l229 55v-58l-229 -55v58z" />
    <glyph glyph-name="uniFE76" unicode="&#xfe76;" horiz-adv-x="231" arabic-form="isolated" 
d="M0 736l231 56v-62l-231 -55v61z" />
    <glyph glyph-name="uniFE77" unicode="&#xfe77;" horiz-adv-x="282" arabic-form="medial" 
d="M25 529l232 56v-62l-232 -55v61zM0 94h282v-94h-282q-21 0 -35.5 13t-14.5 33t15 34t35 14z" />
    <glyph glyph-name="uniFE78" unicode="&#xfe78;" horiz-adv-x="217" arabic-form="isolated" 
d="M0 733l90 25v2q-14 14 -14 41q0 28 18.5 47.5t49.5 19.5q32 0 52.5 -21t20.5 -51q0 -64 -68 -81l-149 -40v58zM164 796q0 23 -17 23q-20 0 -20 -19q0 -22 22 -25q15 5 15 21z" />
    <glyph glyph-name="uniFE79" unicode="&#xfe79;" horiz-adv-x="267" arabic-form="medial" 
d="M25 526l90 24v3q-13 15 -14 39.5t18 47t50 21.5q32 0 52.5 -21.5t20.5 -51.5q0 -65 -67 -81l-150 -40v59zM189 589q0 22 -17 22q-20 0 -20 -19q0 -22 23 -25q14 5 14 22z" />
    <glyph glyph-name="uniFE7A" unicode="&#xfe7a;" horiz-adv-x="231" arabic-form="isolated" 
d="M0 -241l231 56v-63l-231 -55v62z" />
    <glyph glyph-name="uniFE7B" unicode="&#xfe7b;" horiz-adv-x="282" arabic-form="medial" 
d="M25 -148l232 57v-63l-232 -56v62zM0 94h282v-94h-282q-21 0 -35.5 13t-14.5 33t15 34t35 14z" />
    <glyph glyph-name="uniFE7C" unicode="&#xfe7c;" horiz-adv-x="238" arabic-form="isolated" 
d="M130 718l-2 -1q-6 -23 -24 -36.5t-41 -13.5q-31 0 -47 17.5t-16 61.5v25l61 17v-45q0 -16 13 -16q15 0 15 16v53l58 18v-45q0 -15 15 -15q14 0 14 15v54l62 18v-63q0 -38 -17 -60.5t-51 -22.5q-31 0 -40 23z" />
    <glyph glyph-name="uniFE7D" unicode="&#xfe7d;" horiz-adv-x="289" arabic-form="medial" 
d="M156 511l-3 -1q-6 -23 -24 -36.5t-41 -13.5q-31 0 -47 17.5t-16 61.5v25l62 17v-45q0 -16 12 -16q16 0 16 16v53l57 18v-45q0 -15 15 -15t15 15v54l62 18v-63q0 -38 -17 -60.5t-51 -22.5q-32 0 -40 23zM0 94h289v-94h-289q-21 0 -35.5 13t-14.5 33t15 34t35 14z" />
    <glyph glyph-name="uniFE7E" unicode="&#xfe7e;" horiz-adv-x="166" arabic-form="isolated" 
d="M0 766q0 38 23 61t61 23q37 0 59.5 -23t22.5 -61q0 -37 -23 -62.5t-59 -25.5t-60 25.5t-24 62.5zM111 765q0 12 -7.5 21t-19.5 9t-20 -9t-8 -21t8 -21t20 -9q11 0 19 9t8 21z" />
    <glyph glyph-name="uniFE7F" unicode="&#xfe7f;" horiz-adv-x="211" arabic-form="medial" 
d="M188 559q0 -37 -23 -62.5t-59 -25.5t-60 25.5t-24 62.5t23 60.5t61 23.5t60 -23t22 -61zM133 558q0 12 -7.5 21t-19.5 9t-20 -9t-8 -21t8 -21t20 -9q11 0 19 9t8 21zM0 94h211v-94h-211q-21 0 -35.5 13t-14.5 33t15 34t35 14z" />
    <glyph glyph-name="uni0622.fina" unicode="&#x622;" horiz-adv-x="249" arabic-form="final" 
d="M249 143v-143h-41q-153 0 -153 147v529h129v-483q0 -29 10.5 -39.5t34.5 -10.5h20zM252 823v-73h-85q-61 0 -84 26l-87 -46v85l94 52h18q12 -25 24 -34.5t35 -9.5h85z" />
    <glyph glyph-name="uni0623.fina" unicode="&#x623;" horiz-adv-x="249" arabic-form="final" 
d="M250 927l-29 -60q-32 18 -68 18q-20 0 -32 -10t-12 -26q0 -14 9.5 -23.5t25.5 -9.5h105v-66h-251v66h38l3 2q-6 14 -6 31q0 38 30 71q30 34 94 34q49 0 93 -27zM249 143v-143h-41q-153 0 -153 147v529h129v-483q0 -29 10.5 -39.5t34.5 -10.5h20z" />
    <glyph glyph-name="uni0624.fina" unicode="&#x624;" horiz-adv-x="551" arabic-form="final" 
d="M96 -239v143h150q58 0 84.5 25t29.5 63l1 14h-86q-102 0 -161 59t-59 168q0 117 60.5 182.5t170.5 65.5q102 0 156 -62.5t54 -184.5v-91h55v-143h-55q-3 -114 -65 -176.5t-180 -62.5h-155zM283 338q-45 0 -72 -28.5t-27 -76.5q0 -40 23.5 -65.5t62.5 -25.5h97v93
q0 50 -22 76.5t-62 26.5zM401 737l-29 -60q-32 18 -68 18q-20 0 -32 -10t-12 -26q0 -14 9.5 -23.5t25.5 -9.5h105v-66h-251v66h38l3 2q-6 14 -6 31q0 38 30 71q30 34 94 34q50 0 93 -27z" />
    <glyph glyph-name="uni0625.fina" unicode="&#x625;" horiz-adv-x="249" arabic-form="final" 
d="M249 143v-143h-41q-153 0 -153 147v579h129v-533q0 -29 10.5 -39.5t34.5 -10.5h20zM250 -102l-29 -60q-31 18 -68 18q-20 0 -32 -10t-12 -26q0 -14 9.5 -23.5t25.5 -9.5h105v-66h-251v66h38l3 2q-6 13 -6 31q0 38 30 72q30 33 94 33q49 0 93 -27z" />
    <glyph glyph-name="uni0626.fina" unicode="&#x626;" horiz-adv-x="885" arabic-form="final" 
d="M307 614l-29 -60q-31 18 -68 18q-20 0 -32 -10t-12 -26q0 -14 9.5 -23.5t25.5 -9.5h105v-66h-251v66h38l3 2q-6 14 -6 31q0 38 30 71q30 34 94 34q50 0 93 -27zM55 358h129v-77q0 -71 28.5 -104.5t97.5 -33.5h166v154q0 89 48 136.5t132 47.5h174v-338h55v-143h-184v337
h-52q-44 0 -44 -57v-280h-289q-261 0 -261 252v106z" />
    <glyph glyph-name="uni0626.init" unicode="&#x626;" horiz-adv-x="241" arabic-form="initial" 
d="M57 218v240h129v-225q0 -94 -33 -157q-38 -76 -153 -76q-30 0 -49.5 20.5t-19.5 50.5t19.5 50t49.5 22q57 3 57 75zM246 712l-29 -60q-31 18 -68 18q-20 0 -32 -10t-12 -26q0 -14 9.5 -23.5t25.5 -9.5h105v-66h-251v66h38l3 2q-6 13 -6 31q0 38 30 71q30 34 94 34
q49 0 93 -27z" />
    <glyph glyph-name="uni0626.medi" unicode="&#x626;" horiz-adv-x="266" arabic-form="medial" 
d="M259 653l-29 -60q-31 18 -68 18q-20 0 -32 -10t-12 -26q0 -14 9.5 -23.5t25.5 -9.5h105v-66h-251v66h38l3 2q-6 14 -6 31q0 38 30 71q30 34 94 34q50 0 93 -27zM62 211v182h129v-172q0 -44 15 -61t60 -17v-143q-99 0 -131 59q-45 -59 -135 -59q-30 0 -49.5 19.5
t-19.5 51.5q0 31 20 51.5t49 20.5q62 0 62 68z" />
    <glyph glyph-name="uni0627.fina" unicode="&#x627;" horiz-adv-x="249" arabic-form="final" 
d="M249 143v-143h-41q-153 0 -153 147v579h129v-533q0 -29 10.5 -39.5t34.5 -10.5h20z" />
    <glyph glyph-name="uni0628.fina" unicode="&#x628;" horiz-adv-x="800" arabic-form="final" 
d="M596 205v188h129v-172q0 -43 15.5 -60.5t59.5 -17.5v-143q-102 0 -131 59q-25 -35 -53.5 -47t-71.5 -12h-228q-261 0 -261 252v106h129v-77q0 -71 28.5 -104.5t97.5 -33.5h232q54 0 54 62zM464 -171h-109v96h109v-96z" />
    <glyph glyph-name="uni0628.init" unicode="&#x628;" horiz-adv-x="241" arabic-form="initial" 
d="M57 218v240h129v-225q0 -94 -33 -157q-38 -76 -153 -76q-30 0 -49.5 20.5t-19.5 50.5t19.5 50t49.5 22q57 3 57 75zM154 -171h-109v96h109v-96z" />
    <glyph glyph-name="uni0628.medi" unicode="&#x628;" horiz-adv-x="266" arabic-form="medial" 
d="M62 211v182h129v-172q0 -44 15 -61t60 -17v-143q-99 0 -131 59q-45 -59 -135 -59q-30 0 -49.5 19.5t-19.5 51.5q0 31 20 51.5t49 20.5q62 0 62 68zM187 -171h-109v96h109v-96z" />
    <glyph glyph-name="uni0629.fina" unicode="&#x629;" horiz-adv-x="552" arabic-form="final" 
d="M191 212q0 -44 52 -44q17 0 33 3.5t34.5 13t30 30.5t11.5 51v45q-50 -5 -84.5 -17t-49.5 -27.5t-21 -28.5t-6 -26zM239 29q-93 0 -138.5 43t-45.5 121q0 74 58 143q68 81 237 104v41h132v-273q0 -65 70 -65v-143h-18q-56 0 -97 24.5t-51 60.5q-26 -23 -71 -40
q-42 -16 -76 -16zM222 560h-101v96h101v-96zM345 560h-101v96h101v-96z" />
    <glyph glyph-name="uni062A.fina" unicode="&#x62a;" horiz-adv-x="800" arabic-form="final" 
d="M596 205v188h129v-172q0 -43 15.5 -60.5t59.5 -17.5v-143q-102 0 -131 59q-25 -35 -53.5 -47t-71.5 -12h-228q-261 0 -261 252v106h129v-77q0 -71 28.5 -104.5t97.5 -33.5h232q54 0 54 62zM366 456h-101v96h101v-96zM489 456h-101v96h101v-96z" />
    <glyph glyph-name="uni062A.init" unicode="&#x62a;" horiz-adv-x="241" arabic-form="initial" 
d="M57 218v240h129v-225q0 -94 -33 -157q-38 -76 -153 -76q-30 0 -49.5 20.5t-19.5 50.5t19.5 50t49.5 22q57 3 57 75zM109 535h-101v96h101v-96zM232 535h-101v96h101v-96z" />
    <glyph glyph-name="uni062A.medi" unicode="&#x62a;" horiz-adv-x="266" arabic-form="medial" 
d="M62 211v182h129v-172q0 -44 15 -61t60 -17v-143q-99 0 -131 59q-45 -59 -135 -59q-30 0 -49.5 19.5t-19.5 51.5q0 31 20 51.5t49 20.5q62 0 62 68zM122 476h-101v96h101v-96zM245 476h-101v96h101v-96z" />
    <glyph glyph-name="uni062B.fina" unicode="&#x62b;" horiz-adv-x="800" arabic-form="final" 
d="M596 205v188h129v-172q0 -43 15.5 -60.5t59.5 -17.5v-143q-102 0 -131 59q-25 -35 -53.5 -47t-71.5 -12h-228q-261 0 -261 252v106h129v-77q0 -71 28.5 -104.5t97.5 -33.5h232q54 0 54 62zM522 456h-101v96h101v-96zM460 574h-99v96h99v-96zM399 456h-101v96h101v-96z
" />
    <glyph glyph-name="uni062B.init" unicode="&#x62b;" horiz-adv-x="241" arabic-form="initial" 
d="M232 535h-101v96h101v-96zM170 653h-99v96h99v-96zM109 535h-101v96h101v-96zM57 218v240h129v-225q0 -94 -33 -157q-38 -76 -153 -76q-30 0 -49.5 20.5t-19.5 50.5t19.5 50t49.5 22q57 3 57 75z" />
    <glyph glyph-name="uni062B.medi" unicode="&#x62b;" horiz-adv-x="266" arabic-form="medial" 
d="M62 211v182h129v-172q0 -44 15 -61t60 -17v-143q-99 0 -131 59q-45 -59 -135 -59q-30 0 -49.5 19.5t-19.5 51.5q0 31 20 51.5t49 20.5q62 0 62 68zM245 476h-101v96h101v-96zM183 594h-99v96h99v-96zM122 476h-101v96h101v-96z" />
    <glyph glyph-name="uni062C.fina" unicode="&#x62c;" horiz-adv-x="586" arabic-form="final" 
d="M298 143h108l3 6q-23 14 -30 116q-5 77 -85 77q-60 0 -127 -36l-55 112q92 63 195 63q187 0 204 -197q6 -76 19 -108.5t42 -32.5h14v-143h-312q-44 0 -66 -21.5t-22 -52.5q0 -72 101 -72q23 0 50 4l14 -127q-40 -8 -90 -8q-93 0 -149.5 50.5t-56.5 143.5q0 107 68 166
q67 60 175 60zM493 -160h-109v96h109v-96z" />
    <glyph glyph-name="uni062C.init" unicode="&#x62c;" horiz-adv-x="532" arabic-form="initial" 
d="M507 142v-142h-507q-30 0 -49.5 19.5t-19.5 51.5q0 31 20 51.5t49 20.5h351l3 6q-23 14 -30 116q-6 77 -85 77q-59 0 -127 -36l-57 111q92 64 197 64q92 0 144.5 -49t59.5 -148q4 -75 15 -105q10 -29 36 -37zM307 -171h-109v96h109v-96z" />
    <glyph glyph-name="uni062C.medi" unicode="&#x62c;" horiz-adv-x="529" arabic-form="medial" 
d="M250 481q187 0 204 -197q6 -76 19 -108.5t42 -32.5h14v-143h-529q-30 0 -49.5 19.5t-19.5 51.5q0 31 20 51.5t49 20.5h349l3 6q-23 14 -30 116q-6 77 -85 77q-60 0 -127 -36l-55 112q91 63 195 63zM307 -171h-109v96h109v-96z" />
    <glyph glyph-name="uni062D.fina" unicode="&#x62d;" horiz-adv-x="586" arabic-form="final" 
d="M298 143h108l3 6q-23 14 -30 116q-5 77 -85 77q-60 0 -127 -36l-55 112q92 63 195 63q187 0 204 -197q6 -76 19 -108.5t42 -32.5h14v-143h-312q-44 0 -66 -21.5t-22 -52.5q0 -72 101 -72q23 0 50 4l14 -127q-40 -8 -90 -8q-93 0 -149.5 50.5t-56.5 143.5q0 107 68 166
q67 60 175 60z" />
    <glyph glyph-name="uni062D.init" unicode="&#x62d;" horiz-adv-x="532" arabic-form="initial" 
d="M507 142v-142h-507q-30 0 -49.5 19.5t-19.5 51.5q0 31 20 51.5t49 20.5h351l3 6q-23 14 -30 116q-6 77 -85 77q-59 0 -127 -36l-57 111q92 64 197 64q92 0 144.5 -49t59.5 -148q4 -75 15 -105q10 -29 36 -37z" />
    <glyph glyph-name="uni062D.medi" unicode="&#x62d;" horiz-adv-x="529" arabic-form="medial" 
d="M250 481q187 0 204 -197q6 -76 19 -108.5t42 -32.5h14v-143h-529q-30 0 -49.5 19.5t-19.5 51.5q0 31 20 51.5t49 20.5h349l3 6q-23 14 -30 116q-6 77 -85 77q-60 0 -127 -36l-55 112q91 63 195 63z" />
    <glyph glyph-name="uni062E.fina" unicode="&#x62e;" horiz-adv-x="586" arabic-form="final" 
d="M298 143h108l3 6q-23 14 -30 116q-5 77 -85 77q-60 0 -127 -36l-55 112q92 63 195 63q187 0 204 -197q6 -76 19 -108.5t42 -32.5h14v-143h-312q-44 0 -66 -21.5t-22 -52.5q0 -72 101 -72q23 0 50 4l14 -127q-40 -8 -90 -8q-93 0 -149.5 50.5t-56.5 143.5q0 107 68 166
q67 60 175 60zM347 560h-109v96h109v-96z" />
    <glyph glyph-name="uni062E.init" unicode="&#x62e;" horiz-adv-x="532" arabic-form="initial" 
d="M507 142v-142h-507q-30 0 -49.5 19.5t-19.5 51.5q0 31 20 51.5t49 20.5h351l3 6q-23 14 -30 116q-6 77 -85 77q-59 0 -127 -36l-57 111q92 64 197 64q92 0 144.5 -49t59.5 -148q4 -75 15 -105q10 -29 36 -37zM307 560h-109v96h109v-96z" />
    <glyph glyph-name="uni062E.medi" unicode="&#x62e;" horiz-adv-x="529" arabic-form="medial" 
d="M250 481q187 0 204 -197q6 -76 19 -108.5t42 -32.5h14v-143h-529q-30 0 -49.5 19.5t-19.5 51.5q0 31 20 51.5t49 20.5h349l3 6q-23 14 -30 116q-6 77 -85 77q-60 0 -127 -36l-55 112q91 63 195 63zM307 560h-109v96h109v-96z" />
    <glyph glyph-name="uni062F.fina" unicode="&#x62f;" horiz-adv-x="521" arabic-form="final" 
d="M521 143v-143h-466v143h281v125q0 76 -87 76q-77 0 -120 -39l-69 109q76 66 201 66q96 0 151 -45.5t55 -135.5v-156h54z" />
    <glyph glyph-name="uni0630.fina" unicode="&#x630;" horiz-adv-x="521" arabic-form="final" 
d="M521 143v-143h-466v143h281v125q0 76 -87 76q-77 0 -120 -39l-69 109q76 66 201 66q96 0 151 -45.5t55 -135.5v-156h54zM300 560h-109v96h109v-96z" />
    <glyph glyph-name="uni0631.fina" unicode="&#x631;" horiz-adv-x="246" arabic-form="final" 
d="M-53 -207v141q115 1 115 87v372h129v-250h55v-143h-55q-3 -108 -60.5 -157t-183.5 -50z" />
    <glyph glyph-name="uni0632.fina" unicode="&#x632;" horiz-adv-x="246" arabic-form="final" 
d="M-53 -207v141q115 1 115 87v372h129v-250h55v-143h-55q-3 -108 -60.5 -157t-183.5 -50zM177 476h-109v96h109v-96z" />
    <glyph glyph-name="uni0633.fina" unicode="&#x633;" horiz-adv-x="1034" arabic-form="final" 
d="M741 435l107 76q41 -49 76 -130q35 -82 35 -160q0 -34 18 -56t57 -22v-143q-86 0 -123 51h-4q-41 -65 -134 -65q-95 0 -145 63h-5q-42 -49 -116 -49h-32v-8q0 -93 -63 -146q-64 -53 -148 -53q-94 0 -151.5 50.5t-57.5 137.5v307h129v-277q0 -32 22.5 -55t58.5 -23
q35 0 58 23t23 55v382h129v-250h32q60 0 60 77v173h129v-176q0 -41 19 -65t48 -24q65 0 65 82q0 52 -27 120q-25 68 -60 105z" />
    <glyph glyph-name="uni0633.init" unicode="&#x633;" horiz-adv-x="805" arabic-form="initial" 
d="M298 0h-298q-30 0 -49.5 19.5t-19.5 51.5q0 31 20 51.5t49 20.5h124v250h129v-250h45q60 0 60 77v173h129v-176q0 -41 19 -65t48 -24q61 0 61 82q0 52 -27 120q-26 68 -60 105l107 76q45 -53 79 -134q36 -83 36 -172q0 -92 -46 -156q-46 -63 -140 -63q-96 0 -145 63h-5
q-42 -49 -116 -49z" />
    <glyph glyph-name="uni0633.medi" unicode="&#x633;" horiz-adv-x="825" arabic-form="medial" 
d="M298 0h-298q-30 0 -49.5 19.5t-19.5 51.5q0 31 20 51.5t49 20.5h124v250h129v-250h45q60 0 60 77v173h129v-176q0 -41 19 -65t48 -24q65 0 65 82q0 52 -27 120q-26 68 -60 105l107 76q41 -49 76 -130q35 -82 35 -160q0 -34 18 -56t57 -22v-143q-85 0 -123 51h-4
q-41 -65 -134 -65q-96 0 -145 63h-5q-42 -49 -116 -49z" />
    <glyph glyph-name="uni0634.fina" unicode="&#x634;" horiz-adv-x="1034" arabic-form="final" 
d="M741 435l107 76q41 -49 76 -130q35 -82 35 -160q0 -34 18 -56t57 -22v-143q-86 0 -123 51h-4q-41 -65 -134 -65q-95 0 -145 63h-5q-42 -49 -116 -49h-32v-8q0 -93 -63 -146q-64 -53 -148 -53q-94 0 -151.5 50.5t-57.5 137.5v307h129v-277q0 -32 22.5 -55t58.5 -23
q35 0 58 23t23 55v382h129v-250h32q60 0 60 77v173h129v-176q0 -41 19 -65t48 -24q65 0 65 82q0 52 -27 120q-25 68 -60 105zM735 560h-101v96h101v-96zM673 678h-99v96h99v-96zM612 560h-101v96h101v-96z" />
    <glyph glyph-name="uni0634.init" unicode="&#x634;" horiz-adv-x="805" arabic-form="initial" 
d="M298 0h-298q-30 0 -49.5 19.5t-19.5 51.5q0 31 20 51.5t49 20.5h124v250h129v-250h45q60 0 60 77v173h129v-176q0 -41 19 -65t48 -24q61 0 61 82q0 52 -27 120q-26 68 -60 105l107 76q45 -53 79 -134q36 -83 36 -172q0 -92 -46 -156q-46 -63 -140 -63q-96 0 -145 63h-5
q-42 -49 -116 -49zM532 560h-101v96h101v-96zM470 678h-99v96h99v-96zM409 560h-101v96h101v-96z" />
    <glyph glyph-name="uni0634.medi" unicode="&#x634;" horiz-adv-x="825" arabic-form="medial" 
d="M298 0h-298q-30 0 -49.5 19.5t-19.5 51.5q0 31 20 51.5t49 20.5h124v250h129v-250h45q60 0 60 77v173h129v-176q0 -41 19 -65t48 -24q65 0 65 82q0 52 -27 120q-26 68 -60 105l107 76q41 -49 76 -130q35 -82 35 -160q0 -34 18 -56t57 -22v-143q-85 0 -123 51h-4
q-41 -65 -134 -65q-96 0 -145 63h-5q-42 -49 -116 -49zM532 560h-101v96h101v-96zM470 678h-99v96h99v-96zM409 560h-101v96h101v-96z" />
    <glyph glyph-name="uni0635.fina" unicode="&#x635;" horiz-adv-x="975" arabic-form="final" 
d="M975 0h-487v-7q0 -89 -61 -144q-62 -56 -158 -56q-101 0 -157.5 54t-56.5 146v295h129v-267q0 -88 86 -88q43 0 66 25t23 63v451h128v-74h8q98 83 217 83q91 0 149 -49q59 -48 59 -134v-155h55v-143zM487 159v-16h302v90q0 47 -27 75t-79 28q-86 0 -141 -55
q-55 -54 -55 -122z" />
    <glyph glyph-name="uni0635.init" unicode="&#x635;" horiz-adv-x="671" arabic-form="initial" 
d="M616 0h-616q-30 0 -49.5 19.5t-19.5 51.5q0 31 20 51.5t49 20.5h55v329h128v-74h8q98 83 217 83q91 0 149 -49q59 -48 59 -134v-298zM183 159v-16h302v90q0 47 -27 75t-79 28q-86 0 -141 -55q-55 -54 -55 -122z" />
    <glyph glyph-name="uni0635.medi" unicode="&#x635;" horiz-adv-x="671" arabic-form="medial" 
d="M671 0h-671q-30 0 -49.5 19.5t-19.5 51.5q0 31 20 51.5t49 20.5h55v329h128v-74h8q98 83 217 83q91 0 149 -49q59 -48 59 -134v-155h55v-143zM183 159v-16h302v90q0 47 -27 75t-79 28q-86 0 -141 -55q-55 -54 -55 -122z" />
    <glyph glyph-name="uni0636.fina" unicode="&#x636;" horiz-adv-x="975" arabic-form="final" 
d="M975 0h-487v-7q0 -89 -61 -144q-62 -56 -158 -56q-101 0 -157.5 54t-56.5 146v295h129v-267q0 -88 86 -88q43 0 66 25t23 63v451h128v-74h8q98 83 217 83q91 0 149 -49q59 -48 59 -134v-155h55v-143zM487 159v-16h302v90q0 47 -27 75t-79 28q-86 0 -141 -55
q-55 -54 -55 -122zM727 560h-109v96h109v-96z" />
    <glyph glyph-name="uni0636.init" unicode="&#x636;" horiz-adv-x="671" arabic-form="initial" 
d="M616 0h-616q-30 0 -49.5 19.5t-19.5 51.5q0 31 20 51.5t49 20.5h55v329h128v-74h8q98 83 217 83q91 0 149 -49q59 -48 59 -134v-298zM183 159v-16h302v90q0 47 -27 75t-79 28q-86 0 -141 -55q-55 -54 -55 -122zM434 560h-109v96h109v-96z" />
    <glyph glyph-name="uni0636.medi" unicode="&#x636;" horiz-adv-x="671" arabic-form="medial" 
d="M671 0h-671q-30 0 -49.5 19.5t-19.5 51.5q0 31 20 51.5t49 20.5h55v329h128v-74h8q98 83 217 83q91 0 149 -49q59 -48 59 -134v-155h55v-143zM183 159v-16h302v90q0 47 -27 75t-79 28q-86 0 -141 -55q-55 -54 -55 -122zM434 560h-109v96h109v-96z" />
    <glyph glyph-name="uni0637.fina" unicode="&#x637;" horiz-adv-x="806" arabic-form="final" 
d="M806 0h-756v143h140v583h128v-328h8q98 83 217 83q91 0 149 -49q59 -48 59 -134v-155h55v-143zM318 159v-16h302v90q0 47 -27 75t-79 28q-86 0 -141 -55q-55 -54 -55 -122z" />
    <glyph glyph-name="uni0637.init" unicode="&#x637;" horiz-adv-x="671" arabic-form="initial" 
d="M616 0h-616q-30 0 -49.5 19.5t-19.5 51.5q0 31 20 51.5t49 20.5h55v583h128v-328h8q98 83 217 83q91 0 149 -49q59 -48 59 -134v-298zM183 159v-16h302v90q0 47 -27 75t-79 28q-86 0 -141 -55q-55 -54 -55 -122z" />
    <glyph glyph-name="uni0637.medi" unicode="&#x637;" horiz-adv-x="671" arabic-form="medial" 
d="M671 0h-671q-30 0 -49.5 19.5t-19.5 51.5q0 31 20 51.5t49 20.5h55v583h128v-328h8q98 83 217 83q91 0 149 -49q59 -48 59 -134v-155h55v-143zM183 159v-16h302v90q0 47 -27 75t-79 28q-86 0 -141 -55q-55 -54 -55 -122z" />
    <glyph glyph-name="uni0638.fina" unicode="&#x638;" horiz-adv-x="806" arabic-form="final" 
d="M806 0h-756v143h140v583h128v-328h8q98 83 217 83q91 0 149 -49q59 -48 59 -134v-155h55v-143zM318 159v-16h302v90q0 47 -27 75t-79 28q-86 0 -141 -55q-55 -54 -55 -122zM574 560h-109v96h109v-96z" />
    <glyph glyph-name="uni0638.init" unicode="&#x638;" horiz-adv-x="671" arabic-form="initial" 
d="M616 0h-616q-30 0 -49.5 19.5t-19.5 51.5q0 31 20 51.5t49 20.5h55v583h128v-328h8q98 83 217 83q91 0 149 -49q59 -48 59 -134v-298zM183 159v-16h302v90q0 47 -27 75t-79 28q-86 0 -141 -55q-55 -54 -55 -122zM434 560h-109v96h109v-96z" />
    <glyph glyph-name="uni0638.medi" unicode="&#x638;" horiz-adv-x="671" arabic-form="medial" 
d="M671 0h-671q-30 0 -49.5 19.5t-19.5 51.5q0 31 20 51.5t49 20.5h55v583h128v-328h8q98 83 217 83q91 0 149 -49q59 -48 59 -134v-155h55v-143zM183 159v-16h302v90q0 47 -27 75t-79 28q-86 0 -141 -55q-55 -54 -55 -122zM434 560h-109v96h109v-96z" />
    <glyph glyph-name="uni0639.fina" unicode="&#x639;" horiz-adv-x="627" arabic-form="final" 
d="M55 -81q0 60 34.5 115.5t91.5 86.5q-88 69 -88 167q0 50 20 88.5t54.5 60.5t75 33t85.5 11q96 0 170 -47t74 -131q0 -44 -27 -86t-70 -63q30 -11 94 -11h58v-143h-58q-81 0 -161 15q-83 17 -121 41q-42 -20 -71 -54t-29 -70q0 -78 125 -78q28 0 35 1l14 -127
q-34 -6 -70 -6q-102 0 -169 49q-67 48 -67 148zM231 288q0 -26 26 -52.5t78 -45.5q48 12 73 35t25 51q0 33 -32 53.5t-76 20.5q-41 0 -67.5 -16.5t-26.5 -45.5z" />
    <glyph glyph-name="uni0639.init" unicode="&#x639;" horiz-adv-x="564" arabic-form="initial" 
d="M201 232q0 -38 28 -63.5t78 -25.5h184v-143h-491q-30 0 -49.5 19.5t-19.5 51.5q0 31 20 51.5t49 20.5h72l4 6q-21 25 -21 87q0 66 21.5 115.5t57.5 76.5t75.5 40t82.5 13q119 0 217 -71l-68 -124q-68 46 -135 46q-46 0 -75.5 -25t-29.5 -75z" />
    <glyph glyph-name="uni0639.medi" unicode="&#x639;" horiz-adv-x="582" arabic-form="medial" 
d="M-69 71q0 30 20.5 51t48.5 21h36q62 0 80 9q-61 51 -61 140q0 87 68 138q69 51 175 51q58 0 108 -18q53 -19 87 -62.5t34 -103.5q0 -40 -18 -79.5t-48 -63.5q28 -11 88 -11h33v-143h-43q-77 0 -145 15q-67 15 -101 44q-42 -29 -112 -44q-71 -15 -135 -15h-46
q-29 0 -49 20t-20 51zM296 348q-56 0 -81.5 -21t-25.5 -51q0 -31 25 -59t80 -45q49 14 75 44t26 64q0 10 -3 19t-12 21.5t-30.5 20t-53.5 7.5z" />
    <glyph glyph-name="uni063A.fina" unicode="&#x63a;" horiz-adv-x="627" arabic-form="final" 
d="M55 -81q0 60 34.5 115.5t91.5 86.5q-88 69 -88 167q0 50 20 88.5t54.5 60.5t75 33t85.5 11q96 0 170 -47t74 -131q0 -44 -27 -86t-70 -63q30 -11 94 -11h58v-143h-58q-81 0 -161 15q-83 17 -121 41q-42 -20 -71 -54t-29 -70q0 -78 125 -78q28 0 35 1l14 -127
q-34 -6 -70 -6q-102 0 -169 49q-67 48 -67 148zM231 288q0 -26 26 -52.5t78 -45.5q48 12 73 35t25 51q0 33 -32 53.5t-76 20.5q-41 0 -67.5 -16.5t-26.5 -45.5zM367 560h-109v96h109v-96z" />
    <glyph glyph-name="uni063A.init" unicode="&#x63a;" horiz-adv-x="564" arabic-form="initial" 
d="M201 232q0 -38 28 -63.5t78 -25.5h184v-143h-491q-30 0 -49.5 19.5t-19.5 51.5q0 31 20 51.5t49 20.5h72l4 6q-21 25 -21 87q0 66 21.5 115.5t57.5 76.5t75.5 40t82.5 13q119 0 217 -71l-68 -124q-68 46 -135 46q-46 0 -75.5 -25t-29.5 -75zM336 560h-109v96h109v-96z
" />
    <glyph glyph-name="uni063A.medi" unicode="&#x63a;" horiz-adv-x="582" arabic-form="medial" 
d="M-69 71q0 30 20.5 51t48.5 21h36q62 0 80 9q-61 51 -61 140q0 87 68 138q69 51 175 51q58 0 108 -18q53 -19 87 -62.5t34 -103.5q0 -40 -18 -79.5t-48 -63.5q28 -11 88 -11h33v-143h-43q-77 0 -145 15q-67 15 -101 44q-42 -29 -112 -44q-71 -15 -135 -15h-46
q-29 0 -49 20t-20 51zM296 348q-56 0 -81.5 -21t-25.5 -51q0 -31 25 -59t80 -45q49 14 75 44t26 64q0 10 -3 19t-12 21.5t-30.5 20t-53.5 7.5zM345 560h-109v96h109v-96z" />
    <glyph glyph-name="uni0641.fina" unicode="&#x641;" horiz-adv-x="871" arabic-form="final" 
d="M184 358v-77q0 -74 27 -106t99 -32h29q56 0 75 -4l2 6q-38 41 -38 124q0 90 59 151q58 61 158 61q106 0 163.5 -59t57.5 -162q0 -25 -9 -58t-23 -52l1 -7h86v-143h-555q-261 0 -261 252v106h129zM510 248q0 -38 30.5 -69t79.5 -37q64 34 64 109q0 40 -22.5 65t-62.5 25
q-42 0 -65.5 -27t-23.5 -66zM647 560h-109v96h109v-96z" />
    <glyph glyph-name="uni0641.init" unicode="&#x641;" horiz-adv-x="548" arabic-form="initial" 
d="M0 143h31q39 0 58 -4l2 6q-36 43 -36 112q0 101 58 162q59 62 159 62q107 0 164 -62t57 -176q0 -113 -71 -178t-181 -65h-241q-30 0 -49.5 19.5t-19.5 51.5q0 31 20 51.5t49 20.5zM187 248q0 -38 31.5 -70t78.5 -38q64 36 64 111q0 40 -22.5 65t-62.5 25q-42 0 -65.5 -27
t-23.5 -66zM328 560h-109v96h109v-96z" />
    <glyph glyph-name="uni0641.medi" unicode="&#x641;" horiz-adv-x="548" arabic-form="medial" 
d="M461 150l1 -7h86v-143h-548q-30 0 -49.5 19.5t-19.5 51.5q0 31 20 51.5t49 20.5h16q56 0 75 -4l2 6q-38 41 -38 124q0 90 59 151q58 61 158 61q106 0 163.5 -59t57.5 -162q0 -25 -9 -58t-23 -52zM187 248q0 -38 30.5 -69t79.5 -37q64 34 64 109q0 40 -22.5 65t-62.5 25
q-42 0 -65.5 -27t-23.5 -66zM328 560h-109v96h109v-96z" />
    <glyph glyph-name="uni0642.fina" unicode="&#x642;" horiz-adv-x="746" arabic-form="final" 
d="M746 143v-143h-53q-14 -116 -93 -177.5t-215 -61.5q-330 0 -330 294v233h129v-203q0 -181 203 -181q39 0 68 7q34 7 62 32.5t34 62.5h-76q-102 0 -161 59t-59 168q0 117 60.5 182.5t170.5 65.5q102 0 156 -62.5t54 -184.5v-91h50zM483 338q-45 0 -72 -28.5t-27 -76.5
q0 -42 22.5 -66.5t63.5 -24.5h97v93q0 50 -22 76.5t-62 26.5zM466 560h-101v96h101v-96zM589 560h-101v96h101v-96z" />
    <glyph glyph-name="uni0642.init" unicode="&#x642;" horiz-adv-x="548" arabic-form="initial" 
d="M0 143h31q39 0 58 -4l2 6q-36 43 -36 112q0 101 58 162q59 62 159 62q107 0 164 -62t57 -176q0 -113 -71 -178t-181 -65h-241q-30 0 -49.5 19.5t-19.5 51.5q0 31 20 51.5t49 20.5zM187 248q0 -38 31.5 -70t78.5 -38q64 36 64 111q0 40 -22.5 65t-62.5 25q-42 0 -65.5 -27
t-23.5 -66zM263 560h-101v96h101v-96zM386 560h-101v96h101v-96z" />
    <glyph glyph-name="uni0642.medi" unicode="&#x642;" horiz-adv-x="548" arabic-form="medial" 
d="M461 150l1 -7h86v-143h-548q-30 0 -49.5 19.5t-19.5 51.5q0 31 20 51.5t49 20.5h16q56 0 75 -4l2 6q-38 41 -38 124q0 90 59 151q58 61 158 61q106 0 163.5 -59t57.5 -162q0 -25 -9 -58t-23 -52zM187 248q0 -38 30.5 -69t79.5 -37q64 34 64 109q0 40 -22.5 65t-62.5 25
q-42 0 -65.5 -27t-23.5 -66zM263 560h-101v96h101v-96zM386 560h-101v96h101v-96z" />
    <glyph glyph-name="uni0643.fina" unicode="&#x643;" horiz-adv-x="815" arabic-form="final" 
d="M611 205v522h129v-506q0 -43 15.5 -60.5t59.5 -17.5v-143q-101 0 -131 59q-25 -35 -53.5 -47t-71.5 -12h-243q-261 0 -261 252v106h129v-77q0 -71 28.5 -104.5t97.5 -33.5h247q54 0 54 62zM534 487l-29 -60q-31 18 -68 18q-20 0 -32 -10t-12 -26q0 -14 9.5 -23.5
t25.5 -9.5h105v-66h-251v66h38l3 2q-6 14 -6 31q0 38 30 71q30 34 94 34q49 0 93 -27z" />
    <glyph glyph-name="uni0643.init" unicode="&#x643;" horiz-adv-x="526" arabic-form="initial" 
d="M-72 72q0 31 20.5 51t51.5 20h331v41q0 61 -37 83l-239 139v88l400 252l62 -95l-301 -187l153 -87q66 -37 79 -90q12 -39 12 -98v-189h-462q-31 0 -50.5 19.5t-19.5 52.5z" />
    <glyph glyph-name="uni0643.medi" unicode="&#x643;" horiz-adv-x="526" arabic-form="medial" 
d="M-72 72q0 31 20.5 51t51.5 20h331v41q0 61 -37 83l-239 139v88l400 252l62 -95l-301 -187l153 -87q66 -37 79 -90q12 -39 12 -98v-46h66v-143h-528q-31 0 -50.5 19.5t-19.5 52.5z" />
    <glyph glyph-name="uni0644.fina" unicode="&#x644;" horiz-adv-x="544" arabic-form="final" 
d="M359 726h130v-583h55v-143h-55q-2 -92 -62 -149q-58 -58 -158 -58q-101 0 -157.5 54.5t-56.5 147.5v293h129v-262q0 -39 21.5 -66t64.5 -27q45 0 67 26.5t22 66.5v700z" />
    <glyph glyph-name="uni0644.init" unicode="&#x644;" horiz-adv-x="241" arabic-form="initial" 
d="M57 218v508h129v-493q0 -94 -33 -157q-38 -76 -153 -76q-30 0 -49.5 20.5t-19.5 50.5t19.5 50t49.5 22q57 3 57 75z" />
    <glyph glyph-name="uni0644.medi" unicode="&#x644;" horiz-adv-x="266" arabic-form="medial" 
d="M62 211v515h129v-505q0 -44 15 -61t60 -17v-143q-99 0 -131 59q-45 -59 -135 -59q-30 0 -49.5 19.5t-19.5 51.5q0 31 20 51.5t49 20.5q62 0 62 68z" />
    <glyph glyph-name="uni0645.fina" unicode="&#x645;" horiz-adv-x="777" arabic-form="final" 
d="M406 235v-99h92q39 0 59.5 26t20.5 73q0 49 -22.5 76t-66.5 27q-83 0 -83 -103zM488 481q106 0 162.5 -64t56.5 -182q0 -52 14 -72t56 -20v-143q-112 0 -145 47q-27 -27 -55.5 -37t-78.5 -10h-228q-44 0 -65 -21t-21 -54v-197h-129v196q0 114 52.5 166.5t169.5 52.5v91
q0 122 54.5 184.5t156.5 62.5z" />
    <glyph glyph-name="uni0645.init" unicode="&#x645;" horiz-adv-x="567" arabic-form="initial" 
d="M283 -7q-47 0 -88 16.5t-61 46.5q-50 -56 -133 -56q-31 0 -50.5 19.5t-19.5 51.5q0 30 20.5 51t49.5 21q61 0 61 68v20q0 115 62 183q63 67 169 67q102 0 160 -67q59 -68 59 -174q0 -115 -60.5 -181t-168.5 -66zM291 338q-43 0 -69 -30.5t-26 -75.5q0 -42 23 -69.5
t65 -27.5q46 0 71 28t25 70q0 48 -23.5 76.5t-65.5 28.5z" />
    <glyph glyph-name="uni0645.medi" unicode="&#x645;" horiz-adv-x="578" arabic-form="medial" 
d="M578 143v-143q-111 0 -144 47q-57 -54 -151 -54q-47 0 -88 16.5t-61 46.5q-50 -56 -133 -56q-31 0 -50.5 19.5t-19.5 51.5q0 30 20.5 51t49.5 21q61 0 61 68v20q0 115 62 183q63 67 169 67q102 0 159 -65.5t57 -180.5q0 -45 8 -65q11 -27 61 -27zM288 339
q-43 0 -69 -30.5t-26 -75.5q0 -42 23 -69.5t65 -27.5q45 0 70.5 27.5t25.5 68.5q0 48 -24 77.5t-65 29.5z" />
    <glyph glyph-name="uni0646.fina" unicode="&#x646;" horiz-adv-x="544" arabic-form="final" 
d="M360 393h129v-250h55v-143h-55q-2 -92 -62 -149q-58 -58 -158 -58q-101 0 -157.5 54.5t-56.5 147.5v293h129v-262q0 -39 21.5 -66t64.5 -27q90 0 90 93v367zM332 456h-109v96h109v-96z" />
    <glyph glyph-name="uni0646.init" unicode="&#x646;" horiz-adv-x="241" arabic-form="initial" 
d="M57 218v240h129v-225q0 -94 -33 -157q-38 -76 -153 -76q-30 0 -49.5 20.5t-19.5 50.5t19.5 50t49.5 22q57 3 57 75zM174 535h-109v96h109v-96z" />
    <glyph glyph-name="uni0646.medi" unicode="&#x646;" horiz-adv-x="266" arabic-form="medial" 
d="M62 211v182h129v-172q0 -44 15 -61t60 -17v-143q-99 0 -131 59q-45 -59 -135 -59q-30 0 -49.5 19.5t-19.5 51.5q0 31 20 51.5t49 20.5q62 0 62 68zM187 456h-109v96h109v-96z" />
    <glyph glyph-name="uniFEE9" unicode="&#x647;" horiz-adv-x="558" arabic-form="isolated" 
d="M287 480q86 0 151 -77t65 -183q0 -109 -56 -167t-167 -58q-225 0 -225 218q0 106 68 186q67 81 164 81zM284 339q-38 0 -64 -35t-26 -76q0 -91 90 -91q42 0 63 25.5t21 66.5q0 47 -27 78q-26 32 -57 32z" />
    <glyph glyph-name="uni0647.fina" unicode="&#x647;" horiz-adv-x="552" arabic-form="final" 
d="M191 212q0 -44 52 -44q17 0 33 3.5t34.5 13t30 30.5t11.5 51v45q-50 -5 -84.5 -17t-49.5 -27.5t-21 -28.5t-6 -26zM239 29q-93 0 -138.5 43t-45.5 121q0 74 58 143q68 81 237 104v41h132v-273q0 -65 70 -65v-143h-18q-56 0 -97 24.5t-51 60.5q-26 -23 -71 -40
q-42 -16 -76 -16z" />
    <glyph glyph-name="uni0647.init" unicode="&#x647;" horiz-adv-x="714" arabic-form="initial" 
d="M423 0h-423q-31 0 -50 19.5t-19 51.5q0 31 20 51.5t49 20.5h14q45 0 72 -5l1 5q-32 32 -32 98q0 69 37 117.5t100 61.5l-16 35q116 65 240 65q106 0 174.5 -62.5t68.5 -202.5q0 -129 -67 -192q-66 -63 -169 -63zM413 142v-3q112 0 112 119q0 57 -27.5 89t-74.5 32
q-21 0 -36 -4q51 -53 51 -139q0 -54 -25 -94zM187 233q0 -31 20 -55.5t54 -30.5q41 27 41 82q0 32 -14.5 51.5t-41.5 19.5t-43 -19t-16 -48z" />
    <glyph glyph-name="uni0647.medi" unicode="&#x647;" horiz-adv-x="735" arabic-form="medial" 
d="M735 143v-143q-60 0 -96.5 12t-61.5 46q-58 -58 -154 -58h-423q-31 0 -50 19.5t-19 51.5q0 31 20 51.5t49 20.5h24q35 0 62 -5l1 5q-32 32 -32 98q0 69 37 117.5t100 61.5l-16 35q116 65 240 65q50 0 91.5 -13.5t77 -43t55.5 -83.5t20 -128q0 -58 16.5 -83.5t58.5 -25.5z
M413 142v-3q112 0 112 119q0 57 -27.5 89t-74.5 32q-21 0 -36 -4q51 -53 51 -139q0 -54 -25 -94zM187 233q0 -31 20 -55.5t54 -30.5q41 27 41 82q0 32 -14.5 51.5t-41.5 19.5t-43 -19t-16 -48z" />
    <glyph glyph-name="uni0648.fina" unicode="&#x648;" horiz-adv-x="551" arabic-form="final" 
d="M96 -239v143h150q58 0 84.5 25t29.5 63l1 14h-86q-102 0 -161 59t-59 168q0 117 60.5 182.5t170.5 65.5q102 0 156 -62.5t54 -184.5v-91h55v-143h-55q-3 -114 -65 -176.5t-180 -62.5h-155zM283 338q-45 0 -72 -28.5t-27 -76.5q0 -40 23.5 -65.5t62.5 -25.5h97v93
q0 50 -22 76.5t-62 26.5z" />
    <glyph glyph-name="uni0649.fina" unicode="&#x649;" horiz-adv-x="885" arabic-form="final" 
d="M55 358h129v-77q0 -71 28.5 -104.5t97.5 -33.5h166v154q0 89 48 136.5t132 47.5h174v-338h55v-143h-184v337h-52q-44 0 -44 -57v-280h-289q-261 0 -261 252v106z" />
    <glyph glyph-name="uni064A.fina" unicode="&#x64a;" horiz-adv-x="885" arabic-form="final" 
d="M55 358h129v-77q0 -71 28.5 -104.5t97.5 -33.5h166v154q0 89 48 136.5t132 47.5h174v-338h55v-143h-184v337h-52q-44 0 -44 -57v-280h-289q-261 0 -261 252v106zM402 -171h-101v96h101v-96zM525 -171h-101v96h101v-96z" />
    <glyph glyph-name="uni064A.init" unicode="&#x64a;" horiz-adv-x="241" arabic-form="initial" 
d="M57 218v240h129v-225q0 -94 -33 -157q-38 -76 -153 -76q-30 0 -49.5 20.5t-19.5 50.5t19.5 50t49.5 22q57 3 57 75zM109 -171h-101v96h101v-96zM232 -171h-101v96h101v-96z" />
    <glyph glyph-name="uni064A.medi" unicode="&#x64a;" horiz-adv-x="266" arabic-form="medial" 
d="M62 211v182h129v-172q0 -44 15 -61t60 -17v-143q-99 0 -131 59q-45 -59 -135 -59q-30 0 -49.5 19.5t-19.5 51.5q0 31 20 51.5t49 20.5q62 0 62 68zM122 -171h-101v96h101v-96zM245 -171h-101v96h101v-96z" />
    <glyph glyph-name=".notdef" horiz-adv-x="460" 
d="M460 0h-460v700h460v-700zM230 262l-92 -167h185zM136 605l94 -165l93 165h-187zM178 351l-83 153v-305zM365 503l-83 -154l83 -150v304z" />
    <glyph glyph-name=".null" horiz-adv-x="0" 
 />
    <glyph glyph-name="nonmarkingreturn" horiz-adv-x="333" 
 />
    <glyph glyph-name="NULL" horiz-adv-x="0" 
 />
    <glyph glyph-name="NULL" horiz-adv-x="0" 
 />
    <glyph glyph-name="CR.001" unicode="&#xd;" horiz-adv-x="0" 
 />
    <glyph glyph-name="space" unicode=" " horiz-adv-x="280" 
 />
    <glyph glyph-name="space" unicode="&#xa0;" horiz-adv-x="280" 
 />
    <glyph glyph-name="exclam" unicode="!" horiz-adv-x="294" 
d="M75 696h144l-10 -505h-123zM221 128v-128h-147v128h147z" />
    <glyph glyph-name="quotedbl" unicode="&#x22;" horiz-adv-x="409" 
d="M347 696v-227h-124v227h124zM177 696v-227h-123v227h123z" />
    <glyph glyph-name="numbersign" unicode="#" horiz-adv-x="592" 
d="M567 396h-105l-15 -95h92v-98h-106l-29 -203h-121l30 203h-83l-30 -203h-122l30 203h-85v98h101l14 95h-87v99h102l30 201h118l-29 -201h85l30 201h118l-29 -201h91v-99zM343 396h-85l-15 -95h85z" />
    <glyph glyph-name="dollar" unicode="$" horiz-adv-x="550" 
d="M302 -106h-55v103q-124 7 -230 104l86 110q76 -62 144 -70v138q-92 35 -146 81q-54 48 -54 129q0 86 54 143q55 58 146 67v67h55v-66q112 -5 211 -74l-76 -127q-83 54 -135 58v-131q120 -40 175.5 -91t55.5 -129q0 -94 -65 -150t-166 -60v-102zM360 194q0 45 -58 68v-120
q58 10 58 52zM202 501q0 -29 45 -53v106q-45 -12 -45 -53z" />
    <glyph glyph-name="percent" unicode="%" horiz-adv-x="925" 
d="M850 291v-166q0 -59 -45 -93q-44 -35 -105 -35q-60 0 -104 35t-44 93v166q0 59 44 94t104 35q61 0 105 -35q45 -35 45 -94zM739 126v165q0 37 -39 37q-38 0 -38 -37v-165q0 -36 38 -36q39 0 39 36zM372 570v-166q0 -58 -45 -93q-44 -35 -105 -35q-60 0 -104 35t-44 93
v166q0 59 44 94t104 35q61 0 105 -35q45 -35 45 -94zM261 405v165q0 37 -39 37q-38 0 -38 -37v-165q0 -36 38 -36q39 0 39 36zM616 713h118l-426 -730h-117z" />
    <glyph glyph-name="ampersand" unicode="&#x26;" horiz-adv-x="662" 
d="M646 0h-165l-43 57q-76 -63 -165 -63q-103 0 -155 54q-53 55 -53 134q0 120 117 206l-13 16q-46 56 -46 123q0 82 48.5 128t142.5 46q116 0 195 -69l-77 -106q-58 49 -119 49q-24 0 -40.5 -13.5t-16.5 -33.5q0 -26 25 -58l158 -208q18 41 25 95l126 -33
q-20 -104 -65 -173zM361 155l-104 134q-61 -46 -61 -102q0 -30 21 -48t58 -18q43 0 86 34z" />
    <glyph glyph-name="quotesingle" unicode="'" horiz-adv-x="260" 
d="M191 696v-227h-123v227h123z" />
    <glyph glyph-name="parenleft" unicode="(" horiz-adv-x="373" 
d="M352 -79l-83 -63q-96 103 -151 218.5t-55 228.5q0 223 202 443l86 -55q-67 -87 -102 -188.5t-35 -194.5q0 -97 36 -199.5t102 -189.5z" />
    <glyph glyph-name="parenright" unicode=")" horiz-adv-x="373" 
d="M341 305q0 -225 -205 -447l-84 63q66 87 102 189t36 200q0 95 -35 195.5t-102 187.5l86 55q202 -217 202 -443z" />
    <glyph glyph-name="asterisk" unicode="*" horiz-adv-x="464" 
d="M422 519l-116 -26l80 -89l-91 -65l-59 103l-63 -103l-90 65l82 89l-114 26l32 102l111 -46l-13 119h113l-14 -119l110 46z" />
    <glyph glyph-name="plus" unicode="+" horiz-adv-x="550" 
d="M531 356v-116h-194v-186h-124v186h-194v116h194v183h124v-183h194z" />
    <glyph glyph-name="comma" unicode="," horiz-adv-x="299" 
d="M234 7l-98 -158h-73l38 150h-36v166h169v-158z" />
    <glyph glyph-name="hyphen" unicode="-" horiz-adv-x="440" 
d="M393 323v-131h-346v131h346z" />
    <glyph glyph-name="period" unicode="." horiz-adv-x="297" 
d="M233 165v-165h-169v165h169z" />
    <glyph glyph-name="slash" unicode="/" horiz-adv-x="368" 
d="M237 725h120l-254 -767h-119z" />
    <glyph glyph-name="zero" unicode="0" horiz-adv-x="550" 
d="M506 491v-287q0 -96 -66 -153q-65 -56 -156 -56q-90 0 -155 57t-65 152v287q0 96 65 153t155 57q92 0 156 -57q66 -57 66 -153zM358 205v286q0 37 -20 57t-54 20t-53.5 -19.5t-19.5 -57.5v-286q0 -38 19.5 -57.5t53.5 -19.5t54 20t20 57z" />
    <glyph glyph-name="one" unicode="1" horiz-adv-x="550" 
d="M400 696v-696h-147v531l-104 -72v154l120 83h131z" />
    <glyph glyph-name="two" unicode="2" horiz-adv-x="550" 
d="M198 474l-144 24q10 92 72 147q64 56 148 56q102 0 163 -52t61 -146q0 -83 -49 -139l-198 -226h246v-138h-445v123l278 319q19 22 19 50q0 30 -20 50.5t-52 20.5q-68 0 -79 -89z" />
    <glyph glyph-name="three" unicode="3" horiz-adv-x="550" 
d="M45 178l142 20q12 -65 84 -65q34 0 57.5 22.5t23.5 58.5q0 41 -24 64t-69 23h-60v115h62q43 0 65.5 20.5t22.5 54.5q0 31 -23 51.5t-55 20.5q-28 0 -49 -18.5t-27 -54.5l-141 25q16 86 80 136t143 50q112 0 170 -58q59 -57 59 -143q0 -37 -26 -81q-25 -41 -67 -60
q45 -19 71 -60.5t26 -86.5q0 -95 -65 -157q-65 -60 -170 -60q-81 0 -146 45q-65 46 -84 138z" />
    <glyph glyph-name="four" unicode="4" horiz-adv-x="550" 
d="M527 230v-133h-56v-97h-147v97h-296v115l241 484h164l-235 -466h126v182h147v-182h56z" />
    <glyph glyph-name="five" unicode="5" horiz-adv-x="550" 
d="M59 177l145 27q11 -71 77 -71q79 0 79 117q0 107 -79 107q-48 0 -73 -58h-134v397h414v-135h-273v-108q40 34 105 34q97 0 142.5 -56t49.5 -165q0 -130 -58 -200.5t-169 -70.5q-83 0 -146 41t-80 141z" />
    <glyph glyph-name="six" unicode="6" horiz-adv-x="550" 
d="M509 225q0 -114 -69 -172q-67 -58 -163 -58q-87 0 -152 59q-65 60 -65 161q0 67 28 119l193 362h165l-145 -273l1 -2q94 10 150 -47q57 -55 57 -149zM358 217q0 41 -21 63t-55 22q-33 0 -54 -22t-21 -63q0 -84 75 -84q31 0 53.5 22.5t22.5 61.5z" />
    <glyph glyph-name="seven" unicode="7" horiz-adv-x="550" 
d="M496 696v-123l-250 -573h-155l235 558h-126v-94h-147v232h443z" />
    <glyph glyph-name="eight" unicode="8" horiz-adv-x="550" 
d="M427 363v-4q44 -17 68 -60q25 -43 25 -90q0 -94 -69 -154q-67 -60 -166 -60q-98 0 -167 60q-68 60 -68 154q0 49 24.5 90.5t67.5 58.5v5q-37 15 -57.5 52t-20.5 81q0 88 63 146q64 59 158 59q106 0 164 -55.5t58 -149.5q0 -43 -20.5 -79t-59.5 -54zM361 492
q0 34 -20.5 56t-55.5 22t-55 -21t-20 -57q0 -32 21 -51t54 -19q31 0 53.5 20t22.5 50zM373 214q0 34 -26 57t-62 23t-62 -23.5t-26 -56.5q0 -36 25 -60.5t63 -24.5q39 0 63.5 24.5t24.5 60.5z" />
    <glyph glyph-name="nine" unicode="9" horiz-adv-x="550" 
d="M60 471q0 113 68 172q67 58 163 58q89 0 153 -60q65 -59 65 -160q0 -66 -29 -119l-193 -362h-165l145 273l-1 2q-94 -10 -150 46q-56 58 -56 150zM208 479q0 -41 20.5 -63t54.5 -22t55 22t21 63q0 84 -76 84q-31 0 -53 -22.5t-22 -61.5z" />
    <glyph glyph-name="colon" unicode=":" horiz-adv-x="303" 
d="M236 165v-165h-169v165h169zM236 433v-165h-169v165h169z" />
    <glyph glyph-name="semicolon" unicode=";" horiz-adv-x="303" 
d="M236 7l-98 -158h-73l38 150h-36v166h169v-158zM236 433v-165h-169v165h169z" />
    <glyph glyph-name="less" unicode="&#x3c;" horiz-adv-x="550" 
d="M529 148v-131l-511 225v112l511 223v-131l-353 -149z" />
    <glyph glyph-name="equal" unicode="=" horiz-adv-x="550" 
d="M532 468v-111h-514v111h514zM532 239v-111h-514v111h514z" />
    <glyph glyph-name="greater" unicode="&#x3e;" horiz-adv-x="550" 
d="M530 354v-112l-511 -225v131l353 149l-353 149v131z" />
    <glyph glyph-name="question" unicode="?" horiz-adv-x="522" 
d="M179 474l-146 17q9 96 76 153q68 57 155 57q101 0 160 -56q60 -55 60 -142q0 -76 -75 -147q-74 -68 -74 -140v-22h-147v27q0 56 19 95t72 109q43 52 43 79q0 26 -19.5 42.5t-47.5 16.5q-71 0 -76 -89zM335 128v-128h-147v128h147z" />
    <glyph glyph-name="at" unicode="@" horiz-adv-x="920" 
d="M627 401l-1 -143q0 -17 10 -29.5t30 -12.5q53 0 70 52q16 44 16 115q0 118 -80 190t-200 72q-133 0 -222 -92q-87 -92 -87 -223q0 -134 91 -219q92 -84 230 -84q120 0 233 52l32 -87q-138 -55 -260 -55q-187 0 -306 106q-120 107 -120 289q0 171 117 285q118 114 294 114
q168 0 272 -95q105 -94 105 -251q0 -51 -10 -96t-32 -83.5t-62 -61t-94 -22.5q-31 0 -68 17q-36 17 -48 48h-4q-15 -26 -46.5 -44.5t-66.5 -18.5q-65 0 -105 32.5t-40 92.5q0 56 40 91.5t108 35.5h92v13q0 51 -69 51q-32 0 -50 -6.5t-42 -25.5l-56 75q65 58 161 58
q73 0 120.5 -33t47.5 -107zM515 277v13h-77q-50 0 -50 -31q0 -7 3.5 -14.5t17 -15.5t35.5 -8q31 0 51 14.5t20 41.5z" />
    <glyph glyph-name="A" unicode="A" horiz-adv-x="660" 
d="M389 696l270 -696h-162l-52 142h-233l-52 -142h-162l270 696h121zM260 272h137l-26 80l-41 138h-4l-40 -136z" />
    <glyph glyph-name="B" unicode="B" horiz-adv-x="637" 
d="M604 207q0 -91 -64 -149q-62 -58 -153 -58h-317v696h293q108 0 169 -53.5t61 -143.5q0 -43 -22 -79.5t-65 -56.5v-4q46 -17 71 -62q27 -45 27 -90zM430 492q0 66 -88 66h-118v-139h118q43 0 65.5 20.5t22.5 52.5zM446 214q0 34 -24 56t-67 22h-131v-154h131q44 0 67.5 21
t23.5 55z" />
    <glyph glyph-name="C" unicode="C" horiz-adv-x="600" 
d="M427 225l146 -56q-26 -82 -94.5 -128.5t-164.5 -46.5q-130 0 -199.5 73t-69.5 199v164q0 116 70 193q71 78 199 78q96 0 164 -47.5t95 -129.5l-146 -52q-9 39 -39 62t-75 23q-52 0 -82.5 -32t-30.5 -81v-189q0 -51 30 -84t83 -33q44 0 75 24t39 63z" />
    <glyph glyph-name="D" unicode="D" horiz-adv-x="657" 
d="M322 557h-98v-419h101q71 0 102 37t31 112v127q0 74 -32.5 108.5t-103.5 34.5zM70 0v696h277q175 0 237 -129q27 -55 27 -207q0 -165 -25 -222q-60 -138 -256 -138h-260z" />
    <glyph glyph-name="E" unicode="E" horiz-adv-x="585" 
d="M562 138v-138h-492v696h492v-138h-338v-141h288v-133h-288v-146h338z" />
    <glyph glyph-name="F" unicode="F" horiz-adv-x="566" 
d="M562 696v-138h-338v-147h288v-133h-288v-278h-154v696h492z" />
    <glyph glyph-name="G" unicode="G" horiz-adv-x="637" 
d="M318 701q96 0 164 -47.5t95 -129.5l-146 -52q-9 39 -39 62t-75 23q-52 0 -82.5 -32t-30.5 -81v-189q0 -51 30.5 -84.5t83.5 -33.5q49 0 84 35q36 34 36 82v5h-142v128h294v-139q0 -108 -79 -181t-193 -73q-130 0 -199.5 73t-69.5 199v164q0 116 70 193q71 78 199 78z" />
    <glyph glyph-name="H" unicode="H" horiz-adv-x="674" 
d="M604 696v-696h-152v284h-228v-284h-154v696h154v-279h228v279h152z" />
    <glyph glyph-name="I" unicode="I" horiz-adv-x="294" 
d="M227 696v-696h-154v696h154z" />
    <glyph glyph-name="J" unicode="J" 
d="M448 696v-471q0 -123 -65 -177q-65 -53 -169 -53q-144 0 -211 93l103 101q50 -54 99 -54q40 0 65.5 23t25.5 74v464h152z" />
    <glyph glyph-name="K" unicode="K" horiz-adv-x="657" 
d="M419 414l258 -414h-182l-180 296l-91 -102v-194h-154v696h154v-298l2 -2l106 129l145 171h186z" />
    <glyph glyph-name="L" unicode="L" horiz-adv-x="585" 
d="M562 138v-138h-492v696h154v-558h338z" />
    <glyph glyph-name="M" unicode="M" horiz-adv-x="782" 
d="M721 696v-696h-153v331l-3 1l-63 -141l-47 -98h-118l-49 103l-61 136l-3 -3v-329h-154v696h139l94 -202l90 -209h4l87 209l92 202h145z" />
    <glyph glyph-name="N" unicode="N" horiz-adv-x="710" 
d="M643 696v-696h-137l-177 256l-103 166l-2 -1v-421h-154v696h137l146 -213l134 -209l2 1v421h154z" />
    <glyph glyph-name="O" unicode="O" horiz-adv-x="624" 
d="M310 701q125 0 198 -76q75 -77 75 -195v-164q0 -124 -75 -198q-74 -74 -198 -74q-128 0 -199 78q-70 77 -70 194v164q0 116 70 193q71 78 199 78zM196 444v-189q0 -51 30 -84t83 -33t85 32.5t32 84.5v189q0 49 -32 81t-85 32q-52 0 -82.5 -32t-30.5 -81z" />
    <glyph glyph-name="P" unicode="P" horiz-adv-x="609" 
d="M601 472q0 -95 -70 -156q-71 -62 -171 -62h-136v-254h-154v696h287q112 0 177 -61q67 -60 67 -163zM445 475q0 83 -96 83h-125v-166h129q39 0 65.5 23.5t26.5 59.5z" />
    <glyph glyph-name="Q" unicode="Q" horiz-adv-x="637" 
d="M562 134l81 -65l-84 -95l-81 63q-67 -43 -161 -43q-129 0 -199 78q-70 77 -70 194v164q0 116 70 193q70 78 199 78q125 0 198 -76q75 -77 75 -195v-164q0 -75 -28 -132zM203 444v-189q0 -51 30 -84t83 -33q15 0 30 3l-70 55l84 101l72 -58q0 1 0.5 7.5t0.5 8.5v189
q0 49 -32 81t-85 32q-52 0 -82.5 -32t-30.5 -81z" />
    <glyph glyph-name="R" unicode="R" horiz-adv-x="652" 
d="M475 296l133 -296h-174l-110 269h-100v-269h-154v696h308q95 0 160 -56t65 -153q0 -64 -33 -114t-95 -77zM443 486q0 73 -87 73h-132v-152h127q43 0 67.5 20.5t24.5 58.5z" />
    <glyph glyph-name="S" unicode="S" horiz-adv-x="594" 
d="M540 637l-71 -123q-74 47 -171 47q-92 0 -92 -65q0 -33 28 -46q31 -15 118 -28q93 -13 150 -58q65 -49 65 -150q0 -103 -83 -162q-82 -58 -192 -58q-174 0 -284 96l89 118q82 -73 203 -73q47 0 76 19.5t29 49.5q0 33 -20.5 52t-74.5 24q-105 10 -177 50q-80 45 -80 158
q0 102 72 158q74 56 169 56q148 0 246 -65z" />
    <glyph glyph-name="T" unicode="T" horiz-adv-x="556" 
d="M541 696v-138h-190v-558h-153v558h-190v138h533z" />
    <glyph glyph-name="U" unicode="U" horiz-adv-x="657" 
d="M600 696v-453q0 -110 -79 -179q-78 -69 -192 -69t-193 71q-78 72 -78 186v444h153v-433q0 -56 33 -90.5t85 -34.5q53 0 85 30.5t32 85.5v442h154z" />
    <glyph glyph-name="V" unicode="V" horiz-adv-x="607" 
d="M444 696h161l-240 -696h-125l-241 696h162l89 -282l52 -177h5l49 174z" />
    <glyph glyph-name="W" unicode="W" horiz-adv-x="854" 
d="M692 694h161l-186 -696h-124l-65 226l-49 190h-3l-50 -193l-64 -223h-125l-186 696h161l49 -206l44 -198h3l53 198l60 206h112l60 -205l53 -199h5l42 198z" />
    <glyph glyph-name="X" unicode="X" horiz-adv-x="629" 
d="M389 356l237 -356h-175l-139 226l-138 -226h-174l236 356l-223 340h175l124 -209l125 209h175z" />
    <glyph glyph-name="Y" unicode="Y" horiz-adv-x="605" 
d="M438 696h165l-225 -411v-285h-147v285l-224 411h165l71 -150l60 -135h4l59 134z" />
    <glyph glyph-name="Z" unicode="Z" horiz-adv-x="549" 
d="M520 141v-141h-492v131l306 428h-293v137h479v-127l-305 -428h305z" />
    <glyph glyph-name="bracketleft" unicode="[" horiz-adv-x="314" 
d="M296 10v-105h-229v794h229v-106h-93v-583h93z" />
    <glyph glyph-name="backslash" unicode="\" horiz-adv-x="368" 
d="M358 -42h-119l-254 767h120z" />
    <glyph glyph-name="bracketright" unicode="]" horiz-adv-x="314" 
d="M246 699v-794h-228v105h92v583h-92v106h228z" />
    <glyph glyph-name="asciicircum" unicode="^" horiz-adv-x="550" 
d="M330 695l191 -458h-130l-118 300l-119 -302h-130l194 460h112z" />
    <glyph glyph-name="underscore" unicode="_" horiz-adv-x="500" 
d="M500 -69v-91h-500v91h500z" />
    <glyph glyph-name="grave" unicode="`" horiz-adv-x="516" 
d="M245 769l93 -194l-81 -38l-146 186z" />
    <glyph glyph-name="a" unicode="a" horiz-adv-x="516" 
d="M468 331v-331h-142v46l-3 1q-43 -52 -122 -52q-77 0 -121.5 39t-44.5 113q0 67 48.5 110t130.5 43h112v16q0 60 -83 60q-73 0 -117 -39l-69 97q73 66 201 66q210 0 210 -169zM326 180v16h-94q-60 0 -60 -37q0 -9 4 -18t20.5 -18.5t43.5 -9.5q38 0 62 17.5t24 49.5z" />
    <glyph glyph-name="b" unicode="b" horiz-adv-x="533" 
d="M491 258q0 -263 -180 -263q-66 0 -108 46l-2 -2v-39h-143v727h143v-272l2 -1q17 19 49.5 32.5t58.5 13.5q180 0 180 -242zM272 368q-47 0 -61 -42q-10 -34 -10 -78q0 -43 10 -78q13 -43 61 -43q51 0 63 42q10 35 10 79q0 46 -11 79q-12 41 -62 41z" />
    <glyph glyph-name="c" unicode="c" horiz-adv-x="463" 
d="M350 166l94 -96q-83 -76 -187 -76q-99 0 -164 63q-65 65 -65 190q0 126 68 189q67 64 169 64q105 0 175 -72l-92 -97q-43 41 -83 41q-88 0 -88 -125q0 -65 20 -94t65 -29q43 0 88 42z" />
    <glyph glyph-name="d" unicode="d" horiz-adv-x="533" 
d="M483 726v-726h-143v39l-2 2q-43 -46 -109 -46q-92 0 -138 61q-17 25 -28 64q-14 57 -14 138q0 84 36 157q19 40 57.5 63t90.5 23q66 0 105 -46l2 1v270h143zM340 248q0 45 -11 78q-12 42 -60 42q-51 0 -65 -48q-9 -35 -9 -85q0 -108 73 -108q49 0 61 43q10 31 11 78z" />
    <glyph glyph-name="e" unicode="e" horiz-adv-x="533" 
d="M489 245v-35h-306q7 -87 83 -87q62 0 112 46l88 -98q-85 -77 -204 -77q-44 0 -82 12t-72 39t-53.5 78.5t-19.5 122.5q0 130 66 192q67 62 160 62q112 0 170 -67.5t58 -187.5zM188 302h147q-4 32 -24.5 51.5t-48.5 19.5t-48.5 -19.5t-25.5 -51.5z" />
    <glyph glyph-name="f" unicode="f" horiz-adv-x="325" 
d="M315 495v-111h-97v-384h-142v384h-56v111h56v86q0 69 42 107t111 38h86v-120h-58q-39 0 -39 -41v-70h97z" />
    <glyph glyph-name="g" unicode="g" horiz-adv-x="533" 
d="M331 495h143v-482q0 -111 -67 -165q-65 -55 -165 -55q-111 0 -184 64l70 99q55 -35 113 -35q40 0 65.5 22t25.5 58v39l-2 1q-17 -20 -47 -33.5t-56 -13.5q-187 0 -187 242q0 263 186 263q66 0 103 -40l2 1v35zM260 367q-50 0 -64 -43q-10 -34 -10 -78q0 -46 11 -79
q14 -41 63 -41q48 0 60 42q11 33 11 78q0 43 -10 77q-13 44 -61 44z" />
    <glyph glyph-name="h" unicode="h" horiz-adv-x="551" 
d="M490 322v-322h-142v292q0 35 -19.5 55.5t-50.5 20.5q-34 0 -54.5 -20.5t-20.5 -55.5v-292h-143v726h143v-266l4 -1q20 17 53.5 29t61.5 12q74 0 121 -48t47 -130z" />
    <glyph glyph-name="i" unicode="i" horiz-adv-x="269" 
d="M206 696v-125h-143v125h143zM206 495v-495h-143v495h143z" />
    <glyph glyph-name="j" unicode="j" horiz-adv-x="286" 
d="M215 696v-125h-143v125h143zM72 496h143v-548q0 -70 -42.5 -109t-121.5 -39h-60v124h26q31 0 43 13t12 39v520z" />
    <glyph glyph-name="k" unicode="k" horiz-adv-x="533" 
d="M345 295l203 -295h-163l-133 196l-49 -53v-143h-143v726h143v-400l2 -1l65 78l86 92h178z" />
    <glyph glyph-name="l" unicode="l" horiz-adv-x="286" 
d="M264 124v-124h-51q-153 0 -153 147v579h143v-552q0 -29 10.5 -39.5t34.5 -10.5h16z" />
    <glyph glyph-name="m" unicode="m" horiz-adv-x="838" 
d="M778 322v-322h-142v294q0 35 -20 55.5t-52 20.5q-33 0 -53 -20t-20 -56v-294h-143v294q0 35 -20 55.5t-52 20.5q-33 0 -53 -20t-20 -56v-294h-143v495h143v-46l4 -1q18 23 53.5 37.5t71.5 14.5q92 0 127 -71q69 71 151 71q79 0 123.5 -46.5t44.5 -131.5z" />
    <glyph glyph-name="n" unicode="n" horiz-adv-x="551" 
d="M490 322v-322h-142v292q0 35 -19.5 55.5t-50.5 20.5q-34 0 -54.5 -20.5t-20.5 -55.5v-292h-143v495h143v-41h2q21 20 55.5 33t64.5 13q80 0 122.5 -45.5t42.5 -132.5z" />
    <glyph glyph-name="o" unicode="o" horiz-adv-x="516" 
d="M267 501q122 0 179 -83q41 -59 39 -173q0 -92 -38 -156q-60 -96 -193 -96q-123 0 -177 79q-43 64 -42 176q1 87 26 139q26 54 80 84t126 30zM262 373q-45 0 -66 -43q-14 -28 -15 -84q0 -52 14 -82q20 -41 63 -41q54 0 71 54q9 31 9 71q2 53 -12 82q-18 43 -64 43z" />
    <glyph glyph-name="p" unicode="p" horiz-adv-x="533" 
d="M63 -202v697h142v-35l3 -1q37 40 107 40q111 4 154 -88q13 -22 18 -56q9 -50 9 -114q0 -72 -20 -131q-41 -116 -169 -116q-28 0 -56.5 12.5t-42.5 32.5l-3 -1v-240h-142zM205 246q0 -122 72 -122q73 0 73 122q0 35 -6 64q-13 59 -67 59q-48 0 -62 -45q-10 -35 -10 -78z
" />
    <glyph glyph-name="q" unicode="q" horiz-adv-x="533" 
d="M51 236q0 263 192 263q58 0 97 -40l2 1v35h143v-697h-143v241l-2 1q-17 -20 -47 -33t-55 -13q-90 0 -138 52q-19 22 -31 57q-18 54 -18 133zM197 246q0 -45 10 -80q12 -41 62 -41q73 0 73 121q0 43 -10 78q-13 44 -61 44q-50 0 -64 -43q-10 -34 -10 -79z" />
    <glyph glyph-name="r" unicode="r" horiz-adv-x="411" 
d="M276 370q-33 0 -53 -20t-20 -56v-295h-143v496h140v-56l3 -1q44 62 110 62q61 0 105 -31l-50 -125q-44 26 -92 26z" />
    <glyph glyph-name="s" unicode="s" horiz-adv-x="468" 
d="M445 155q0 -75 -62 -119q-61 -42 -147 -42q-69 0 -121 16.5t-101 60.5l70 100q58 -57 158 -57q27 0 45 11t18 26q0 35 -62 43q-85 10 -135 33q-64 30 -64 113q0 75 52.5 117.5t135.5 42.5q125 0 202 -58l-64 -106q-61 41 -135 41q-28 0 -43 -9.5t-15 -22.5
q0 -17 21.5 -26t78.5 -16q84 -10 126 -43.5t42 -104.5z" />
    <glyph glyph-name="t" unicode="t" horiz-adv-x="333" 
d="M302 496v-112h-73v-209q0 -29 9.5 -40t33.5 -11h31v-124h-77q-63 0 -101.5 35.5t-38.5 97.5v251h-54v112h56v136h139v-136h75z" />
    <glyph glyph-name="u" unicode="u" horiz-adv-x="551" 
d="M61 172v323h143v-293q0 -35 19 -55.5t50 -20.5q34 0 55 20.5t21 55.5v293h143v-495h-143v42h-2q-18 -21 -52 -34.5t-65 -13.5q-80 0 -124.5 46.5t-44.5 131.5z" />
    <glyph glyph-name="v" unicode="v" horiz-adv-x="508" 
d="M352 495h152l-194 -495h-111l-195 495h153l44 -133l52 -166h2l52 166z" />
    <glyph glyph-name="w" unicode="w" horiz-adv-x="753" 
d="M598 495h152l-169 -495h-120l-38 122l-44 151h-3l-43 -150l-40 -123h-119l-169 495h152l35 -123l39 -154h5l45 154l40 123h114l39 -123l44 -154h6l39 154z" />
    <glyph glyph-name="x" unicode="x" horiz-adv-x="538" 
d="M340 252l191 -252h-173l-90 142l-89 -142h-172l189 252l-182 243h171l83 -136l83 136h172z" />
    <glyph glyph-name="y" unicode="y" horiz-adv-x="502" 
d="M350 495h152l-224 -591q-39 -104 -157 -104h-57v117h37q41 0 57 49l24 74l-182 455h153l48 -141l48 -156h4l47 154z" />
    <glyph glyph-name="z" unicode="z" horiz-adv-x="463" 
d="M434 128v-128h-406v119l229 254h-215v122h392v-114l-228 -253h228z" />
    <glyph glyph-name="braceleft" unicode="{" horiz-adv-x="314" 
d="M305 7v-100h-98q-51 0 -85 35t-34 89v131q0 87 -76 87v104q76 3 76 90v129q0 54 34 89t85 35h98v-101h-41q-19 0 -29.5 -17t-10.5 -41v-117q0 -82 -76 -119q76 -28 76 -117v-118q-1 -18 0.5 -28t11 -19.5t28.5 -11.5h41z" />
    <glyph glyph-name="bar" unicode="|" horiz-adv-x="259" 
d="M191 730v-958h-124v958h124z" />
    <glyph glyph-name="braceright" unicode="}" horiz-adv-x="314" 
d="M304 353v-104q-77 0 -77 -87v-131q0 -54 -33.5 -89t-84.5 -35h-98v100h41q19 2 28.5 11.5t11 19.5t0.5 28v118q0 90 76 117q-76 37 -76 119v117q0 24 -10.5 41t-29.5 17h-41v101h98q51 0 84.5 -35t33.5 -89v-129q0 -87 77 -90z" />
    <glyph glyph-name="asciitilde" unicode="~" horiz-adv-x="550" 
d="M197 350q35 -2 86 -28q54 -27 70 -27q37 0 81 56l77 -47q-59 -122 -142 -122q-33 0 -90 26q-55 27 -74 27q-43 0 -87 -56l-75 47q33 65 68.5 94.5t85.5 29.5z" />
    <glyph glyph-name="exclamdown" unicode="&#xa1;" horiz-adv-x="294" 
d="M221 -201h-144l10 505h123zM75 367v128h147v-128h-147z" />
    <glyph glyph-name="cent" unicode="&#xa2;" horiz-adv-x="550" 
d="M390 166l94 -96q-74 -65 -158 -74v-131h-58v131q-92 8 -146 73t-54 178q0 110 54.5 174t145.5 76v139h58v-137q89 -6 154 -71l-92 -97q-43 41 -83 41q-88 0 -88 -125q0 -65 20 -94t65 -29q43 0 88 42z" />
    <glyph glyph-name="sterling" unicode="&#xa3;" horiz-adv-x="550" 
d="M519 580l-119 -81q-28 40 -52 54.5t-56 14.5q-29 0 -50.5 -20.5t-21.5 -52.5q0 -16 17 -58q18 -39 24 -66h141v-104h-140q-7 -83 -39 -142h284v-125h-472v108q33 42 48.5 78t19.5 81h-73v104h65q-3 10 -16 44q-23 57 -23 85q0 82 56 141q57 59 172 59q81 0 131 -22
q53 -23 104 -98z" />
    <glyph glyph-name="currency" unicode="&#xa4;" horiz-adv-x="556" 
d="M168 321q0 -45 31 -76t76 -31t76 31q32 32 32 76q0 45 -31.5 76t-76.5 31q-44 0 -75.5 -31t-31.5 -76zM94 429l-68 67l73 74l68 -68q59 32 109 32q56 0 109 -30q18 20 67 66l73 -74l-68 -67q32 -59 32 -108q0 -57 -31 -109q22 -18 67 -65l-73 -74l-66 67
q-55 -32 -110 -32q-54 0 -110 32l-67 -67l-73 73l67 66q-30 54 -30 109q0 53 31 108z" />
    <glyph glyph-name="yen" unicode="&#xa5;" horiz-adv-x="550" 
d="M59 159v82h142v42h-142v82h98l-170 331h171l74 -165l47 -124h4l46 126l75 163h159l-171 -331h101v-82h-145v-42h145v-82h-145v-159h-147v159h-142z" />
    <glyph glyph-name="brokenbar" unicode="&#xa6;" horiz-adv-x="259" 
d="M191 730v-446h-124v446h124zM67 -228v447h124v-447h-124z" />
    <glyph glyph-name="section" unicode="&#xa7;" horiz-adv-x="510" 
d="M405 189q53 -38 53 -96q0 -84 -62 -131t-154 -47q-121 0 -211 84l79 94q67 -61 135 -61q82 0 82 53q0 19 -20.5 32.5t-76.5 30.5q-87 24 -132 58q-51 39 -51 118q0 30 22 60.5t50 41.5q-57 43 -57 104q0 75 56 122q58 47 143 47q128 0 205 -59l-68 -97q-64 39 -144 39
q-32 0 -48 -13t-16 -33q0 -24 37 -41l32 -12q60 -16 63 -17q72 -20 109.5 -59t37.5 -108q0 -33 -20 -66.5t-44 -43.5zM245 354q-34 9 -44 13q-25 -10 -25 -38q0 -25 45 -42l50 -15q47 -14 54 -17q17 11 17 36q0 19 -21 33.5t-76 29.5z" />
    <glyph glyph-name="dieresis" unicode="&#xa8;" horiz-adv-x="516" 
d="M443 699v-130h-149v130h149zM224 699v-130h-148v130h148z" />
    <glyph glyph-name="copyright" unicode="&#xa9;" horiz-adv-x="820" 
d="M411 -16q-154 0 -254 100q-101 101 -101 258q0 155 102 257q102 103 253 103q153 0 253 -102q102 -100 102 -258q0 -155 -102 -257q-101 -101 -253 -101zM411 623q-115 0 -191 -81q-76 -80 -76 -200t76 -200q77 -80 191 -80q113 0 190 80q77 82 77 200q0 123 -76 202
t-191 79zM484 257l92 -36q-16 -53 -59 -82t-105 -29q-82 0 -126 46t-44 126v103q0 72 44 122q45 50 126 50q61 0 104.5 -30t59.5 -82l-92 -33q-14 54 -73 54q-34 0 -52.5 -20.5t-18.5 -51.5v-119q0 -32 18.5 -53t52.5 -21q29 0 48.5 15.5t24.5 40.5z" />
    <glyph glyph-name="ordfeminine" unicode="&#xaa;" horiz-adv-x="356" 
d="M326 496v-217h-108v35q-27 -39 -84 -39q-54 0 -83.5 26.5t-29.5 77.5q0 43 34 70t93 27h70v12q0 13 -13 23t-35 10q-53 0 -81 -28l-58 64q51 53 142 53q153 0 153 -114zM218 400v10h-58q-34 0 -34 -24q0 -4 2.5 -8.5t12.5 -9.5t25 -5q52 0 52 37z" />
    <glyph glyph-name="guillemotleft" unicode="&#xab;" horiz-adv-x="591" 
d="M418 224l142 -214h-140l-146 214l146 214h140zM189 224l143 -214h-140l-146 214l146 214h140z" />
    <glyph glyph-name="logicalnot" unicode="&#xac;" horiz-adv-x="550" 
d="M19 356h512l1 -302h-124v186h-389v116z" />
    <glyph glyph-name="sfthyphen" unicode="&#xad;" horiz-adv-x="440" 
d="M393 323v-131h-346v131h346z" />
    <glyph glyph-name="registered" unicode="&#xae;" horiz-adv-x="526" 
d="M364 364h-59l-42 93h-29v-93h-52v244h97q34 0 56 -20.5t22 -53.5q0 -44 -40 -68zM279 558h-45v-52h43q30 0 30 28q0 24 -28 24zM265 269q-95 0 -157 61q-63 62 -63 154t65 154q66 63 155 63q93 0 157 -62q64 -61 64 -155q0 -92 -66 -153q-67 -62 -155 -62zM100 484
q0 -68 48 -118q48 -48 117 -48q71 0 117 48q47 49 47 118q0 71 -47 118q-46 48 -117 48q-70 0 -118 -48q-47 -49 -47 -118z" />
    <glyph glyph-name="overscore" unicode="&#xaf;" horiz-adv-x="516" 
d="M425 696v-118h-333v118h333z" />
    <glyph glyph-name="degree" unicode="&#xb0;" horiz-adv-x="433" 
d="M380 548q0 -64 -48 -109t-116 -45q-67 0 -115 45t-48 109q0 63 48 108t115 45q68 0 116 -45t48 -108zM281 548q0 25 -19 43t-46 18q-26 0 -45.5 -18t-19.5 -43t19.5 -43.5t45.5 -18.5q27 0 46 18t19 44z" />
    <glyph glyph-name="plusminus" unicode="&#xb1;" horiz-adv-x="550" 
d="M532 436v-116h-195v-173h-124v173h-195v116h195v182h124v-182h195zM536 113v-113h-522v113h522z" />
    <glyph glyph-name="twosuperior" unicode="&#xb2;" horiz-adv-x="343" 
d="M129 642l-108 15q7 60 51 96t101 36q68 0 108.5 -32t40.5 -90q0 -48 -35 -86l-112 -117h145v-95h-299v83l179 185q11 11 11 23q0 15 -10 24.5t-27 9.5t-29 -13.5t-16 -38.5z" />
    <glyph glyph-name="threesuperior" unicode="&#xb3;" horiz-adv-x="346" 
d="M19 486l106 14q7 -39 47 -39q18 0 30.5 10.5t12.5 28.5q0 19 -13.5 31t-37.5 12h-36v81h37q23 0 35.5 10t12.5 26q0 14 -11.5 24t-29.5 10q-36 0 -43 -43l-105 16q12 55 54.5 88.5t97.5 33.5q73 0 112.5 -34.5t39.5 -89.5q0 -25 -13 -47.5t-37 -33.5q25 -11 39 -35
t14 -50q0 -60 -43 -96.5t-114 -36.5q-58 0 -100.5 31t-54.5 89z" />
    <glyph glyph-name="acute" unicode="&#xb4;" horiz-adv-x="516" 
d="M401 727l-135 -190l-83 30l85 203z" />
    <glyph glyph-name="mu" unicode="&#xb5;" horiz-adv-x="551" 
d="M491 495v-494h-143v34l-4 2q-41 -41 -100 -41q-15 0 -40 5v-201h-144l1 695h143v-293q0 -35 19.5 -55t51.5 -20q33 0 53 19.5t20 55.5v293h143z" />
    <glyph glyph-name="mu" unicode="&#x3bc;" horiz-adv-x="551" 
d="M491 495v-494h-143v34l-4 2q-41 -41 -100 -41q-15 0 -40 5v-201h-144l1 695h143v-293q0 -35 19.5 -55t51.5 -20q33 0 53 19.5t20 55.5v293h143z" />
    <glyph glyph-name="paragraph" unicode="&#xb6;" horiz-adv-x="563" 
d="M314 -79h-102v390h-24q-74 0 -118 56q-43 56 -43 135q0 80 49 141t137 61h155q67 1 159 1v-86h-43v-698h-99v698h-71v-698z" />
    <glyph glyph-name="middot" unicode="&#xb7;" horiz-adv-x="303" 
d="M236 363v-165h-169v165h169z" />
    <glyph glyph-name="cedilla" unicode="&#xb8;" horiz-adv-x="463" 
d="M208 -97l-39 20l40 126l72 1l-28 -86q47 -6 71.5 -30.5t24.5 -59.5q0 -38 -34 -66t-86 -28q-65 0 -112 29l25 62q38 -18 74 -18q18 0 29 8t11 22q0 18 -18 23.5t-30 -3.5z" />
    <glyph glyph-name="onesuperior" unicode="&#xb9;" horiz-adv-x="285" 
d="M216 786v-417h-110v299l-65 -41v109l82 50h93z" />
    <glyph glyph-name="ordmasculine" unicode="&#xba;" horiz-adv-x="356" 
d="M186 611q86 0 127 -57q27 -39 27 -113q0 -57 -27 -101q-20 -32 -56.5 -49t-79.5 -17q-86 0 -125 54q-31 41 -29 115q1 56 18 91q18 36 57 56.5t88 20.5zM143 493q-9 -17 -9 -51q0 -31 9 -49q11 -24 37 -24q30 0 42 31q6 18 6 43q0 36 -7 51q-11 23 -38 23t-40 -24z" />
    <glyph glyph-name="guillemotright" unicode="&#xbb;" horiz-adv-x="591" 
d="M332 224l-146 -214h-140l142 214l-142 214h140zM560 224l-146 -214h-140l143 214l-143 214h140z" />
    <glyph glyph-name="onequarter" unicode="&#xbc;" horiz-adv-x="925" 
d="M822 149v-93h-36v-56h-109v56h-188v76l156 285h123l-149 -268h58v74h109v-74h36zM602 713h118l-426 -730h-117zM278 696v-417h-110v299l-65 -41v109l82 50h93z" />
    <glyph glyph-name="onehalf" unicode="&#xbd;" horiz-adv-x="925" 
d="M652 273l-108 15q8 61 50 96q44 36 99 36q68 0 109.5 -32t41.5 -90q0 -51 -34 -86l-112 -117h145v-95h-299v83l179 186v-1q10 10 10 23q0 15 -10.5 24.5t-27.5 9.5q-36 0 -43 -52zM578 713h118l-426 -730h-117zM255 696v-417h-110v299l-65 -41v109l82 50h93z" />
    <glyph glyph-name="threequarters" unicode="&#xbe;" horiz-adv-x="925" 
d="M62 396l106 14q7 -39 47 -39q18 0 30.5 10.5t12.5 28.5q0 19 -13.5 31t-37.5 12h-36v81h37q23 0 35.5 10t12.5 26q0 14 -11.5 24t-29.5 10q-36 0 -43 -43l-105 16q12 55 54.5 88.5t97.5 33.5q73 0 112.5 -34.5t39.5 -89.5q0 -25 -13 -47.5t-37 -33.5q25 -11 39 -35
t14 -50q0 -60 -43 -96.5t-114 -36.5q-58 0 -100.5 31t-54.5 89zM863 149v-93h-36v-56h-109v56h-188v76l156 285h123l-149 -268h58v74h109v-74h36zM640 713h118l-426 -730h-117z" />
    <glyph glyph-name="questiondown" unicode="&#xbf;" horiz-adv-x="495" 
d="M339 20l146 -17q-9 -96 -77 -153q-67 -57 -154 -57q-100 0 -161 56q-59 56 -59 142q0 39 22 78.5t52 67.5q75 71 75 141v22h147v-27q0 -56 -19 -95t-72 -109q-43 -52 -43 -79q0 -26 19.5 -42.5t47.5 -16.5q71 0 76 89zM183 366v128h147v-128h-147z" />
    <glyph glyph-name="Agrave" unicode="&#xc0;" horiz-adv-x="660" 
d="M389 696l270 -696h-162l-52 142h-233l-52 -142h-162l270 696h121zM260 272h137l-26 80l-41 138h-4l-40 -136zM220 930l180 -128l-56 -69l-214 90z" />
    <glyph glyph-name="Aacute" unicode="&#xc1;" horiz-adv-x="660" 
d="M389 696l270 -696h-162l-52 142h-233l-52 -142h-162l270 696h121zM260 272h137l-26 80l-41 138h-4l-40 -136zM541 823l-214 -90l-56 69l180 128z" />
    <glyph glyph-name="Acircumflex" unicode="&#xc2;" horiz-adv-x="660" 
d="M389 696l270 -696h-162l-52 142h-233l-52 -142h-162l270 696h121zM260 272h137l-26 80l-41 138h-4l-40 -136zM527 785l-51 -59l-149 79l-150 -78l-48 58l149 120h98z" />
    <glyph glyph-name="Atilde" unicode="&#xc3;" horiz-adv-x="660" 
d="M389 696l270 -696h-162l-52 142h-233l-52 -142h-162l270 696h121zM260 272h137l-26 80l-41 138h-4l-40 -136zM256 881q29 -2 73 -25q47 -24 60 -24q30 0 67 48l68 -40q-49 -109 -121 -109q-28 0 -77 23q-46 24 -63 24q-36 0 -74 -50l-65 41q28 58 59 85t73 27z" />
    <glyph glyph-name="Adieresis" unicode="&#xc4;" horiz-adv-x="660" 
d="M389 696l270 -696h-162l-52 142h-233l-52 -142h-162l270 696h121zM260 272h137l-26 80l-41 138h-4l-40 -136zM512 877v-133h-152v133h152zM298 877v-133h-153v133h153z" />
    <glyph glyph-name="Aring" unicode="&#xc5;" horiz-adv-x="660" 
d="M389 696l270 -696h-162l-52 142h-233l-52 -142h-162l270 696h121zM260 272h137l-26 80l-41 138h-4l-40 -136zM357 804q12 11 12 27t-12 26q-11 11 -28 11t-29 -11q-12 -10 -12 -26t12 -27t29 -11t28 11zM329 947q52 0 87 -34q37 -34 37 -82t-37 -82q-35 -34 -88 -34
q-51 0 -88 34q-36 35 -36 82t36 82q37 34 89 34z" />
    <glyph glyph-name="AE" unicode="&#xc6;" horiz-adv-x="1091" 
d="M43 0l421 696h571v-138h-338v-141h288v-133h-288v-146h338v-138h-492v149h-234l-84 -149h-182zM543 283v275h-4l-157 -275h161z" />
    <glyph glyph-name="Ccedilla" unicode="&#xc7;" horiz-adv-x="600" 
d="M282 -97l-39 20l23 74q-107 13 -164 84t-57 185v164q0 116 70 193q71 78 199 78q96 0 164 -47.5t95 -129.5l-146 -52q-9 39 -39 62t-75 23q-52 0 -82.5 -32t-30.5 -81v-189q0 -51 30 -84t83 -33q44 0 75 24t39 63l146 -56q-24 -77 -86 -123t-150 -51l-10 -31
q47 -6 71.5 -30.5t24.5 -59.5q0 -38 -34 -66t-86 -28q-65 0 -112 29l25 62q38 -18 74 -18q18 0 29 8t11 22q0 18 -18 23.5t-30 -3.5z" />
    <glyph glyph-name="Egrave" unicode="&#xc8;" horiz-adv-x="585" 
d="M562 138v-138h-492v696h492v-138h-338v-141h288v-133h-288v-146h338zM198 930l180 -128l-56 -69l-214 90z" />
    <glyph glyph-name="Eacute" unicode="&#xc9;" horiz-adv-x="585" 
d="M562 138v-138h-492v696h492v-138h-338v-141h288v-133h-288v-146h338zM471 823l-214 -90l-56 69l180 128z" />
    <glyph glyph-name="Ecircumflex" unicode="&#xca;" horiz-adv-x="585" 
d="M562 138v-138h-492v696h492v-138h-338v-141h288v-133h-288v-146h338zM499 785l-51 -59l-149 79l-150 -78l-48 58l149 120h98z" />
    <glyph glyph-name="Edieresis" unicode="&#xcb;" horiz-adv-x="585" 
d="M562 138v-138h-492v696h492v-138h-338v-141h288v-133h-288v-146h338zM512 877v-133h-152v133h152zM298 877v-133h-153v133h153z" />
    <glyph glyph-name="Igrave" unicode="&#xcc;" horiz-adv-x="294" 
d="M227 696v-696h-154v696h154zM26 930l180 -128l-56 -69l-214 90z" />
    <glyph glyph-name="Iacute" unicode="&#xcd;" horiz-adv-x="294" 
d="M227 696v-696h-154v696h154zM357 823l-214 -90l-56 69l180 128z" />
    <glyph glyph-name="Icircumflex" unicode="&#xce;" horiz-adv-x="294" 
d="M351 785l-51 -59l-149 79l-150 -78l-48 58l149 120h98zM227 696v-696h-154v696h154z" />
    <glyph glyph-name="Idieresis" unicode="&#xcf;" horiz-adv-x="294" 
d="M331 877v-133h-152v133h152zM117 877v-133h-153v133h153zM227 696v-696h-154v696h154z" />
    <glyph glyph-name="Eth" unicode="&#xd0;" horiz-adv-x="657" 
d="M70 300h-64v107h64v289h277q175 0 237 -129q27 -55 27 -207q0 -165 -25 -222q-60 -138 -256 -138h-260v300zM322 557h-98v-150h109v-107h-109v-162h101q71 0 102 37t31 112v127q0 74 -32.5 108.5t-103.5 34.5z" />
    <glyph glyph-name="Ntilde" unicode="&#xd1;" horiz-adv-x="710" 
d="M643 696v-696h-137l-177 256l-103 166l-2 -1v-421h-154v696h137l146 -213l134 -209l2 1v421h154zM278 884q29 -2 73 -25q47 -24 60 -24q29 0 67 48l68 -40q-49 -109 -121 -109q-28 0 -77 23q-46 24 -63 24q-36 0 -74 -50l-65 41q28 58 59 85t73 27z" />
    <glyph glyph-name="Ograve" unicode="&#xd2;" horiz-adv-x="624" 
d="M310 701q125 0 198 -76q75 -77 75 -195v-164q0 -124 -75 -198q-74 -74 -198 -74q-128 0 -199 78q-70 77 -70 194v164q0 116 70 193q71 78 199 78zM196 444v-189q0 -51 30 -84t83 -33t85 32.5t32 84.5v189q0 49 -32 81t-85 32q-52 0 -82.5 -32t-30.5 -81zM220 930
l180 -128l-56 -69l-214 90z" />
    <glyph glyph-name="Oacute" unicode="&#xd3;" horiz-adv-x="624" 
d="M310 701q125 0 198 -76q75 -77 75 -195v-164q0 -124 -75 -198q-74 -74 -198 -74q-128 0 -199 78q-70 77 -70 194v164q0 116 70 193q71 78 199 78zM196 444v-189q0 -51 30 -84t83 -33t85 32.5t32 84.5v189q0 49 -32 81t-85 32q-52 0 -82.5 -32t-30.5 -81zM471 823
l-214 -90l-56 69l180 128z" />
    <glyph glyph-name="Ocircumflex" unicode="&#xd4;" horiz-adv-x="624" 
d="M310 701q125 0 198 -76q75 -77 75 -195v-164q0 -124 -75 -198q-74 -74 -198 -74q-128 0 -199 78q-70 77 -70 194v164q0 116 70 193q71 78 199 78zM196 444v-189q0 -51 30 -84t83 -33t85 32.5t32 84.5v189q0 49 -32 81t-85 32q-52 0 -82.5 -32t-30.5 -81zM511 785l-51 -59
l-149 79l-150 -78l-48 58l149 120h98z" />
    <glyph glyph-name="Otilde" unicode="&#xd5;" horiz-adv-x="624" 
d="M310 701q125 0 198 -76q75 -77 75 -195v-164q0 -124 -75 -198q-74 -74 -198 -74q-128 0 -199 78q-70 77 -70 194v164q0 116 70 193q71 78 199 78zM196 444v-189q0 -51 30 -84t83 -33t85 32.5t32 84.5v189q0 49 -32 81t-85 32q-52 0 -82.5 -32t-30.5 -81zM241 881
q29 -2 73 -25q46 -24 60 -24q30 0 67 48l68 -40q-49 -109 -121 -109q-28 0 -77 23q-47 24 -63 24q-36 0 -74 -50l-65 41q28 58 59 85t73 27z" />
    <glyph glyph-name="Odieresis" unicode="&#xd6;" horiz-adv-x="624" 
d="M310 701q125 0 198 -76q75 -77 75 -195v-164q0 -124 -75 -198q-74 -74 -198 -74q-128 0 -199 78q-70 77 -70 194v164q0 116 70 193q71 78 199 78zM196 444v-189q0 -51 30 -84t83 -33t85 32.5t32 84.5v189q0 49 -32 81t-85 32q-52 0 -82.5 -32t-30.5 -81zM498 877v-133
h-152v133h152zM284 877v-133h-153v133h153z" />
    <glyph glyph-name="multiply" unicode="&#xd7;" horiz-adv-x="550" 
d="M534 129l-82 -82l-166 166l-160 -160l-87 87l160 160l-166 166l82 82l166 -166l157 158l88 -88l-158 -157z" />
    <glyph glyph-name="Oslash" unicode="&#xd8;" horiz-adv-x="624" 
d="M310 701q107 0 178 -58l44 61l51 -37l-51 -69q51 -70 51 -168v-164q0 -124 -75 -198q-74 -74 -198 -74q-109 0 -179 59l-43 -58l-49 35l50 68q-48 68 -48 168v164q0 116 70 193q71 78 199 78zM426 255v189v6l-1 3l-204 -277q32 -38 88 -38q53 0 85 32.5t32 84.5zM309 557
q-52 0 -82.5 -32t-30.5 -81v-189v-10l202 275q-31 37 -89 37z" />
    <glyph glyph-name="Ugrave" unicode="&#xd9;" horiz-adv-x="657" 
d="M600 696v-453q0 -110 -79 -179q-78 -69 -192 -69t-193 71q-78 72 -78 186v444h153v-433q0 -56 33 -90.5t85 -34.5q53 0 85 30.5t32 85.5v442h154zM218 930l180 -128l-56 -69l-214 90z" />
    <glyph glyph-name="Uacute" unicode="&#xda;" horiz-adv-x="657" 
d="M600 696v-453q0 -110 -79 -179q-78 -69 -192 -69t-193 71q-78 72 -78 186v444h153v-433q0 -56 33 -90.5t85 -34.5q53 0 85 30.5t32 85.5v442h154zM513 823l-214 -90l-56 69l180 128z" />
    <glyph glyph-name="Ucircumflex" unicode="&#xdb;" horiz-adv-x="657" 
d="M600 696v-453q0 -110 -79 -179q-78 -69 -192 -69t-193 71q-78 72 -78 186v444h153v-433q0 -56 33 -90.5t85 -34.5q53 0 85 30.5t32 85.5v442h154zM529 785l-51 -59l-149 79l-150 -78l-48 58l149 120h98z" />
    <glyph glyph-name="Udieresis" unicode="&#xdc;" horiz-adv-x="657" 
d="M600 696v-453q0 -110 -79 -179q-78 -69 -192 -69t-193 71q-78 72 -78 186v444h153v-433q0 -56 33 -90.5t85 -34.5q53 0 85 30.5t32 85.5v442h154zM516 877v-133h-152v133h152zM302 877v-133h-153v133h153z" />
    <glyph glyph-name="Yacute" unicode="&#xdd;" horiz-adv-x="605" 
d="M438 696h165l-225 -411v-285h-147v285l-224 411h165l71 -150l60 -135h4l59 134zM494 823l-214 -90l-56 69l180 128z" />
    <glyph glyph-name="Thorn" unicode="&#xde;" horiz-adv-x="609" 
d="M601 349q0 -95 -70 -156q-71 -62 -171 -62h-136v-131h-154v696h154v-123h123q113 0 183 -61q71 -62 71 -163zM448 352q0 83 -96 83h-128v-166h132q39 0 65.5 23.5t26.5 59.5z" />
    <glyph glyph-name="germandbls" unicode="&#xdf;" horiz-adv-x="566" 
d="M521 242q0 -89 -42 -158q-51 -84 -183 -84h-31v119h23q38 0 61 30t23 85q0 42 -11 75q-14 43 -69 43v104q28 0 43.5 21t15.5 49q2 28 -14.5 52t-57.5 26q-37 0 -56.5 -23.5t-19.5 -59.5v-521h-145v518q0 97 59.5 151.5t159.5 54.5q105 0 156 -55q52 -53 52 -127
q0 -41 -17 -76t-53 -50v-3q55 -16 81 -68q25 -49 25 -103z" />
    <glyph glyph-name="agrave" unicode="&#xe0;" horiz-adv-x="516" 
d="M468 331v-331h-142v46l-3 1q-43 -52 -122 -52q-77 0 -121.5 39t-44.5 113q0 67 48.5 110t130.5 43h112v16q0 60 -83 60q-73 0 -117 -39l-69 97q73 66 201 66q210 0 210 -169zM326 180v16h-94q-60 0 -60 -37q0 -9 4 -18t20.5 -18.5t43.5 -9.5q38 0 62 17.5t24 49.5z
M248 769l93 -194l-81 -38l-146 186z" />
    <glyph glyph-name="aacute" unicode="&#xe1;" horiz-adv-x="516" 
d="M468 331v-331h-142v46l-3 1q-43 -52 -122 -52q-77 0 -121.5 39t-44.5 113q0 67 48.5 110t130.5 43h112v16q0 60 -83 60q-73 0 -117 -39l-69 97q73 66 201 66q210 0 210 -169zM326 180v16h-94q-60 0 -60 -37q0 -9 4 -18t20.5 -18.5t43.5 -9.5q38 0 62 17.5t24 49.5z
M418 727l-135 -190l-83 30l85 203z" />
    <glyph glyph-name="acircumflex" unicode="&#xe2;" horiz-adv-x="516" 
d="M468 331v-331h-142v46l-3 1q-43 -52 -122 -52q-77 0 -121.5 39t-44.5 113q0 67 48.5 110t130.5 43h112v16q0 60 -83 60q-73 0 -117 -39l-69 97q73 66 201 66q210 0 210 -169zM326 180v16h-94q-60 0 -60 -37q0 -9 4 -18t20.5 -18.5t43.5 -9.5q38 0 62 17.5t24 49.5z
M454 570l-56 -49l-144 104l-145 -103l-53 48l147 155h103z" />
    <glyph glyph-name="atilde" unicode="&#xe3;" horiz-adv-x="516" 
d="M468 331v-331h-142v46l-3 1q-43 -52 -122 -52q-77 0 -121.5 39t-44.5 113q0 67 48.5 110t130.5 43h112v16q0 60 -83 60q-73 0 -117 -39l-69 97q73 66 201 66q210 0 210 -169zM326 180v16h-94q-60 0 -60 -37q0 -9 4 -18t20.5 -18.5t43.5 -9.5q38 0 62 17.5t24 49.5z
M194 711q29 -2 73 -25q47 -24 60 -24q29 0 67 48l68 -40q-49 -109 -121 -109q-28 0 -77 23q-46 24 -63 24q-36 0 -74 -50l-65 41q28 58 59 85t73 27z" />
    <glyph glyph-name="adieresis" unicode="&#xe4;" horiz-adv-x="516" 
d="M468 331v-331h-142v46l-3 1q-43 -52 -122 -52q-77 0 -121.5 39t-44.5 113q0 67 48.5 110t130.5 43h112v16q0 60 -83 60q-73 0 -117 -39l-69 97q73 66 201 66q210 0 210 -169zM326 180v16h-94q-60 0 -60 -37q0 -9 4 -18t20.5 -18.5t43.5 -9.5q38 0 62 17.5t24 49.5z
M443 699v-130h-149v130h149zM224 699v-130h-148v130h148z" />
    <glyph glyph-name="aring" unicode="&#xe5;" horiz-adv-x="516" 
d="M468 331v-331h-142v46l-3 1q-43 -52 -122 -52q-77 0 -121.5 39t-44.5 113q0 67 48.5 110t130.5 43h112v16q0 60 -83 60q-73 0 -117 -39l-69 97q73 66 201 66q210 0 210 -169zM326 180v16h-94q-60 0 -60 -37q0 -9 4 -18t20.5 -18.5t43.5 -9.5q38 0 62 17.5t24 49.5z
M296 616q12 11 12 27t-12 26q-11 11 -28 11t-29 -11q-12 -10 -12 -26t12 -27t29 -11t28 11zM268 759q52 0 87 -34q37 -34 37 -82t-37 -82q-35 -34 -88 -34q-51 0 -88 34q-36 35 -36 82t36 82q37 34 89 34z" />
    <glyph glyph-name="ae" unicode="&#xe6;" horiz-adv-x="833" 
d="M782 245v-35h-305q12 -86 92 -86q53 0 102 45l88 -98q-82 -76 -198 -76q-113 0 -175 65q-70 -65 -175 -65q-80 0 -128 39t-48 113q0 67 48.5 110t130.5 43h112v16q0 28 -20.5 47.5t-65.5 19.5q-79 0 -123 -44l-64 92q63 69 192 69q121 0 168 -54q51 54 138 54
q112 0 171.5 -68t59.5 -187zM326 180v16h-94q-60 0 -60 -37q0 -9 4 -18t20.5 -18.5t43.5 -9.5q38 0 62 17.5t24 49.5zM482 302h150q-4 32 -25 50.5t-51 18.5q-28 0 -48.5 -18.5t-25.5 -50.5z" />
    <glyph glyph-name="ccedilla" unicode="&#xe7;" horiz-adv-x="463" 
d="M212 -97l-39 20l24 77q-79 19 -124 81.5t-45 165.5q0 126 68 189q67 64 169 64q105 0 175 -72l-92 -97q-43 41 -83 41q-88 0 -88 -125q0 -65 20 -94t65 -29q43 0 88 42l94 -96q-81 -72 -177 -76l-10 -30q47 -6 71.5 -30.5t24.5 -59.5q0 -38 -34 -66t-86 -28
q-65 0 -112 29l25 62q38 -18 74 -18q18 0 29 8t11 22q0 18 -18 23.5t-30 -3.5z" />
    <glyph glyph-name="egrave" unicode="&#xe8;" horiz-adv-x="533" 
d="M489 245v-35h-306q7 -87 83 -87q62 0 112 46l88 -98q-85 -77 -204 -77q-44 0 -82 12t-72 39t-53.5 78.5t-19.5 122.5q0 130 66 192q67 62 160 62q112 0 170 -67.5t58 -187.5zM188 302h147q-4 32 -24.5 51.5t-48.5 19.5t-48.5 -19.5t-25.5 -51.5zM245 769l93 -194l-81 -38
l-146 186z" />
    <glyph glyph-name="eacute" unicode="&#xe9;" horiz-adv-x="533" 
d="M489 245v-35h-306q7 -87 83 -87q62 0 112 46l88 -98q-85 -77 -204 -77q-44 0 -82 12t-72 39t-53.5 78.5t-19.5 122.5q0 130 66 192q67 62 160 62q112 0 170 -67.5t58 -187.5zM188 302h147q-4 32 -24.5 51.5t-48.5 19.5t-48.5 -19.5t-25.5 -51.5zM413 727l-135 -190
l-83 30l85 203z" />
    <glyph glyph-name="ecircumflex" unicode="&#xea;" horiz-adv-x="533" 
d="M489 245v-35h-306q7 -87 83 -87q62 0 112 46l88 -98q-85 -77 -204 -77q-44 0 -82 12t-72 39t-53.5 78.5t-19.5 122.5q0 130 66 192q67 62 160 62q112 0 170 -67.5t58 -187.5zM188 302h147q-4 32 -24.5 51.5t-48.5 19.5t-48.5 -19.5t-25.5 -51.5zM465 570l-56 -49
l-144 104l-145 -103l-53 48l147 155h103z" />
    <glyph glyph-name="edieresis" unicode="&#xeb;" horiz-adv-x="533" 
d="M489 245v-35h-306q7 -87 83 -87q62 0 112 46l88 -98q-85 -77 -204 -77q-44 0 -82 12t-72 39t-53.5 78.5t-19.5 122.5q0 130 66 192q67 62 160 62q112 0 170 -67.5t58 -187.5zM188 302h147q-4 32 -24.5 51.5t-48.5 19.5t-48.5 -19.5t-25.5 -51.5zM443 699v-130h-149v130
h149zM224 699v-130h-148v130h148z" />
    <glyph glyph-name="igrave" unicode="&#xec;" horiz-adv-x="269" 
d="M206 495v-495h-143v495h143zM102 769l93 -194l-81 -38l-146 186z" />
    <glyph glyph-name="iacute" unicode="&#xed;" horiz-adv-x="269" 
d="M206 495v-495h-143v495h143zM285 727l-135 -190l-83 30l85 203z" />
    <glyph glyph-name="icircumflex" unicode="&#xee;" horiz-adv-x="357" 
d="M377 570l-56 -49l-144 104l-145 -103l-53 48l147 155h103zM247 495v-495h-143v495h143z" />
    <glyph glyph-name="idieresis" unicode="&#xef;" horiz-adv-x="327" 
d="M347 699v-130h-149v130h149zM128 699v-130h-148v130h148zM235 495v-495h-143v495h143z" />
    <glyph glyph-name="eth" unicode="&#xf0;" horiz-adv-x="537" 
d="M247 476q36 -1 71 -18t49 -41l4 1q-5 94 -37 132l-49 -42l-46 50l48 42q-47 34 -128 40l21 111q135 -11 207 -75l61 53l50 -48l-61 -53q69 -90 69 -308q0 -143 -63.5 -235t-191.5 -92q-111 0 -166.5 65t-55.5 178q0 43 10.5 82.5t34 76.5t68 59t105.5 22zM177 229
q0 -54 23 -83q18 -22 53 -22q38 0 59 32q17 29 17 82q0 107 -76 107t-76 -116z" />
    <glyph glyph-name="ntilde" unicode="&#xf1;" horiz-adv-x="551" 
d="M490 322v-322h-142v292q0 35 -19.5 55.5t-50.5 20.5q-34 0 -54.5 -20.5t-20.5 -55.5v-292h-143v495h143v-41h2q21 20 55.5 33t64.5 13q80 0 122.5 -45.5t42.5 -132.5zM193 711q29 -2 73 -25q46 -24 60 -24q30 0 67 48l68 -40q-49 -109 -121 -109q-28 0 -77 23
q-47 24 -63 24q-36 0 -74 -50l-65 41q28 58 59 85t73 27z" />
    <glyph glyph-name="ograve" unicode="&#xf2;" horiz-adv-x="516" 
d="M267 501q122 0 179 -83q41 -59 39 -173q0 -92 -38 -156q-60 -96 -193 -96q-123 0 -177 79q-43 64 -42 176q1 87 26 139q26 54 80 84t126 30zM262 373q-45 0 -66 -43q-14 -28 -15 -84q0 -52 14 -82q20 -41 63 -41q54 0 71 54q9 31 9 71q2 53 -12 82q-18 43 -64 43z
M248 769l93 -194l-81 -38l-146 186z" />
    <glyph glyph-name="oacute" unicode="&#xf3;" horiz-adv-x="516" 
d="M267 501q122 0 179 -83q41 -59 39 -173q0 -92 -38 -156q-60 -96 -193 -96q-123 0 -177 79q-43 64 -42 176q1 87 26 139q26 54 80 84t126 30zM262 373q-45 0 -66 -43q-14 -28 -15 -84q0 -52 14 -82q20 -41 63 -41q54 0 71 54q9 31 9 71q2 53 -12 82q-18 43 -64 43z
M424 727l-135 -190l-83 30l85 203z" />
    <glyph glyph-name="ocircumflex" unicode="&#xf4;" horiz-adv-x="516" 
d="M267 501q122 0 179 -83q41 -59 39 -173q0 -92 -38 -156q-60 -96 -193 -96q-123 0 -177 79q-43 64 -42 176q1 87 26 139q26 54 80 84t126 30zM262 373q-45 0 -66 -43q-14 -28 -15 -84q0 -52 14 -82q20 -41 63 -41q54 0 71 54q9 31 9 71q2 53 -12 82q-18 43 -64 43z
M463 570l-56 -49l-144 104l-145 -103l-53 48l147 155h103z" />
    <glyph glyph-name="otilde" unicode="&#xf5;" horiz-adv-x="516" 
d="M267 501q122 0 179 -83q41 -59 39 -173q0 -92 -38 -156q-60 -96 -193 -96q-123 0 -177 79q-43 64 -42 176q1 87 26 139q26 54 80 84t126 30zM262 373q-45 0 -66 -43q-14 -28 -15 -84q0 -52 14 -82q20 -41 63 -41q54 0 71 54q9 31 9 71q2 53 -12 82q-18 43 -64 43z
M193 711q29 -2 73 -25q46 -24 60 -24q30 0 67 48l68 -40q-49 -109 -121 -109q-28 0 -77 23q-47 24 -63 24q-36 0 -74 -50l-65 41q28 58 59 85t73 27z" />
    <glyph glyph-name="odieresis" unicode="&#xf6;" horiz-adv-x="516" 
d="M267 501q122 0 179 -83q41 -59 39 -173q0 -92 -38 -156q-60 -96 -193 -96q-123 0 -177 79q-43 64 -42 176q1 87 26 139q26 54 80 84t126 30zM262 373q-45 0 -66 -43q-14 -28 -15 -84q0 -52 14 -82q20 -41 63 -41q54 0 71 54q9 31 9 71q2 53 -12 82q-18 43 -64 43z
M445 699v-130h-149v130h149zM226 699v-130h-148v130h148z" />
    <glyph glyph-name="divide" unicode="&#xf7;" horiz-adv-x="550" 
d="M364 505q0 -34 -26 -58.5t-63 -24.5t-63 24.5t-26 58.5q0 35 26 59.5t63 24.5t63 -24.5t26 -59.5zM532 356v-116h-514v116h514zM364 81q0 -35 -26 -59.5t-63 -24.5t-63 24.5t-26 59.5q0 34 26 58.5t63 24.5t63 -24.5t26 -58.5z" />
    <glyph glyph-name="oslash" unicode="&#xf8;" horiz-adv-x="516" 
d="M267 501q90 0 147 -48l43 50l33 -29l-47 -53l3 -3q41 -59 39 -173q0 -92 -38 -156q-60 -96 -193 -96q-93 0 -147 45l-40 -46l-32 27l44 50q-2 2 -2 3q-43 64 -42 176q1 87 26 139q26 54 80 84t126 30zM262 373q-45 0 -66 -43q-14 -28 -15 -84q0 -37 4 -54l133 152
q-20 29 -56 29zM338 248q0 28 -3 49l-131 -149q19 -25 54 -25q54 0 71 54q9 31 9 71z" />
    <glyph glyph-name="ugrave" unicode="&#xf9;" horiz-adv-x="551" 
d="M61 172v323h143v-293q0 -35 19 -55.5t50 -20.5q34 0 55 20.5t21 55.5v293h143v-495h-143v42h-2q-18 -21 -52 -34.5t-65 -13.5q-80 0 -124.5 46.5t-44.5 131.5zM254 769l93 -194l-81 -38l-146 186z" />
    <glyph glyph-name="uacute" unicode="&#xfa;" horiz-adv-x="551" 
d="M61 172v323h143v-293q0 -35 19 -55.5t50 -20.5q34 0 55 20.5t21 55.5v293h143v-495h-143v42h-2q-18 -21 -52 -34.5t-65 -13.5q-80 0 -124.5 46.5t-44.5 131.5zM437 727l-135 -190l-83 30l85 203z" />
    <glyph glyph-name="ucircumflex" unicode="&#xfb;" horiz-adv-x="551" 
d="M61 172v323h143v-293q0 -35 19 -55.5t50 -20.5q34 0 55 20.5t21 55.5v293h143v-495h-143v42h-2q-18 -21 -52 -34.5t-65 -13.5q-80 0 -124.5 46.5t-44.5 131.5zM474 570l-56 -49l-144 104l-145 -103l-53 48l147 155h103z" />
    <glyph glyph-name="udieresis" unicode="&#xfc;" horiz-adv-x="551" 
d="M61 172v323h143v-293q0 -35 19 -55.5t50 -20.5q34 0 55 20.5t21 55.5v293h143v-495h-143v42h-2q-18 -21 -52 -34.5t-65 -13.5q-80 0 -124.5 46.5t-44.5 131.5zM455 699v-130h-149v130h149zM236 699v-130h-148v130h148z" />
    <glyph glyph-name="yacute" unicode="&#xfd;" horiz-adv-x="502" 
d="M350 495h152l-224 -591q-39 -104 -157 -104h-57v117h37q41 0 57 49l24 74l-182 455h153l48 -141l48 -156h4l47 154zM424 727l-135 -190l-83 30l85 203z" />
    <glyph glyph-name="thorn" unicode="&#xfe;" horiz-adv-x="533" 
d="M63 -202v929h142v-267l3 -1q37 40 98 40q190 0 190 -263q0 -71 -22 -129q-45 -113 -173 -113q-55 0 -93 45l-3 -1v-240h-142zM205 246q0 -122 72 -122q73 0 73 122q0 35 -6 64q-13 59 -67 59q-48 0 -62 -45q-10 -35 -10 -78z" />
    <glyph glyph-name="ydieresis" unicode="&#xff;" horiz-adv-x="502" 
d="M350 495h152l-224 -591q-39 -104 -157 -104h-57v117h37q41 0 57 49l24 74l-182 455h153l48 -141l48 -156h4l47 154zM426 699v-130h-149v130h149zM207 699v-130h-148v130h148z" />
    <glyph glyph-name="Amacron" unicode="&#x100;" horiz-adv-x="660" 
d="M389 696l270 -696h-162l-52 142h-233l-52 -142h-162l270 696h121zM260 272h137l-26 80l-41 138h-4l-40 -136zM496 876v-118h-333v118h333z" />
    <glyph glyph-name="amacron" unicode="&#x101;" horiz-adv-x="516" 
d="M468 331v-331h-142v46l-3 1q-43 -52 -122 -52q-77 0 -121.5 39t-44.5 113q0 67 48.5 110t130.5 43h112v16q0 60 -83 60q-73 0 -117 -39l-69 97q73 66 201 66q210 0 210 -169zM326 180v16h-94q-60 0 -60 -37q0 -9 4 -18t20.5 -18.5t43.5 -9.5q38 0 62 17.5t24 49.5z
M425 696v-118h-333v118h333z" />
    <glyph glyph-name="Abreve" unicode="&#x102;" horiz-adv-x="660" 
d="M389 696l270 -696h-162l-52 142h-233l-52 -142h-162l270 696h121zM260 272h137l-26 80l-41 138h-4l-40 -136zM172 892h100q0 -25 15.5 -46.5t40.5 -21.5t40.5 21.5t15.5 46.5h100q-6 -56 -37 -103q-38 -58 -119 -58t-119 58q-31 47 -37 103z" />
    <glyph glyph-name="abreve" unicode="&#x103;" horiz-adv-x="516" 
d="M468 331v-331h-142v46l-3 1q-43 -52 -122 -52q-77 0 -121.5 39t-44.5 113q0 67 48.5 110t130.5 43h112v16q0 60 -83 60q-73 0 -117 -39l-69 97q73 66 201 66q210 0 210 -169zM326 180v16h-94q-60 0 -60 -37q0 -9 4 -18t20.5 -18.5t43.5 -9.5q38 0 62 17.5t24 49.5z
M110 722h100q0 -25 15.5 -46.5t40.5 -21.5t40.5 21.5t15.5 46.5h100q-6 -56 -37 -103q-38 -58 -119 -58t-119 58q-31 47 -37 103z" />
    <glyph glyph-name="Aogonek" unicode="&#x104;" horiz-adv-x="660" 
d="M454 -104q0 44 42 105l-51 141h-233l-52 -142h-162l270 696h121l270 -696h-70q-44 -61 -44 -89q0 -27 32 -27q23 0 64 15l28 -70q-55 -31 -108 -31q-46 0 -76.5 28.5t-30.5 69.5zM260 272h137l-26 80l-41 138h-4l-40 -136z" />
    <glyph glyph-name="aogonek" unicode="&#x105;" horiz-adv-x="516" 
d="M284 -104q0 45 42 105v45l-3 1q-43 -52 -122 -52q-77 0 -121.5 39t-44.5 113q0 67 48.5 110t130.5 43h112v16q0 60 -83 60q-73 0 -117 -39l-69 97q73 66 201 66q210 0 210 -169v-331h-49q-44 -61 -44 -89q0 -27 32 -27q23 0 64 15l28 -70q-55 -31 -108 -31
q-46 0 -76.5 28.5t-30.5 69.5zM326 180v16h-94q-60 0 -60 -37q0 -9 4 -18t20.5 -18.5t43.5 -9.5q38 0 62 17.5t24 49.5z" />
    <glyph glyph-name="Cacute" unicode="&#x106;" horiz-adv-x="600" 
d="M427 225l146 -56q-26 -82 -94.5 -128.5t-164.5 -46.5q-130 0 -199.5 73t-69.5 199v164q0 116 70 193q71 78 199 78q96 0 164 -47.5t95 -129.5l-146 -52q-9 39 -39 62t-75 23q-52 0 -82.5 -32t-30.5 -81v-189q0 -51 30 -84t83 -33q44 0 75 24t39 63zM451 823l-214 -90
l-56 69l180 128z" />
    <glyph glyph-name="cacute" unicode="&#x107;" horiz-adv-x="463" 
d="M350 166l94 -96q-83 -76 -187 -76q-99 0 -164 63q-65 65 -65 190q0 126 68 189q67 64 169 64q105 0 175 -72l-92 -97q-43 41 -83 41q-88 0 -88 -125q0 -65 20 -94t65 -29q43 0 88 42zM401 727l-135 -190l-83 30l85 203z" />
    <glyph glyph-name="Ccircumflex" unicode="&#x108;" horiz-adv-x="600" 
d="M427 225l146 -56q-26 -82 -94.5 -128.5t-164.5 -46.5q-130 0 -199.5 73t-69.5 199v164q0 116 70 193q71 78 199 78q96 0 164 -47.5t95 -129.5l-146 -52q-9 39 -39 62t-75 23q-52 0 -82.5 -32t-30.5 -81v-189q0 -51 30 -84t83 -33q44 0 75 24t39 63zM509 785l-51 -59
l-149 79l-150 -78l-48 58l149 120h98z" />
    <glyph glyph-name="ccircumflex" unicode="&#x109;" horiz-adv-x="463" 
d="M350 166l94 -96q-83 -76 -187 -76q-99 0 -164 63q-65 65 -65 190q0 126 68 189q67 64 169 64q105 0 175 -72l-92 -97q-43 41 -83 41q-88 0 -88 -125q0 -65 20 -94t65 -29q43 0 88 42zM454 570l-56 -49l-144 104l-145 -103l-53 48l147 155h103z" />
    <glyph glyph-name="Cdotaccent" unicode="&#x10a;" horiz-adv-x="600" 
d="M427 225l146 -56q-26 -82 -94.5 -128.5t-164.5 -46.5q-130 0 -199.5 73t-69.5 199v164q0 116 70 193q71 78 199 78q96 0 164 -47.5t95 -129.5l-146 -52q-9 39 -39 62t-75 23q-52 0 -82.5 -32t-30.5 -81v-189q0 -51 30 -84t83 -33q44 0 75 24t39 63zM397 879v-130h-148
v130h148z" />
    <glyph glyph-name="cdotaccent" unicode="&#x10b;" horiz-adv-x="463" 
d="M350 166l94 -96q-83 -76 -187 -76q-99 0 -164 63q-65 65 -65 190q0 126 68 189q67 64 169 64q105 0 175 -72l-92 -97q-43 41 -83 41q-88 0 -88 -125q0 -65 20 -94t65 -29q43 0 88 42zM326 699v-130h-148v130h148z" />
    <glyph glyph-name="Ccaron" unicode="&#x10c;" horiz-adv-x="600" 
d="M427 225l146 -56q-26 -82 -94.5 -128.5t-164.5 -46.5q-130 0 -199.5 73t-69.5 199v164q0 116 70 193q71 78 199 78q96 0 164 -47.5t95 -129.5l-146 -52q-9 39 -39 62t-75 23q-52 0 -82.5 -32t-30.5 -81v-189q0 -51 30 -84t83 -33q44 0 75 24t39 63zM160 907l150 -78
l149 79l51 -59l-151 -120h-98l-149 120z" />
    <glyph glyph-name="ccaron" unicode="&#x10d;" horiz-adv-x="463" 
d="M350 166l94 -96q-83 -76 -187 -76q-99 0 -164 63q-65 65 -65 190q0 126 68 189q67 64 169 64q105 0 175 -72l-92 -97q-43 41 -83 41q-88 0 -88 -125q0 -65 20 -94t65 -29q43 0 88 42zM109 724l145 -103l144 104l56 -49l-148 -155h-103l-147 155z" />
    </font>
</defs>
</svg>
