<svg xmlns="http://www.w3.org/2000/svg" width="29.712" height="29.721" viewBox="0 0 29.712 29.721"><g transform="translate(-197.725 -73.841)"><path d="M211.716,73.841h1.742c.5.062,1,.107,1.491.19A14.9,14.9,0,0,1,227.365,90.2a14.177,14.177,0,0,1-3.628,8.305,14.551,14.551,0,0,1-10.526,5.042,14.131,14.131,0,0,1-8.2-2.071,14.643,14.643,0,0,1-7.057-10.213c-.1-.557-.156-1.124-.232-1.687V87.832c.024-.209.048-.418.071-.627a14.907,14.907,0,0,1,12.23-13.133C210.586,73.973,211.152,73.917,211.716,73.841Zm.878,3.251A11.61,11.61,0,1,0,224.2,88.71,11.646,11.646,0,0,0,212.594,77.092Z" transform="translate(0 0)" fill="#d40000"/><path d="M403.153,189.873c0-1.132-.008-2.264,0-3.4a1.226,1.226,0,0,1,.887-1.163,1.193,1.193,0,0,1,1.374.487,1.765,1.765,0,0,1,.231.844c.02,1.934.013,3.869.006,5.8a.643.643,0,0,0,.209.506q2.03,2.012,4.046,4.039a1.257,1.257,0,0,1-1.558,1.971,2.569,2.569,0,0,1-.28-.251c-1.471-1.47-2.938-2.945-4.415-4.408a1.591,1.591,0,0,1-.509-1.213c.012-1.074,0-2.147,0-3.221Z" transform="translate(-191.791 -104.027)" fill="#1a1818"/></g></svg>