<svg xmlns="http://www.w3.org/2000/svg" width="330.343" height="198.964" viewBox="0 0 330.343 198.964"><g transform="translate(-201.535 -174.986)"><g transform="translate(333.559 174.986)"><path d="M406.24,229.681a14.974,14.974,0,0,0-5.267,2.91c-1.062,1.15-2.133,2.288-3.128,3.5a5.282,5.282,0,0,0-.761,1.561c6.216,3.72,10.724,9.606,16.31,14.144l.428-.516c5.79-8.41,14.445-13.555,21.47-20.573a7.975,7.975,0,0,0-1.658-.708,18.233,18.233,0,0,1-1.567-1.43,16.815,16.815,0,0,1-3.059-4.253,16.369,16.369,0,0,1-1.337-3.284c-.684-4.241-.576-4.7-.011-7.319.582-5.066,4.329-8.872,8.6-11.294V202.1a10.983,10.983,0,0,0-3.5-.233,19.877,19.877,0,0,1-2.258.149,8.544,8.544,0,0,0,.722-1.024,33.978,33.978,0,0,1,6.7-5.91c-1.747-.294-3.514.378-5.267.71,1.535-1.828,3.28-3.446,4.643-5.4,2.786-3.932,4.871-8.29,7.189-12.554.543-1,1.165-1.923,1.786-2.857l-.382.236c-1.932,1.8-3.723,3.776-5.82,5.39-3.659,2.777-7.084,5.723-11.417,7.24l-.605.2-.461.142c-2.348.66-4.5,1.625-6.909,2.173-2.152.475-2.916.714-5.556,1.379-.287.079-1.115.281-1.536.378a61.464,61.464,0,0,0-10.158,2.888,23.78,23.78,0,0,0-5.842,3.2,26.977,26.977,0,0,0-3.677,3.321c-2.294,2.5-4.353,5.547-4.609,9.125l1.332.943a13.889,13.889,0,0,1,2.957-4.055,11.018,11.018,0,0,1,8.456-2.7,11.453,11.453,0,0,1,10.078,10.923,12.777,12.777,0,0,1-.5,4.059,10.53,10.53,0,0,1-5.087,6.616l-1.183.487c.125.953.771,1.77.9,2.738" transform="translate(-379.974 -174.986)" fill="#c60016"/><path d="M376.913,238.9c1.869.275,3.4,1.405,5.035,2.42l3.313,2.563c.983-2.31,2.916-3.974,4.786-5.486v-.4c-.445-.507-.906-.975-1.336-1.518-1.678-2.421-2.622-5.026-1.9-8.016a4.146,4.146,0,0,0-1.734-.526c-1.862,4.309-5.211,7.511-8.166,10.964" transform="translate(-376.913 -188.075)" fill="#c60016"/><path d="M406.987,228.747a4.913,4.913,0,1,1-4.907-4.909A4.917,4.917,0,0,1,406.987,228.747Z" transform="translate(-381.918 -187.062)" fill="#1a1818"/><path d="M387.9,227.353c-.008.02-.017.038-.025.058a.405.405,0,0,1,.028-.058Z" transform="translate(-379.623 -187.931)" fill="#1a4899"/></g><g transform="translate(201.535 259.586)"><path d="M238.323,340.689q0,24.7-18.488,24.7-10.566,0-15-8.481a27.558,27.558,0,0,1-2.924-9.859,102.636,102.636,0,0,1-.377-10.495v-21.1a102.453,102.453,0,0,1,.379-10.919,22.6,22.6,0,0,1,3.509-10.071q4.93-7.1,14.412-7.1,8.626,0,13.558,6.1t4.93,16.8a2.859,2.859,0,0,1-.888,2.067,2.663,2.663,0,0,1-1.916.9h-4.767q-2.619,0-2.711-2.969-.482-11.977-8.258-11.979-4.323,0-6.05,3.34T212,313.127v25.019q0,9.118,1.709,12.722a6.147,6.147,0,0,0,6.072,3.6q7.97,0,8.255-13.888.093-2.966,2.711-2.968h4.767Q238.321,337.616,238.323,340.689Z" transform="translate(-201.535 -287.367)" fill="#1a1818"/><path d="M298.559,361.533q.471,3.077-2.341,3.074h-4.965q-2.624,0-3.185-3.091l-1.935-10.271q-.663-3.176-3.313-3.175h-8.993a2.745,2.745,0,0,0-1.99,1.005,4.11,4.11,0,0,0-1.135,2.169l-1.783,10.391q-.567,2.973-3.2,2.973h-4.895q-2.638,0-2.071-3.074l11.979-69.754q.472-2.861,3.114-2.862h8.961q2.735,0,3.3,3.074ZM283.4,334.387l-4.567-27.66c-.131-.424-.327-.638-.589-.638s-.426.244-.491.731L273.367,334.6q-.473,2.759,2.368,2.758h5.4Q283.873,337.362,283.4,334.387Z" transform="translate(-215.654 -287.75)" fill="#1a1818"/><path d="M358.494,361.533c0,.283,0,.567,0,.848q0,2.227-1.865,2.226h-5.508q-2.706,0-3.546-3.083l-7.155-24.917q-.864-2.955-3.553-2.955h-.96q-2.786,0-2.785,2.968v25.019q0,2.969-2.617,2.968h-5.142q-2.525,0-2.523-2.968V291.99a3.214,3.214,0,0,1,.8-2.12,2.357,2.357,0,0,1,1.84-.955h13.772q19.244,0,19.243,21.626,0,12.828-6.885,18.339-2.171,1.7-1.509,3.817Zm-10.751-50.356q0-6.417-2.374-8.986t-8.355-2.567h-1.139a2.512,2.512,0,0,0-1.947.909,3.189,3.189,0,0,0-.806,2.193v17.117q0,3.1,2.753,3.1h1.139q5.981,0,8.355-2.62T347.743,311.176Z" transform="translate(-231.522 -287.75)" fill="#1a1818"/><path d="M418.5,340.861q0,23.748-19.526,23.746H385.012q-2.454,0-2.453-3.074V291.99a3.413,3.413,0,0,1,.754-2.067,2.13,2.13,0,0,1,1.7-1.007h13.961q19.526,0,19.526,23.639Zm-10.47-3.031V315.8q0-8.94-2.232-12.557t-7.735-3.619H395.4q-2.564,0-2.563,2.873v48.955q0,2.449,2.278,2.448h2.942q5.5,0,7.735-3.617T408.028,337.83Z" transform="translate(-246.284 -287.75)" fill="#1a1818"/><path d="M454.791,361.745a2.739,2.739,0,0,1-.9,1.961,2.614,2.614,0,0,1-1.839.9h-5.094a2.517,2.517,0,0,1-1.792-.848,2.746,2.746,0,0,1-.849-2.014V291.884q0-2.966,2.641-2.968h5.189a2.47,2.47,0,0,1,1.792.9,2.817,2.817,0,0,1,.848,1.962Z" transform="translate(-261.552 -287.75)" fill="#1a1818"/><path d="M511.166,361.639a2.923,2.923,0,0,1-.848,2.067,2.548,2.548,0,0,1-1.887.9h-5.093q-2.642,0-3.774-3.074L484.942,322.1c-.252-.705-.5-1.06-.754-1.06s-.377.355-.377,1.06v39.435q0,3.077-2.736,3.074h-5.093q-2.641,0-2.641-2.968V291.99q0-3.075,2.626-3.074h5.067q2.628,0,3.753,3l14.756,39.522c.257.7.512,1.05.769,1.05s.385-.353.385-1.06V291.99q0-3.075,2.642-3.074h5.093q2.735,0,2.736,2.968Z" transform="translate(-268.726 -287.75)" fill="#1a1818"/><path d="M574.726,361.533q.471,3.077-2.341,3.074H567.42q-2.624,0-3.184-3.091L562.3,351.245q-.663-3.176-3.313-3.175h-8.993a2.745,2.745,0,0,0-1.99,1.005,4.11,4.11,0,0,0-1.135,2.169l-1.783,10.391q-.567,2.973-3.2,2.973H536.99q-2.638,0-2.071-3.074L546.9,291.778q.472-2.861,3.114-2.862h8.961q2.735,0,3.3,3.074ZM559.57,334.387,555,306.727c-.131-.424-.327-.638-.589-.638s-.426.244-.491.731L549.534,334.6q-.473,2.759,2.367,2.758h5.4Q560.04,337.362,559.57,334.387Z" transform="translate(-283.923 -287.75)" fill="#1a1818"/><path d="M630.133,361.669q0,2.938-2.64,2.938H601.647q-2.641,0-2.641-2.968V291.99q0-3.075,2.641-3.074h5q2.83,0,2.83,3.079V350.82q0,3.082,2.547,3.08h15.47q2.638,0,2.64,3.044Z" transform="translate(-299.79 -287.75)" fill="#1a1818"/></g><g transform="translate(273.475 205.84)"><path d="M305.6,235.307v1.285q0,.819-.76.818h-6.978q-.76,0-.76-.826V217.218a.858.858,0,0,1,.25-.575.7.7,0,0,1,.513-.281h7q.736,0,.737.847v1.314q0,.816-.715.816h-4.156c-.513,0-.767.327-.767.978v3.735c0,.553.254.83.764.83h3.507q.738,0,.738.847v1.313a.829.829,0,0,1-.226.571.684.684,0,0,1-.517.247h-3.551q-.716,0-.715.892v4.819c0,.574.237.863.714.863h4.156a.694.694,0,0,1,.529.276A.9.9,0,0,1,305.6,235.307Z" transform="translate(-297.098 -216.068)" fill="#1a1818"/><path d="M322.945,232.3a5.341,5.341,0,0,1-1.416,3.861,4.931,4.931,0,0,1-3.725,1.473,5.092,5.092,0,0,1-4.564-2.388,5.438,5.438,0,0,1-1.022-2.946.854.854,0,0,1,.682-.827l1.049-.352a1.737,1.737,0,0,1,.525-.12q.419,0,.577.68.655,2.918,2.754,2.917a1.961,1.961,0,0,0,1.535-.662,2.5,2.5,0,0,0,.589-1.725,3.23,3.23,0,0,0-.565-1.841,13.948,13.948,0,0,0-2.192-2.282l-1.885-1.686a6.927,6.927,0,0,1-2.624-5.276,5.15,5.15,0,0,1,1.378-3.729,4.948,4.948,0,0,1,7.54.693,4.853,4.853,0,0,1,1.076,2.595.766.766,0,0,1-.577.766l-1.311.443a1.063,1.063,0,0,1-.315.059q-.42,0-.629-.648-.709-2.3-2.282-2.3a1.7,1.7,0,0,0-1.325.6,2.2,2.2,0,0,0-.538,1.517,4.751,4.751,0,0,0,1.942,3.332l1.284,1.15a25.476,25.476,0,0,1,2.806,2.77A6.45,6.45,0,0,1,322.945,232.3Z" transform="translate(-300.836 -215.972)" fill="#1a1818"/><path d="M340.1,218.809q0,.828-.735.827h-2.124q-.761,0-.76.854v16.094a.8.8,0,0,1-.237.574.706.706,0,0,1-.524.251H334.3a.664.664,0,0,1-.51-.251.829.829,0,0,1-.224-.574V220.46a.817.817,0,0,0-.249-.561.714.714,0,0,0-.511-.264h-2.124a.653.653,0,0,1-.512-.267.892.892,0,0,1-.223-.589v-1.591a.844.844,0,0,1,.223-.575.67.67,0,0,1,.512-.251h8.681q.734,0,.735.827Z" transform="translate(-305.219 -216.068)" fill="#1a1818"/><path d="M348.044,242.362a.863.863,0,0,1-.236.589.692.692,0,0,1-.524.266h-1.233a.662.662,0,0,1-.5-.281.887.887,0,0,1-.236-.574v-1.65a.889.889,0,0,1,.236-.575.662.662,0,0,1,.5-.281h1.233a.709.709,0,0,1,.51.266.808.808,0,0,1,.249.56Z" transform="translate(-309.018 -221.876)" fill="#1a1818"/></g><g transform="translate(264.827 352.255)"><path d="M295.762,413.343q0,.827-.735.826H292.9q-.761,0-.76.855v16.094a.808.808,0,0,1-.236.574.707.707,0,0,1-.525.251h-1.416a.664.664,0,0,1-.511-.251.832.832,0,0,1-.224-.574V414.994a.809.809,0,0,0-.249-.56.71.71,0,0,0-.511-.266h-2.124a.655.655,0,0,1-.512-.265.9.9,0,0,1-.223-.59v-1.591a.844.844,0,0,1,.223-.575.672.672,0,0,1,.512-.251h8.681c.49,0,.735.276.735.826Z" transform="translate(-285.611 -410.572)" fill="#1a1818"/><path d="M313.455,431.118a.814.814,0,0,1-.263.545.722.722,0,0,1-.5.28h-1.416a.672.672,0,0,1-.5-.265.83.83,0,0,1-.236-.56v-7.546a.915.915,0,0,0-.239-.6.687.687,0,0,0-.528-.28h-2.639a.649.649,0,0,0-.514.28.984.984,0,0,0-.224.633v7.517a.838.838,0,0,1-.248.545.692.692,0,0,1-.507.28h-1.377a.665.665,0,0,1-.495-.265.838.838,0,0,1-.233-.56V411.751a.9.9,0,0,1,.221-.589.65.65,0,0,1,.507-.266h1.377a.693.693,0,0,1,.507.281.867.867,0,0,1,.248.574V418.8a.883.883,0,0,0,.236.574.669.669,0,0,0,.5.28h2.639a.722.722,0,0,0,.5-.294.869.869,0,0,0,.264-.56v-7.045a.887.887,0,0,1,.236-.574.664.664,0,0,1,.5-.281h1.442a.7.7,0,0,1,.486.266.81.81,0,0,1,.249.56Z" transform="translate(-290.043 -410.572)" fill="#1a1818"/><path d="M330.731,429.842v1.285q0,.816-.76.816h-6.978q-.761,0-.76-.825V411.751a.863.863,0,0,1,.25-.574A.7.7,0,0,1,323,410.9h7q.736,0,.736.847v1.314q0,.816-.714.817H325.86q-.769,0-.768.977v3.734q0,.831.765.83h3.507q.737,0,.738.847v1.313a.825.825,0,0,1-.225.57.681.681,0,0,1-.517.248h-3.552q-.715,0-.715.892V428.1q0,.863.714.862h4.157a.691.691,0,0,1,.529.278A.9.9,0,0,1,330.731,429.842Z" transform="translate(-294.664 -410.572)" fill="#1a1818"/><path d="M355.485,413.057a.794.794,0,0,1-.239.568.721.721,0,0,1-.529.248h-4.209a.617.617,0,0,0-.5.282.981.981,0,0,0-.212.606v3.823a.859.859,0,0,0,.225.563.641.641,0,0,0,.491.267h3.6a.686.686,0,0,1,.53.292.956.956,0,0,1,.238.613v1.255a.806.806,0,0,1-.263.541.73.73,0,0,1-.5.277h-3.586a.658.658,0,0,0-.514.266.9.9,0,0,0-.224.592v7.835a.866.866,0,0,1-.248.577.689.689,0,0,1-.507.281h-1.377a.664.664,0,0,1-.481-.294.892.892,0,0,1-.247-.56V411.751q0-.855.735-.855h7.055q.761,0,.761.847Z" transform="translate(-300.77 -410.572)" fill="#1a1818"/><path d="M372.482,425.155a9.06,9.06,0,0,1-1.076,4.981,4.571,4.571,0,0,1-4.065,2.034,4.393,4.393,0,0,1-4.04-2.034,9.516,9.516,0,0,1-1.076-4.981V417.52a9.307,9.307,0,0,1,1.076-5.011,4.488,4.488,0,0,1,4.04-2,4.4,4.4,0,0,1,4.065,2,9.6,9.6,0,0,1,1.076,5.011Zm-2.938-.029v-7.547a7.191,7.191,0,0,0-.485-3.139,2.1,2.1,0,0,0-3.437-.014,7.174,7.174,0,0,0-.485,3.153v7.547a7.247,7.247,0,0,0,.472,3.124,2.124,2.124,0,0,0,3.449,0A7.079,7.079,0,0,0,369.544,425.126Z" transform="translate(-304.55 -410.476)" fill="#1a1818"/><path d="M391.056,425.155a9.059,9.059,0,0,1-1.076,4.981,4.571,4.571,0,0,1-4.065,2.034,4.393,4.393,0,0,1-4.039-2.034,9.516,9.516,0,0,1-1.075-4.981V417.52a9.307,9.307,0,0,1,1.075-5.011,4.49,4.49,0,0,1,4.039-2,4.4,4.4,0,0,1,4.065,2,9.6,9.6,0,0,1,1.076,5.011Zm-2.938-.029v-7.547a7.18,7.18,0,0,0-.485-3.139,2.1,2.1,0,0,0-3.436-.014,7.161,7.161,0,0,0-.486,3.153v7.547a7.247,7.247,0,0,0,.472,3.124,2.124,2.124,0,0,0,3.449,0A7.069,7.069,0,0,0,388.118,425.126Z" transform="translate(-309.142 -410.476)" fill="#1a1818"/><path d="M409.664,425.34q0,6.6-5.429,6.6h-3.882c-.454,0-.681-.284-.681-.854V411.751a.948.948,0,0,1,.209-.574.594.594,0,0,1,.472-.281h3.882q5.429,0,5.429,6.574Zm-2.911-.842v-6.125a7.086,7.086,0,0,0-.62-3.492,2.324,2.324,0,0,0-2.152-1.006h-.738c-.476,0-.712.266-.712.8v13.612c0,.455.211.681.632.681h.818a2.325,2.325,0,0,0,2.152-1.005A7.01,7.01,0,0,0,406.753,424.5Z" transform="translate(-313.807 -410.572)" fill="#1a1818"/><path d="M436.937,425.293q0,6.868-5.141,6.868a4.324,4.324,0,0,1-4.17-2.359,7.648,7.648,0,0,1-.813-2.741,28.318,28.318,0,0,1-.105-2.918v-5.866a28.417,28.417,0,0,1,.105-3.036,6.277,6.277,0,0,1,.976-2.8,5.047,5.047,0,0,1,7.778-.28,7.234,7.234,0,0,1,1.37,4.672.8.8,0,0,1-.247.575.742.742,0,0,1-.533.25h-1.325q-.728,0-.754-.825-.133-3.33-2.3-3.331a1.733,1.733,0,0,0-1.682.928,7.566,7.566,0,0,0-.48,3.2v6.957a9.132,9.132,0,0,0,.475,3.537,1.71,1.71,0,0,0,1.689,1q2.217,0,2.3-3.861c.017-.55.269-.826.754-.826h1.325Q436.936,424.438,436.937,425.293Z" transform="translate(-320.49 -410.466)" fill="#1a1818"/><path d="M455.352,425.155a9.059,9.059,0,0,1-1.076,4.981,4.571,4.571,0,0,1-4.065,2.034,4.393,4.393,0,0,1-4.04-2.034,9.517,9.517,0,0,1-1.075-4.981V417.52a9.307,9.307,0,0,1,1.075-5.011,4.489,4.489,0,0,1,4.04-2,4.4,4.4,0,0,1,4.065,2,9.6,9.6,0,0,1,1.076,5.011Zm-2.938-.029v-7.547a7.191,7.191,0,0,0-.485-3.139,2.1,2.1,0,0,0-3.437-.014,7.174,7.174,0,0,0-.485,3.153v7.547a7.247,7.247,0,0,0,.472,3.124,2.124,2.124,0,0,0,3.449,0A7.08,7.08,0,0,0,452.414,425.126Z" transform="translate(-325.036 -410.476)" fill="#1a1818"/><path d="M477.606,431.118a.829.829,0,0,1-.787.825h-1.233c-.489,0-.734-.284-.734-.854v-13.53c0-.137-.026-.206-.079-.206-.035,0-.07.069-.1.206l-2.834,13.53c-.122.571-.428.854-.918.854h-.262a.888.888,0,0,1-.944-.825l-2.806-13.589c-.035-.138-.07-.206-.105-.206-.052,0-.078.068-.078.206v13.559a.85.85,0,0,1-.236.6.708.708,0,0,1-.525.251H464.7a.655.655,0,0,1-.511-.265.889.889,0,0,1-.223-.589V411.722c0-.55.245-.826.735-.826h2.756q.736,0,.919.854l2.273,10.873c.032.141.08.212.144.212s.111-.069.144-.208l2.279-10.878a.921.921,0,0,1,.946-.853h2.654q.787,0,.788.855Z" transform="translate(-329.701 -410.572)" fill="#1a1818"/><path d="M497.836,417.057a7.324,7.324,0,0,1-1.317,4.835,5.159,5.159,0,0,1-4.131,1.533H491.2c-.492,0-.737.3-.737.885v6.809q0,.826-.78.825h-1.378q-.7,0-.7-.8v-19.4a.9.9,0,0,1,.223-.589.66.66,0,0,1,.512-.266h4.065a5.083,5.083,0,0,1,3.934,1.357A6.928,6.928,0,0,1,497.836,417.057Zm-3.016.207a4.084,4.084,0,0,0-.647-2.676,3.241,3.241,0,0,0-2.44-.714h-.528q-.74,0-.739.863v4.878q0,.832.739.833h.528a3.3,3.3,0,0,0,2.414-.7A3.569,3.569,0,0,0,494.82,417.264Z" transform="translate(-335.545 -410.572)" fill="#1a1818"/><path d="M514.937,431.088c.087.571-.13.854-.651.854h-1.38q-.731,0-.886-.859l-.538-2.856q-.184-.883-.921-.883h-2.5a.763.763,0,0,0-.553.279,1.145,1.145,0,0,0-.315.6l-.5,2.889c-.105.551-.4.827-.891.827h-1.361c-.489,0-.681-.284-.575-.854l3.331-19.4a.819.819,0,0,1,.865-.8h2.492c.506,0,.813.285.917.855Zm-4.215-7.548-1.269-7.691c-.037-.118-.091-.178-.164-.178s-.118.068-.137.2l-1.22,7.725q-.132.768.658.767h1.5C510.6,424.367,510.81,424.093,510.722,423.54Z" transform="translate(-339.558 -410.572)" fill="#1a1818"/><path d="M533.646,431.118a.812.812,0,0,1-.237.574.705.705,0,0,1-.524.251h-1.417a1.1,1.1,0,0,1-1.049-.854l-4.065-10.966c-.071-.195-.141-.294-.209-.294s-.105.1-.105.294v10.966c0,.571-.254.854-.761.854h-1.416q-.735,0-.734-.825V411.751q0-.855.73-.855h1.409a1.089,1.089,0,0,1,1.043.834l4.1,10.99q.106.291.214.291c.071,0,.106-.1.106-.294V411.751q0-.855.735-.855h1.417c.507,0,.761.276.761.826Z" transform="translate(-344.325 -410.572)" fill="#1a1818"/><path d="M552.583,411.751l-3.778,11.172a5.167,5.167,0,0,0-.262,1.68v6.485a.893.893,0,0,1-.223.589.68.68,0,0,1-.538.265h-1.39q-.761,0-.761-.825V424.6a5.332,5.332,0,0,0-.262-1.68L541.7,411.781a1.22,1.22,0,0,1-.053-.353.467.467,0,0,1,.525-.531H543.9a.933.933,0,0,1,.944.826l2.046,7.252c.087.255.175.383.263.383s.166-.138.236-.413l2.1-7.222a1,1,0,0,1,.97-.826h1.653q.55,0,.55.5A1.03,1.03,0,0,1,552.583,411.751Z" transform="translate(-348.903 -410.572)" fill="#1a1818"/></g><g transform="translate(407.342 205.825)"><path d="M480.354,236.457q0,.915-.761.915H478.36q-.708,0-.708-.915V222.043q0-.943-.813-.943h-1.155q-.76,0-.76-1a1.4,1.4,0,0,1,.76-1.327,10.491,10.491,0,0,0,2.2-1.65,2.743,2.743,0,0,1,1.626-.973q.84,0,.84.973Z" transform="translate(-474.924 -216)" fill="#1a1818"/><path d="M496.921,230.838a8.744,8.744,0,0,1-1.128,4.952,4.079,4.079,0,0,1-3.541,1.856,3.953,3.953,0,0,1-3.409-1.679,5.311,5.311,0,0,1-1.023-3.244.948.948,0,0,1,.223-.6.645.645,0,0,1,.512-.279h1.206q.682,0,.76.883.183,2.034,1.731,2.036a1.522,1.522,0,0,0,1.534-.93,10.231,10.231,0,0,0,.407-3.552v-1.649c0-.275-.061-.413-.183-.413-.105,0-.306.139-.6.413a3.011,3.011,0,0,1-2.046.707q-3.8,0-3.8-6.308,0-7.073,4.694-7.074,4.669,0,4.669,7.4Zm-2.728-6.721V222.23q0-3.418-1.875-3.418-1.9,0-1.9,3.861a7.261,7.261,0,0,0,.417,2.9,1.443,1.443,0,0,0,1.406.869,1.711,1.711,0,0,0,1.445-.663A2.665,2.665,0,0,0,494.193,224.117Z" transform="translate(-478.047 -215.952)" fill="#1a1818"/><path d="M513.906,230.838a8.744,8.744,0,0,1-1.128,4.952,4.078,4.078,0,0,1-3.541,1.856,3.953,3.953,0,0,1-3.409-1.679,5.315,5.315,0,0,1-1.022-3.244.944.944,0,0,1,.223-.6.643.643,0,0,1,.511-.279h1.207q.681,0,.76.883.184,2.034,1.731,2.036a1.522,1.522,0,0,0,1.534-.93,10.213,10.213,0,0,0,.406-3.552v-1.649c0-.275-.061-.413-.183-.413-.1,0-.306.139-.6.413a3.013,3.013,0,0,1-2.046.707q-3.8,0-3.8-6.308,0-7.073,4.694-7.074,4.669,0,4.669,7.4Zm-2.728-6.721V222.23q0-3.418-1.875-3.418-1.9,0-1.9,3.861a7.247,7.247,0,0,0,.417,2.9,1.443,1.443,0,0,0,1.406.869,1.712,1.712,0,0,0,1.445-.663A2.664,2.664,0,0,0,511.178,224.117Z" transform="translate(-482.246 -215.952)" fill="#1a1818"/><path d="M532.1,231.21q0,.884-.76.884h-.6q-.734,0-.734.915v3.507q0,.915-.735.915h-1.206q-.814,0-.813-.915v-3.448q0-.972-.761-.973h-4.275q-.734,0-.735-.913v-1.445a6.887,6.887,0,0,1,.682-2.476l.078-.147,4.354-9.757q.45-.972,1.189-.973h1.48q.741,0,.741.973v10.936c0,.629.258.943.777.943h.57q.752,0,.751.944Zm-4.852-2.919v-5.808c0-.235-.044-.352-.132-.352s-.184.117-.289.352l-2.459,5.84a.811.811,0,0,0-.084.353q0,.558.472.557h1.731C527,229.234,527.25,228.921,527.25,228.291Z" transform="translate(-486.432 -216.058)" fill="#1a1818"/></g></g></svg>