<svg xmlns="http://www.w3.org/2000/svg" width="174.656" height="85.365" viewBox="0 0 174.656 85.365"><g transform="translate(709.335 -196.774)"><g transform="translate(-709.335 196.774)"><path d="M-709.335,261.6a11.857,11.857,0,0,1,3.1-.936c5.173-.1,10.349-.051,15.524-.04,1.978,0,3.024.888,3,2.474-.025,1.525-1.057,2.433-2.922,2.441-5.329.023-10.659.063-15.985-.044-.911-.018-1.809-.731-2.713-1.122Z" transform="translate(709.335 -234.388)"/><path d="M-565.576,218.494c5.9,0,11.545.053,17.188-.021a7.083,7.083,0,0,1,6.871,4c4.14,7.554,8.359,15.065,12.574,22.578a16.943,16.943,0,0,1,2.253,8.672c-.052,4.158,0,8.316-.016,12.474-.009,3.194-1.663,5.031-4.808,4.832-2.614-.165-4.027.352-5.059,3.166-1.89,5.149-7.452,8.259-12.752,7.921a13.516,13.516,0,0,1-12.249-9.444c-.154-.48-.3-.963-.494-1.586H-569.9c-11.7,0-40.657.016-52.361-.026-1.137,0-1.665.225-2.018,1.424a13.43,13.43,0,0,1-12.855,9.653,13.458,13.458,0,0,1-12.9-9.6,1.689,1.689,0,0,0-1.98-1.483c-6.314.066-12.628.035-18.942.029-2.5,0-3.3-.806-3.3-3.325,0-5.131,0-10.262,0-15.588-.6-.029-1.142-.076-1.679-.077q-8.162-.008-16.324-.006a8.566,8.566,0,0,1-1.536-.063,2.26,2.26,0,0,1-1.975-2.227,2.2,2.2,0,0,1,1.56-2.386,6.146,6.146,0,0,1,1.968-.239q14.552-.021,29.1-.009a9.808,9.808,0,0,1,1.077.024,2.47,2.47,0,0,1,2.437,2.481,2.4,2.4,0,0,1-2.619,2.408c-2.3.039-4.6.01-6.988.01v14.009c.356.023.652.058.947.059,5.544,0,11.089-.011,16.632.018a1.263,1.263,0,0,0,1.489-1.089A13.425,13.425,0,0,1-637.1,255.1a13.482,13.482,0,0,1,12.956,9.938c.216.72.387,1.142,1.279,1.14,11.5-.035,40.246-.03,51.745-.039a2.661,2.661,0,0,0,.458-.114v-64.2h-98.559v7.55h1.617c4.055,0,40.965-.012,45.02.007,1.972.009,3.072.918,3.069,2.451s-1.119,2.46-3.076,2.462c-9.6.014-52.049.007-61.646,0a6.06,6.06,0,0,1-.768-.035,2.451,2.451,0,0,1-2.339-2.407,2.363,2.363,0,0,1,2.434-2.443c2.873-.073,5.749-.034,8.623-.041.607,0,1.214,0,2.033,0,0-2.478,0-4.816,0-7.154.005-3.828,1.593-5.439,5.4-5.44,26.848,0,70.944,0,97.792,0,3.879,0,5.476,1.627,5.481,5.552q.009,7.161,0,14.322Zm33.947,47.583c0-4.184-.03-8.279.012-12.372a12.127,12.127,0,0,0-1.59-6.174q-6.343-11.346-12.647-22.713a2.456,2.456,0,0,0-2.459-1.417c-5.287.047-10.575.019-15.862.024-.4,0-.8.047-1.225.075v42.61c3.079.163,3.079.163,4.173-2.559a13.5,13.5,0,0,1,12.487-8.455,13.5,13.5,0,0,1,12.517,8.408C-535.087,266.294-535.087,266.294-531.629,266.077Zm-114.006,2.473a8.482,8.482,0,0,0,8.508,8.655,8.538,8.538,0,0,0,8.486-8.7,8.5,8.5,0,0,0-8.539-8.478A8.414,8.414,0,0,0-645.635,268.55Zm105.413.013a8.453,8.453,0,0,0-8.454-8.539,8.459,8.459,0,0,0-8.534,8.618A8.508,8.508,0,0,0-548.6,277.2,8.5,8.5,0,0,0-540.223,268.563Z" transform="translate(701.345 -196.774)"/><path d="M-651.284,268.517h1.8c9.9,0,16.521-.029,26.424.048a3.957,3.957,0,0,1,2.649,1.1c1.184,1.321.19,3.416-1.625,3.728a9.1,9.1,0,0,1-1.536.05c-13.752,0-24.218,0-37.969,0-.41,0-.823.02-1.231-.017a2.412,2.412,0,0,1-2.385-2.5,2.356,2.356,0,0,1,2.468-2.4c2.094-.05,4.19-.012,6.481-.012v-3.133q0-4.772,0-9.544c0-2.671.741-3.859,2.42-3.883s2.507,1.221,2.508,3.821q0,5.542,0,11.083Z" transform="translate(683.303 -229.297)"/></g><g transform="translate(-635.326 204.514)"><path d="M-499.463,256.53a11.2,11.2,0,0,0-3.939,2.177c-.794.86-1.6,1.711-2.339,2.618a3.945,3.945,0,0,0-.569,1.167c4.649,2.782,8.02,7.184,12.2,10.578l.32-.386c4.33-6.29,10.8-10.138,16.057-15.386a5.977,5.977,0,0,0-1.24-.53,13.69,13.69,0,0,1-1.172-1.069,12.579,12.579,0,0,1-2.288-3.181,12.238,12.238,0,0,1-1-2.456c-.511-3.172-.431-3.515-.008-5.473.435-3.789,3.238-6.635,6.432-8.447V235.9a8.213,8.213,0,0,0-2.618-.174,14.885,14.885,0,0,1-1.689.111,6.377,6.377,0,0,0,.54-.766,25.4,25.4,0,0,1,5.011-4.42,11.461,11.461,0,0,0-3.939.531c1.148-1.367,2.453-2.577,3.473-4.039a91.526,91.526,0,0,0,5.377-9.389c.406-.748.871-1.438,1.336-2.137l-.285.177c-1.445,1.346-2.784,2.824-4.353,4.031-2.737,2.077-5.3,4.28-8.539,5.415l-.453.149-.345.106c-1.756.494-3.365,1.215-5.167,1.625-1.609.355-2.181.534-4.155,1.031-.215.059-.834.21-1.149.283a45.95,45.95,0,0,0-7.6,2.16,17.78,17.78,0,0,0-4.369,2.393,20.187,20.187,0,0,0-2.75,2.483,11.626,11.626,0,0,0-3.447,6.825l1,.705a10.391,10.391,0,0,1,2.211-3.032,8.24,8.24,0,0,1,6.324-2.019,8.565,8.565,0,0,1,7.537,8.169,9.554,9.554,0,0,1-.374,3.036,7.874,7.874,0,0,1-3.8,4.948l-.885.364c.094.713.577,1.324.673,2.048" transform="translate(519.109 -215.621)" fill="#c60016"/><path d="M-529.122,296.423a10.225,10.225,0,0,1,3.766,1.81l2.478,1.917a11.237,11.237,0,0,1,3.579-4.1v-.3c-.333-.379-.678-.729-1-1.135a7.2,7.2,0,0,1-1.421-6,3.093,3.093,0,0,0-1.3-.393c-1.393,3.223-3.9,5.617-6.107,8.2" transform="translate(529.123 -258.408)" fill="#c60016"/></g><path d="M-492.977,285.963a3.561,3.561,0,0,1-3.558,3.563,3.561,3.561,0,0,1-3.563-3.558,3.56,3.56,0,0,1,3.557-3.563h.007A3.564,3.564,0,0,1-492.977,285.963Z" transform="translate(-123.309 -50.464)"/><path d="M-512.417,287.075c-.006.014-.012.027-.018.042a.26.26,0,0,1,.021-.042Z" transform="translate(-116.038 -53.217)" fill="#1a4899"/></g></svg>