<svg xmlns="http://www.w3.org/2000/svg" width="63.118" height="44.193" viewBox="0 0 63.118 44.193"><path d="M82.8,118.058a7.907,7.907,0,0,0-5.563-5.564c-4.939-1.351-24.7-1.351-24.7-1.351s-19.756,0-24.7,1.3a8.068,8.068,0,0,0-5.563,5.615c-1.3,4.939-1.3,15.181-1.3,15.181s0,10.294,1.3,15.181a7.909,7.909,0,0,0,5.563,5.563c4.991,1.352,24.7,1.352,24.7,1.352s19.757,0,24.7-1.3a7.908,7.908,0,0,0,5.564-5.563c1.3-4.939,1.3-15.181,1.3-15.181S84.149,123,82.8,118.058ZM46.247,142.7V123.777l16.429,9.462Z" transform="translate(-20.979 -111.143)" fill="#ca0000"/></svg>